M48
;DRILL file {kicad (2015-01-16 BZR 5376)-product} date 8/3/2015 4:30:38 PM
;FORMAT={-:-/ absolute / metric / decimal}
FMAT,2
METRIC,TZ
T1C0.550
T2C0.599
T3C0.800
T4C0.998
T5C1.001
T6C1.016
T7C1.200
T8C1.298
T9C3.200
%
G90
G05
M71
T1
X86.296Y-86.487
X88.328Y-66.929
X89.344Y-70.421
X89.725Y-93.853
X90.361Y-97.155
X91.249Y-76.644
X92.71Y-93.535
X93.027Y-69.977
X94.742Y-77.406
X97.091Y-85.407
X98.044Y-76.708
X100.266Y-89.98
X104.965Y-64.579
X105.156Y-74.676
X106.045Y-80.518
X106.934Y-81.534
X107.569Y-95.694
X107.569Y-96.965
X107.823Y-72.072
X107.823Y-84.519
X108.839Y-79.692
X109.372Y-103.632
X109.664Y-85.153
X109.728Y-86.423
X110.236Y-87.566
X111.188Y-78.613
X111.95Y-96.965
X112.236Y-93.25
X112.268Y-83.185
X112.586Y-78.549
X112.586Y-94.488
X113.284Y-75.755
X114.935Y-73.406
X115.253Y-70.929
X115.57Y-94.361
X116.891Y-94.336
X117.754Y-73.609
X118.427Y-78.422
X118.466Y-81.077
X118.491Y-69.025
X118.554Y-72.517
X119.571Y-64.516
X121.412Y-81.597
X121.983Y-73.343
X122.11Y-67.437
X122.428Y-80.581
X123.088Y-71.476
X123.634Y-80.645
X124.269Y-56.769
X125.476Y-86.766
X125.667Y-62.674
X125.73Y-84.264
X125.984Y-72.834
X126.136Y-88.595
X126.543Y-80.569
X126.746Y-83.629
X126.81Y-67.754
X126.873Y-79.057
X126.873Y-87.185
X127.762Y-69.787
X127.864Y-66.751
X127.889Y-77.978
X127.889Y-88.138
X127.953Y-83.757
X128.333Y-72.453
X128.588Y-85.979
X128.676Y-76.403
X129.032Y-70.676
X129.134Y-90.576
X129.642Y-75.235
X130.175Y-92.265
X130.81Y-75.882
X131.89Y-69.659
X132.207Y-77.914
X132.271Y-85.852
X132.652Y-93.154
X132.842Y-70.612
X134.176Y-70.612
X134.683Y-98.044
X135.191Y-76.517
X136.207Y-59.309
X137.35Y-77.533
X138.176Y-92.773
X138.493Y-104.394
X140.272Y-65.024
X140.272Y-103.95
X142.43Y-64.834
X142.748Y-57.023
X144.208Y-93.853
X144.208Y-95.504
X144.589Y-57.594
X144.653Y-76.136
X144.97Y-69.596
X145.351Y-84.582
X145.542Y-104.331
X147.32Y-64.389
X147.447Y-65.722
X147.637Y-78.232
X147.765Y-94.869
X148.018Y-74.358
X149.161Y-73.343
X150.177Y-71.819
X150.939Y-104.648
X151.384Y-77.47
X151.701Y-65.024
X152.908Y-75.692
X159.639Y-99.314
T2
X145.161Y-96.787
X145.161Y-98.285
T3
X163.068Y-98.584
X163.068Y-100.584
X163.068Y-102.584
T4
X82.042Y-69.85
X82.042Y-72.39
X82.042Y-74.93
X82.042Y-77.47
X82.042Y-80.01
X82.042Y-82.55
X82.042Y-85.09
X82.042Y-87.63
X82.042Y-90.17
X82.042Y-92.71
X84.582Y-69.85
X84.582Y-72.39
X84.582Y-74.93
X84.582Y-77.47
X84.582Y-80.01
X84.582Y-82.55
X84.582Y-85.09
X84.582Y-87.63
X84.582Y-90.17
X84.582Y-92.71
T6
X86.36Y-60.96
X86.36Y-101.6
X88.9Y-60.96
X88.9Y-101.6
X91.44Y-60.96
X91.44Y-101.6
X93.98Y-60.96
X93.98Y-101.6
X96.52Y-60.96
X96.52Y-101.6
X99.06Y-60.96
X99.06Y-101.6
X101.6Y-60.96
X101.6Y-101.6
X104.14Y-60.96
X104.14Y-101.6
X106.68Y-60.96
X106.68Y-101.6
X109.22Y-60.96
X109.22Y-101.6
X111.76Y-60.96
X111.76Y-101.6
X114.3Y-60.96
X114.3Y-101.6
X116.84Y-60.96
X116.84Y-101.6
X119.38Y-60.96
X119.38Y-101.6
X121.92Y-60.96
X121.92Y-101.6
X124.46Y-60.96
X124.46Y-101.6
X127.Y-60.96
X127.Y-101.6
X129.54Y-60.96
X129.54Y-101.6
X132.08Y-60.96
X132.08Y-101.6
X134.62Y-60.96
X134.62Y-101.6
X137.16Y-60.96
X137.16Y-101.6
X139.7Y-60.96
X139.7Y-101.6
X140.208Y-75.056
X140.208Y-77.596
X140.208Y-80.136
X140.208Y-82.676
X140.208Y-85.216
X140.208Y-87.756
X140.208Y-90.296
X142.24Y-60.96
X142.24Y-101.6
X144.78Y-60.96
X144.78Y-101.6
X147.32Y-60.96
X147.32Y-101.6
X149.86Y-60.96
X149.86Y-101.6
X152.4Y-60.96
X152.4Y-101.6
X154.94Y-60.96
X154.94Y-101.6
T7
X163.068Y-96.584
X163.068Y-104.584
T8
X106.172Y-72.964
X106.172Y-92.964
T9
X162.208Y-75.296
X162.208Y-90.296
T5
X156.106Y-68.563G85X156.106Y-66.565
G05
X160.105Y-62.865G85X158.106Y-62.865
G05
X162.105Y-68.563G85X162.105Y-66.565
G05
T0
M30
