G04 #@! TF.FileFunction,Copper,L1,Top,Signal*
%FSLAX46Y46*%
G04 Gerber Fmt 4.6, Leading zero omitted, Abs format (unit mm)*
G04 Created by KiCad (PCBNEW (2015-01-16 BZR 5376)-product) date 8/3/2015 4:30:31 PM*
%MOMM*%
G01*
G04 APERTURE LIST*
%ADD10C,0.100000*%
%ADD11R,3.500120X3.500120*%
%ADD12R,2.032000X1.727200*%
%ADD13O,2.032000X1.727200*%
%ADD14C,4.200000*%
%ADD15C,1.948180*%
%ADD16R,0.750000X1.200000*%
%ADD17R,3.500120X2.400300*%
%ADD18R,1.200000X0.750000*%
%ADD19R,0.797560X0.797560*%
%ADD20R,3.500120X1.800860*%
%ADD21R,3.657600X2.032000*%
%ADD22R,1.016000X2.032000*%
%ADD23R,1.200000X0.900000*%
%ADD24R,0.900000X1.200000*%
%ADD25R,2.000000X1.300000*%
%ADD26C,1.600000*%
%ADD27C,1.800000*%
%ADD28R,1.550000X0.600000*%
%ADD29C,1.000760*%
%ADD30R,2.000000X1.600000*%
%ADD31C,1.506220*%
%ADD32R,1.727200X2.032000*%
%ADD33O,1.727200X2.032000*%
%ADD34C,1.000000*%
%ADD35C,0.508000*%
%ADD36C,0.254000*%
%ADD37C,0.381000*%
%ADD38C,0.304800*%
%ADD39C,0.203200*%
%ADD40C,0.762000*%
%ADD41C,0.635000*%
G04 APERTURE END LIST*
D10*
X165000000Y-107000000D02*
X80000000Y-107000000D01*
X80000000Y-56000000D02*
X165000000Y-56000000D01*
X165000000Y-56000000D02*
X165000000Y-107000000D01*
X75000000Y-61000000D02*
X75000000Y-102000000D01*
X80000000Y-56000000D02*
G75*
G03X75000000Y-61000000I0J-5000000D01*
G01*
X75000000Y-102000000D02*
G75*
G03X80000000Y-107000000I5000000J0D01*
G01*
D11*
X156105860Y-67564000D03*
X162105340Y-67564000D03*
X159105600Y-62865000D03*
D12*
X140208000Y-90296000D03*
D13*
X140208000Y-87756000D03*
X140208000Y-85216000D03*
X140208000Y-82676000D03*
X140208000Y-80136000D03*
X140208000Y-77596000D03*
X140208000Y-75056000D03*
D14*
X162208000Y-90296000D03*
X162208000Y-75296000D03*
D15*
X106172000Y-72964040D03*
X106172000Y-92964000D03*
D16*
X105664000Y-68138000D03*
X105664000Y-70038000D03*
D10*
G36*
X112580150Y-67147180D02*
X112049820Y-66616850D01*
X112898348Y-65768322D01*
X113428678Y-66298652D01*
X112580150Y-67147180D01*
X112580150Y-67147180D01*
G37*
G36*
X113923652Y-65803678D02*
X113393322Y-65273348D01*
X114241850Y-64424820D01*
X114772180Y-64955150D01*
X113923652Y-65803678D01*
X113923652Y-65803678D01*
G37*
D16*
X105664000Y-76266000D03*
X105664000Y-78166000D03*
D10*
G36*
X110050850Y-68615820D02*
X110581180Y-69146150D01*
X109732652Y-69994678D01*
X109202322Y-69464348D01*
X110050850Y-68615820D01*
X110050850Y-68615820D01*
G37*
G36*
X108707348Y-69959322D02*
X109237678Y-70489652D01*
X108389150Y-71338180D01*
X107858820Y-70807850D01*
X108707348Y-69959322D01*
X108707348Y-69959322D01*
G37*
D17*
X143560800Y-67310000D03*
X150063200Y-67310000D03*
D16*
X106299000Y-83124000D03*
X106299000Y-85024000D03*
D17*
X131622800Y-67310000D03*
X138125200Y-67310000D03*
D18*
X134241500Y-92583000D03*
X136141500Y-92583000D03*
D16*
X106299000Y-89850000D03*
X106299000Y-87950000D03*
D19*
X98818700Y-64643000D03*
X100317300Y-64643000D03*
D20*
X154345640Y-96456500D03*
X159344360Y-96456500D03*
D19*
X158826200Y-104775000D03*
X160324800Y-104775000D03*
X121920000Y-98412300D03*
X121920000Y-96913700D03*
X124460000Y-98412300D03*
X124460000Y-96913700D03*
X127000000Y-98412300D03*
X127000000Y-96913700D03*
X129540000Y-98348800D03*
X129540000Y-96850200D03*
D21*
X133858000Y-73914000D03*
D22*
X133858000Y-80518000D03*
X136144000Y-80518000D03*
X131572000Y-80518000D03*
D21*
X133858000Y-83566000D03*
D22*
X133858000Y-90170000D03*
X136144000Y-90170000D03*
X131572000Y-90170000D03*
D23*
X92413000Y-64135000D03*
X90213000Y-64135000D03*
X90213000Y-66611500D03*
X92413000Y-66611500D03*
X90340000Y-74930000D03*
X92540000Y-74930000D03*
X90340000Y-83058000D03*
X92540000Y-83058000D03*
X90594000Y-91186000D03*
X92794000Y-91186000D03*
X160358000Y-102489000D03*
X158158000Y-102489000D03*
D24*
X121767600Y-92422800D03*
X121767600Y-94622800D03*
X124104400Y-92422800D03*
X124104400Y-94622800D03*
X126390400Y-92422800D03*
X126390400Y-94622800D03*
X128676400Y-92422800D03*
X128676400Y-94622800D03*
D23*
X133751500Y-94361000D03*
X131551500Y-94361000D03*
X133751500Y-96647000D03*
X131551500Y-96647000D03*
D25*
X95339000Y-71338000D03*
X95339000Y-66838000D03*
X103289000Y-66838000D03*
X103289000Y-71338000D03*
D26*
X163068000Y-98584000D03*
X163068000Y-100584000D03*
X163068000Y-102584000D03*
D27*
X163068000Y-104584000D03*
X163068000Y-96584000D03*
D25*
X95339000Y-79466000D03*
X95339000Y-74966000D03*
X103289000Y-74966000D03*
X103289000Y-79466000D03*
X95339000Y-87594000D03*
X95339000Y-83094000D03*
X103289000Y-83094000D03*
X103289000Y-87594000D03*
X95339000Y-95722000D03*
X95339000Y-91222000D03*
X103289000Y-91222000D03*
X103289000Y-95722000D03*
D10*
G36*
X118208621Y-75380311D02*
X118385398Y-75203534D01*
X119304637Y-76122773D01*
X119127860Y-76299550D01*
X118208621Y-75380311D01*
X118208621Y-75380311D01*
G37*
G36*
X117855068Y-75733864D02*
X118031845Y-75557087D01*
X118951084Y-76476326D01*
X118774307Y-76653103D01*
X117855068Y-75733864D01*
X117855068Y-75733864D01*
G37*
G36*
X117501514Y-76087418D02*
X117678291Y-75910641D01*
X118597530Y-76829880D01*
X118420753Y-77006657D01*
X117501514Y-76087418D01*
X117501514Y-76087418D01*
G37*
G36*
X117147961Y-76440971D02*
X117324738Y-76264194D01*
X118243977Y-77183433D01*
X118067200Y-77360210D01*
X117147961Y-76440971D01*
X117147961Y-76440971D01*
G37*
G36*
X116794408Y-76794524D02*
X116971185Y-76617747D01*
X117890424Y-77536986D01*
X117713647Y-77713763D01*
X116794408Y-76794524D01*
X116794408Y-76794524D01*
G37*
G36*
X116440854Y-77148078D02*
X116617631Y-76971301D01*
X117536870Y-77890540D01*
X117360093Y-78067317D01*
X116440854Y-77148078D01*
X116440854Y-77148078D01*
G37*
G36*
X116087301Y-77501631D02*
X116264078Y-77324854D01*
X117183317Y-78244093D01*
X117006540Y-78420870D01*
X116087301Y-77501631D01*
X116087301Y-77501631D01*
G37*
G36*
X115733747Y-77855185D02*
X115910524Y-77678408D01*
X116829763Y-78597647D01*
X116652986Y-78774424D01*
X115733747Y-77855185D01*
X115733747Y-77855185D01*
G37*
G36*
X115380194Y-78208738D02*
X115556971Y-78031961D01*
X116476210Y-78951200D01*
X116299433Y-79127977D01*
X115380194Y-78208738D01*
X115380194Y-78208738D01*
G37*
G36*
X115026641Y-78562291D02*
X115203418Y-78385514D01*
X116122657Y-79304753D01*
X115945880Y-79481530D01*
X115026641Y-78562291D01*
X115026641Y-78562291D01*
G37*
G36*
X114673087Y-78915845D02*
X114849864Y-78739068D01*
X115769103Y-79658307D01*
X115592326Y-79835084D01*
X114673087Y-78915845D01*
X114673087Y-78915845D01*
G37*
G36*
X114319534Y-79269398D02*
X114496311Y-79092621D01*
X115415550Y-80011860D01*
X115238773Y-80188637D01*
X114319534Y-79269398D01*
X114319534Y-79269398D01*
G37*
G36*
X114496311Y-82451379D02*
X114319534Y-82274602D01*
X115238773Y-81355363D01*
X115415550Y-81532140D01*
X114496311Y-82451379D01*
X114496311Y-82451379D01*
G37*
G36*
X114849864Y-82804932D02*
X114673087Y-82628155D01*
X115592326Y-81708916D01*
X115769103Y-81885693D01*
X114849864Y-82804932D01*
X114849864Y-82804932D01*
G37*
G36*
X115203418Y-83158486D02*
X115026641Y-82981709D01*
X115945880Y-82062470D01*
X116122657Y-82239247D01*
X115203418Y-83158486D01*
X115203418Y-83158486D01*
G37*
G36*
X115556971Y-83512039D02*
X115380194Y-83335262D01*
X116299433Y-82416023D01*
X116476210Y-82592800D01*
X115556971Y-83512039D01*
X115556971Y-83512039D01*
G37*
G36*
X115910524Y-83865592D02*
X115733747Y-83688815D01*
X116652986Y-82769576D01*
X116829763Y-82946353D01*
X115910524Y-83865592D01*
X115910524Y-83865592D01*
G37*
G36*
X116264078Y-84219146D02*
X116087301Y-84042369D01*
X117006540Y-83123130D01*
X117183317Y-83299907D01*
X116264078Y-84219146D01*
X116264078Y-84219146D01*
G37*
G36*
X116617631Y-84572699D02*
X116440854Y-84395922D01*
X117360093Y-83476683D01*
X117536870Y-83653460D01*
X116617631Y-84572699D01*
X116617631Y-84572699D01*
G37*
G36*
X116971185Y-84926253D02*
X116794408Y-84749476D01*
X117713647Y-83830237D01*
X117890424Y-84007014D01*
X116971185Y-84926253D01*
X116971185Y-84926253D01*
G37*
G36*
X117324738Y-85279806D02*
X117147961Y-85103029D01*
X118067200Y-84183790D01*
X118243977Y-84360567D01*
X117324738Y-85279806D01*
X117324738Y-85279806D01*
G37*
G36*
X117678291Y-85633359D02*
X117501514Y-85456582D01*
X118420753Y-84537343D01*
X118597530Y-84714120D01*
X117678291Y-85633359D01*
X117678291Y-85633359D01*
G37*
G36*
X118031845Y-85986913D02*
X117855068Y-85810136D01*
X118774307Y-84890897D01*
X118951084Y-85067674D01*
X118031845Y-85986913D01*
X118031845Y-85986913D01*
G37*
G36*
X118385398Y-86340466D02*
X118208621Y-86163689D01*
X119127860Y-85244450D01*
X119304637Y-85421227D01*
X118385398Y-86340466D01*
X118385398Y-86340466D01*
G37*
G36*
X120471363Y-85421227D02*
X120648140Y-85244450D01*
X121567379Y-86163689D01*
X121390602Y-86340466D01*
X120471363Y-85421227D01*
X120471363Y-85421227D01*
G37*
G36*
X120824916Y-85067674D02*
X121001693Y-84890897D01*
X121920932Y-85810136D01*
X121744155Y-85986913D01*
X120824916Y-85067674D01*
X120824916Y-85067674D01*
G37*
G36*
X121178470Y-84714120D02*
X121355247Y-84537343D01*
X122274486Y-85456582D01*
X122097709Y-85633359D01*
X121178470Y-84714120D01*
X121178470Y-84714120D01*
G37*
G36*
X121532023Y-84360567D02*
X121708800Y-84183790D01*
X122628039Y-85103029D01*
X122451262Y-85279806D01*
X121532023Y-84360567D01*
X121532023Y-84360567D01*
G37*
G36*
X121885576Y-84007014D02*
X122062353Y-83830237D01*
X122981592Y-84749476D01*
X122804815Y-84926253D01*
X121885576Y-84007014D01*
X121885576Y-84007014D01*
G37*
G36*
X122239130Y-83653460D02*
X122415907Y-83476683D01*
X123335146Y-84395922D01*
X123158369Y-84572699D01*
X122239130Y-83653460D01*
X122239130Y-83653460D01*
G37*
G36*
X122592683Y-83299907D02*
X122769460Y-83123130D01*
X123688699Y-84042369D01*
X123511922Y-84219146D01*
X122592683Y-83299907D01*
X122592683Y-83299907D01*
G37*
G36*
X122946237Y-82946353D02*
X123123014Y-82769576D01*
X124042253Y-83688815D01*
X123865476Y-83865592D01*
X122946237Y-82946353D01*
X122946237Y-82946353D01*
G37*
G36*
X123299790Y-82592800D02*
X123476567Y-82416023D01*
X124395806Y-83335262D01*
X124219029Y-83512039D01*
X123299790Y-82592800D01*
X123299790Y-82592800D01*
G37*
G36*
X123653343Y-82239247D02*
X123830120Y-82062470D01*
X124749359Y-82981709D01*
X124572582Y-83158486D01*
X123653343Y-82239247D01*
X123653343Y-82239247D01*
G37*
G36*
X124006897Y-81885693D02*
X124183674Y-81708916D01*
X125102913Y-82628155D01*
X124926136Y-82804932D01*
X124006897Y-81885693D01*
X124006897Y-81885693D01*
G37*
G36*
X124360450Y-81532140D02*
X124537227Y-81355363D01*
X125456466Y-82274602D01*
X125279689Y-82451379D01*
X124360450Y-81532140D01*
X124360450Y-81532140D01*
G37*
G36*
X124537227Y-80188637D02*
X124360450Y-80011860D01*
X125279689Y-79092621D01*
X125456466Y-79269398D01*
X124537227Y-80188637D01*
X124537227Y-80188637D01*
G37*
G36*
X124183674Y-79835084D02*
X124006897Y-79658307D01*
X124926136Y-78739068D01*
X125102913Y-78915845D01*
X124183674Y-79835084D01*
X124183674Y-79835084D01*
G37*
G36*
X123830120Y-79481530D02*
X123653343Y-79304753D01*
X124572582Y-78385514D01*
X124749359Y-78562291D01*
X123830120Y-79481530D01*
X123830120Y-79481530D01*
G37*
G36*
X123476567Y-79127977D02*
X123299790Y-78951200D01*
X124219029Y-78031961D01*
X124395806Y-78208738D01*
X123476567Y-79127977D01*
X123476567Y-79127977D01*
G37*
G36*
X123123014Y-78774424D02*
X122946237Y-78597647D01*
X123865476Y-77678408D01*
X124042253Y-77855185D01*
X123123014Y-78774424D01*
X123123014Y-78774424D01*
G37*
G36*
X122769460Y-78420870D02*
X122592683Y-78244093D01*
X123511922Y-77324854D01*
X123688699Y-77501631D01*
X122769460Y-78420870D01*
X122769460Y-78420870D01*
G37*
G36*
X122415907Y-78067317D02*
X122239130Y-77890540D01*
X123158369Y-76971301D01*
X123335146Y-77148078D01*
X122415907Y-78067317D01*
X122415907Y-78067317D01*
G37*
G36*
X122062353Y-77713763D02*
X121885576Y-77536986D01*
X122804815Y-76617747D01*
X122981592Y-76794524D01*
X122062353Y-77713763D01*
X122062353Y-77713763D01*
G37*
G36*
X121708800Y-77360210D02*
X121532023Y-77183433D01*
X122451262Y-76264194D01*
X122628039Y-76440971D01*
X121708800Y-77360210D01*
X121708800Y-77360210D01*
G37*
G36*
X121355247Y-77006657D02*
X121178470Y-76829880D01*
X122097709Y-75910641D01*
X122274486Y-76087418D01*
X121355247Y-77006657D01*
X121355247Y-77006657D01*
G37*
G36*
X121001693Y-76653103D02*
X120824916Y-76476326D01*
X121744155Y-75557087D01*
X121920932Y-75733864D01*
X121001693Y-76653103D01*
X121001693Y-76653103D01*
G37*
G36*
X120648140Y-76299550D02*
X120471363Y-76122773D01*
X121390602Y-75203534D01*
X121567379Y-75380311D01*
X120648140Y-76299550D01*
X120648140Y-76299550D01*
G37*
D28*
X142273000Y-98425000D03*
X142273000Y-97155000D03*
X142273000Y-95885000D03*
X142273000Y-94615000D03*
X136873000Y-94615000D03*
X136873000Y-95885000D03*
X136873000Y-97155000D03*
X136873000Y-98425000D03*
D10*
G36*
X118479174Y-64765333D02*
X119892667Y-66178826D01*
X116004216Y-70067277D01*
X114590723Y-68653784D01*
X118479174Y-64765333D01*
X118479174Y-64765333D01*
G37*
G36*
X111833784Y-71410723D02*
X113247277Y-72824216D01*
X109358826Y-76712667D01*
X107945333Y-75299174D01*
X111833784Y-71410723D01*
X111833784Y-71410723D01*
G37*
D29*
X145161000Y-96786700D03*
X145161000Y-98285300D03*
D30*
X148411000Y-97536000D03*
D31*
X84582000Y-92710000D03*
X82042000Y-92710000D03*
X84582000Y-90170000D03*
X82042000Y-90170000D03*
X84582000Y-87630000D03*
X82042000Y-87630000D03*
X84582000Y-85090000D03*
X82042000Y-85090000D03*
X84582000Y-82550000D03*
X82042000Y-82550000D03*
X84582000Y-80010000D03*
X82042000Y-80010000D03*
X84582000Y-77470000D03*
X82042000Y-77470000D03*
X84582000Y-74930000D03*
X82042000Y-74930000D03*
X84582000Y-72390000D03*
X82042000Y-72390000D03*
X84582000Y-69850000D03*
X82042000Y-69850000D03*
D32*
X86360000Y-101600000D03*
D33*
X88900000Y-101600000D03*
X91440000Y-101600000D03*
X93980000Y-101600000D03*
X96520000Y-101600000D03*
X99060000Y-101600000D03*
X101600000Y-101600000D03*
X104140000Y-101600000D03*
X106680000Y-101600000D03*
X109220000Y-101600000D03*
X111760000Y-101600000D03*
X114300000Y-101600000D03*
X116840000Y-101600000D03*
X119380000Y-101600000D03*
X121920000Y-101600000D03*
X124460000Y-101600000D03*
X127000000Y-101600000D03*
X129540000Y-101600000D03*
X132080000Y-101600000D03*
X134620000Y-101600000D03*
X137160000Y-101600000D03*
X139700000Y-101600000D03*
X142240000Y-101600000D03*
X144780000Y-101600000D03*
X147320000Y-101600000D03*
X149860000Y-101600000D03*
X152400000Y-101600000D03*
X154940000Y-101600000D03*
D32*
X86360000Y-60960000D03*
D33*
X88900000Y-60960000D03*
X91440000Y-60960000D03*
X93980000Y-60960000D03*
X96520000Y-60960000D03*
X99060000Y-60960000D03*
X101600000Y-60960000D03*
X104140000Y-60960000D03*
X106680000Y-60960000D03*
X109220000Y-60960000D03*
X111760000Y-60960000D03*
X114300000Y-60960000D03*
X116840000Y-60960000D03*
X119380000Y-60960000D03*
X121920000Y-60960000D03*
X124460000Y-60960000D03*
X127000000Y-60960000D03*
X129540000Y-60960000D03*
X132080000Y-60960000D03*
X134620000Y-60960000D03*
X137160000Y-60960000D03*
X139700000Y-60960000D03*
X142240000Y-60960000D03*
X144780000Y-60960000D03*
X147320000Y-60960000D03*
X149860000Y-60960000D03*
X152400000Y-60960000D03*
X154940000Y-60960000D03*
D34*
X144208500Y-95504000D03*
X100266500Y-89979500D03*
X90360500Y-97155000D03*
X126873000Y-79057500D03*
X118491000Y-69024500D03*
X118554500Y-72517000D03*
X121983500Y-73342500D03*
X126746000Y-83629500D03*
X93027500Y-69977000D03*
X94742000Y-77406500D03*
X97091500Y-85407500D03*
X114935000Y-73406000D03*
X128333500Y-72453500D03*
X144208500Y-93853000D03*
X130175000Y-92265500D03*
X132651500Y-93154500D03*
X92710000Y-93535500D03*
X150939500Y-104648000D03*
X147764500Y-94869000D03*
X119570500Y-64516000D03*
X122110500Y-67437000D03*
X115252500Y-70929500D03*
X105156000Y-74676000D03*
X98044000Y-76708000D03*
X148018500Y-74358500D03*
X147637500Y-78232000D03*
X132207000Y-77914500D03*
X144653000Y-76136500D03*
X159639000Y-99314000D03*
X131889500Y-69659500D03*
X134683500Y-98044000D03*
X138176000Y-92773500D03*
X137350500Y-77533500D03*
X135191500Y-76517500D03*
X89725500Y-93853000D03*
X88328500Y-66929000D03*
X89344500Y-70421500D03*
X91249500Y-76644500D03*
X113284000Y-75755500D03*
X125984000Y-72834500D03*
X107823000Y-72072500D03*
X104965500Y-64579500D03*
X127952500Y-83756500D03*
X127889000Y-77978000D03*
X132270500Y-85852000D03*
X145351500Y-84582000D03*
X108839000Y-79692500D03*
X109664500Y-85153500D03*
X109728000Y-86423500D03*
X110236000Y-87566500D03*
X145542000Y-104330500D03*
X126136400Y-88595200D03*
X126873000Y-87185500D03*
X112585500Y-94488000D03*
X107569000Y-96964500D03*
X86296500Y-86487000D03*
X116890800Y-94335600D03*
X125476000Y-86766400D03*
X107569000Y-95694500D03*
X112236250Y-93249750D03*
X115570000Y-94361000D03*
X118427500Y-78422500D03*
X112268000Y-83185000D03*
X106045000Y-80518000D03*
X111950500Y-96964500D03*
X127889000Y-88138000D03*
X134175500Y-70612000D03*
X129641600Y-75234800D03*
X127863600Y-66751200D03*
X129032000Y-70675500D03*
X125730000Y-84264500D03*
X117754400Y-73609200D03*
X138493500Y-104394000D03*
X111188500Y-78613000D03*
X112585500Y-78549500D03*
X140271500Y-103949500D03*
X109372400Y-103632000D03*
X129133600Y-90576400D03*
X128587500Y-85979000D03*
X132842000Y-70612000D03*
X126542800Y-80568800D03*
X125666500Y-62674500D03*
X128676400Y-76403200D03*
X123088400Y-71475600D03*
X126809500Y-67754500D03*
X136207500Y-59309000D03*
X124269500Y-56769000D03*
X107823000Y-84518500D03*
X142430500Y-64833500D03*
X142748000Y-57023000D03*
X152908000Y-75692000D03*
X150177500Y-71818500D03*
X147447000Y-65722500D03*
X144589500Y-57594500D03*
X151384000Y-77470000D03*
X149161500Y-73342500D03*
X147320000Y-64389000D03*
X121412000Y-81597500D03*
X122428000Y-80581500D03*
X123634500Y-80645000D03*
X140271500Y-65024000D03*
X118465600Y-81076800D03*
X144970500Y-69596000D03*
X106934000Y-81534000D03*
X130810000Y-75882500D03*
X151701500Y-65024000D03*
X127762000Y-69786500D03*
D35*
X106299000Y-92837000D02*
X106172000Y-92964000D01*
X106299000Y-89850000D02*
X106299000Y-92837000D01*
D36*
X144208500Y-95504000D02*
X143827500Y-95885000D01*
X143827500Y-95885000D02*
X142273000Y-95885000D01*
D37*
X105280500Y-89850000D02*
X104838500Y-89408000D01*
X104838500Y-89408000D02*
X100838000Y-89408000D01*
X100838000Y-89408000D02*
X100266500Y-89979500D01*
X106299000Y-89850000D02*
X105280500Y-89850000D01*
D36*
X116332000Y-74739500D02*
X116332000Y-72580500D01*
X117824250Y-71088250D02*
X118110000Y-70802500D01*
X116332000Y-72580500D02*
X117824250Y-71088250D01*
X118049522Y-76457022D02*
X116332000Y-74739500D01*
X118049522Y-76458649D02*
X118049522Y-76457022D01*
D35*
X95112500Y-66611500D02*
X95339000Y-66838000D01*
X92413000Y-66611500D02*
X95112500Y-66611500D01*
D36*
X92413000Y-66611500D02*
X92265500Y-66611500D01*
D35*
X91440000Y-62039500D02*
X91440000Y-60960000D01*
X90213000Y-63266500D02*
X91440000Y-62039500D01*
X90213000Y-64135000D02*
X90213000Y-63266500D01*
X95339000Y-66838000D02*
X103289000Y-66838000D01*
X104364000Y-66838000D02*
X105664000Y-68138000D01*
X103289000Y-66838000D02*
X104364000Y-66838000D01*
D37*
X92413000Y-67353000D02*
X90614500Y-69151500D01*
X90614500Y-69151500D02*
X88773000Y-69151500D01*
D38*
X88773000Y-69151500D02*
X87376000Y-67754500D01*
X87376000Y-67754500D02*
X87376000Y-65595500D01*
X87376000Y-65595500D02*
X88836500Y-64135000D01*
X88836500Y-64135000D02*
X90213000Y-64135000D01*
D37*
X92413000Y-66611500D02*
X92413000Y-67353000D01*
X88201500Y-69151500D02*
X86169500Y-71183500D01*
X86169500Y-71183500D02*
X86169500Y-73342500D01*
X86169500Y-73342500D02*
X84582000Y-74930000D01*
X88773000Y-69151500D02*
X88201500Y-69151500D01*
D38*
X84582000Y-74930000D02*
X84582000Y-75120500D01*
D37*
X88138000Y-94932500D02*
X90360500Y-97155000D01*
X84582000Y-75120500D02*
X88138000Y-78676500D01*
X88138000Y-78676500D02*
X88138000Y-87947500D01*
X88138000Y-87947500D02*
X88138000Y-94932500D01*
X109692000Y-66838000D02*
X111125000Y-65405000D01*
D36*
X120904000Y-64198500D02*
X119951500Y-63246000D01*
X119951500Y-63246000D02*
X113284000Y-63246000D01*
X113284000Y-63246000D02*
X111125000Y-65405000D01*
D37*
X103289000Y-66838000D02*
X109692000Y-66838000D01*
D38*
X127127000Y-79184500D02*
X127000000Y-79184500D01*
D36*
X127000000Y-79184500D02*
X126873000Y-79057500D01*
X118491000Y-69024500D02*
X118110000Y-69405500D01*
X118110000Y-69405500D02*
X118110000Y-70802500D01*
X126873000Y-79248000D02*
X127762000Y-80137000D01*
X127762000Y-80137000D02*
X127762000Y-82613500D01*
X127762000Y-82613500D02*
X126746000Y-83629500D01*
X126873000Y-79057500D02*
X126873000Y-79248000D01*
X119380000Y-73342500D02*
X118554500Y-72517000D01*
X121983500Y-73342500D02*
X119380000Y-73342500D01*
X121551170Y-69798670D02*
X121793000Y-69556840D01*
X120261590Y-71088250D02*
X121551170Y-69798670D01*
X117824250Y-71088250D02*
X120261590Y-71088250D01*
X122852920Y-68496920D02*
X123138670Y-68211170D01*
X123138670Y-68211170D02*
X123138670Y-65099670D01*
X123138670Y-65099670D02*
X122237500Y-64198500D01*
X122237500Y-64198500D02*
X120904000Y-64198500D01*
X121551170Y-69798670D02*
X122852920Y-68496920D01*
D37*
X128676400Y-92422800D02*
X126390400Y-92422800D01*
D36*
X123934400Y-92422800D02*
X124104400Y-92422800D01*
D37*
X126390400Y-92422800D02*
X123934400Y-92422800D01*
X124104400Y-92422800D02*
X121767600Y-92422800D01*
D35*
X95339000Y-71338000D02*
X103289000Y-71338000D01*
X104545960Y-71338000D02*
X106172000Y-72964040D01*
X103289000Y-71338000D02*
X104545960Y-71338000D01*
X105664000Y-72456040D02*
X106172000Y-72964040D01*
X105664000Y-70038000D02*
X105664000Y-72456040D01*
X103289000Y-79466000D02*
X95339000Y-79466000D01*
X95339000Y-95722000D02*
X103289000Y-95722000D01*
D37*
X94388500Y-71338000D02*
X93027500Y-69977000D01*
X95339000Y-71338000D02*
X94388500Y-71338000D01*
X94742000Y-77406500D02*
X95339000Y-78003500D01*
X95339000Y-78003500D02*
X95339000Y-79466000D01*
D35*
X104079000Y-78166000D02*
X105664000Y-78166000D01*
X103289000Y-78956000D02*
X104079000Y-78166000D01*
X103289000Y-79466000D02*
X103289000Y-78956000D01*
X105943000Y-87594000D02*
X106299000Y-87950000D01*
X103289000Y-87594000D02*
X105943000Y-87594000D01*
X106299000Y-85024000D02*
X106299000Y-87950000D01*
X95339000Y-87160000D02*
X97091500Y-85407500D01*
X95339000Y-87594000D02*
X95339000Y-87160000D01*
X103289000Y-87594000D02*
X95339000Y-87594000D01*
X109891751Y-69305249D02*
X112739249Y-66457751D01*
D37*
X109293502Y-68707000D02*
X109891751Y-69305249D01*
X107950000Y-68707000D02*
X109293502Y-68707000D01*
X106619000Y-70038000D02*
X107950000Y-68707000D01*
X105664000Y-70038000D02*
X106619000Y-70038000D01*
X104364000Y-71338000D02*
X105664000Y-70038000D01*
X103289000Y-71338000D02*
X104364000Y-71338000D01*
X105664000Y-71818500D02*
X105664000Y-70038000D01*
X106172000Y-72326500D02*
X105664000Y-71818500D01*
X106172000Y-72964040D02*
X106172000Y-72326500D01*
D39*
X114935000Y-74739500D02*
X114935000Y-73406000D01*
X117342416Y-77146916D02*
X114935000Y-74739500D01*
D36*
X128333500Y-73406000D02*
X128333500Y-72453500D01*
X123513084Y-78226416D02*
X128333500Y-73406000D01*
X123494245Y-78226416D02*
X123513084Y-78226416D01*
X116776500Y-64135000D02*
X116713000Y-64135000D01*
X115316000Y-64135000D02*
X114998500Y-63817500D01*
X114998500Y-63817500D02*
X113538000Y-63817500D01*
X113538000Y-63817500D02*
X112268000Y-65087500D01*
X112268000Y-65087500D02*
X112268000Y-65986502D01*
X112268000Y-65986502D02*
X112739249Y-66457751D01*
X116649500Y-64135000D02*
X115316000Y-64135000D01*
X116776500Y-64135000D02*
X116649500Y-64135000D01*
D37*
X128836600Y-92583000D02*
X128676400Y-92422800D01*
X143446500Y-94615000D02*
X144208500Y-93853000D01*
X142273000Y-94615000D02*
X143446500Y-94615000D01*
X130175000Y-92265500D02*
X130017700Y-92422800D01*
X130017700Y-92422800D02*
X128676400Y-92422800D01*
X132651500Y-93154500D02*
X133223000Y-92583000D01*
X133223000Y-92583000D02*
X134241500Y-92583000D01*
D39*
X114935000Y-74739500D02*
X114935000Y-73406000D01*
X117342416Y-77146916D02*
X114935000Y-74739500D01*
X117342416Y-77165755D02*
X117342416Y-77146916D01*
D35*
X94896500Y-95722000D02*
X92710000Y-93535500D01*
X95339000Y-95722000D02*
X94896500Y-95722000D01*
D37*
X151130000Y-104457500D02*
X150939500Y-104648000D01*
X151130000Y-96456500D02*
X151130000Y-102171500D01*
X149923500Y-95250000D02*
X151130000Y-96456500D01*
X148145500Y-95250000D02*
X149923500Y-95250000D01*
X147764500Y-94869000D02*
X148145500Y-95250000D01*
X151130000Y-102171500D02*
X151130000Y-104457500D01*
D36*
X119189500Y-64135000D02*
X119570500Y-64516000D01*
X116649500Y-64135000D02*
X119189500Y-64135000D01*
D37*
X122110500Y-67437000D02*
X121793000Y-67119500D01*
X121793000Y-67119500D02*
X121793000Y-66421000D01*
X121793000Y-66421000D02*
X119888000Y-64516000D01*
X119888000Y-64516000D02*
X119570500Y-64516000D01*
D36*
X113982500Y-70675500D02*
X117241695Y-67416305D01*
X113982500Y-74485500D02*
X113982500Y-70675500D01*
X116988862Y-77491862D02*
X113982500Y-74485500D01*
X116988862Y-77519309D02*
X116988862Y-77491862D01*
D35*
X114939639Y-65114249D02*
X117241695Y-67416305D01*
X114082751Y-65114249D02*
X114939639Y-65114249D01*
D36*
X105156000Y-74676000D02*
X105664000Y-75184000D01*
X117695969Y-76812202D02*
X117695969Y-76801969D01*
X104866000Y-74966000D02*
X105156000Y-74676000D01*
X117695969Y-76801969D02*
X115855750Y-74961750D01*
D35*
X95339000Y-74966000D02*
X103289000Y-74966000D01*
X105664000Y-75184000D02*
X105156000Y-74676000D01*
X105664000Y-76266000D02*
X105664000Y-75184000D01*
X104866000Y-74966000D02*
X105156000Y-74676000D01*
X103289000Y-74966000D02*
X104866000Y-74966000D01*
X92576000Y-74966000D02*
X92540000Y-74930000D01*
X95339000Y-74966000D02*
X92576000Y-74966000D01*
X96302000Y-74966000D02*
X98044000Y-76708000D01*
X95339000Y-74966000D02*
X96302000Y-74966000D01*
D36*
X115855750Y-71532750D02*
X115252500Y-70929500D01*
X115855750Y-74961750D02*
X115855750Y-71532750D01*
X111464610Y-74930000D02*
X110596305Y-74061695D01*
X113728500Y-74930000D02*
X111464610Y-74930000D01*
X116635309Y-77836809D02*
X113728500Y-74930000D01*
X116635309Y-77872862D02*
X116635309Y-77836809D01*
D35*
X110596305Y-72696807D02*
X108548249Y-70648751D01*
X110596305Y-74061695D02*
X110596305Y-72696807D01*
D40*
X148018500Y-74358500D02*
X143560800Y-69900800D01*
X143560800Y-69900800D02*
X143560800Y-67310000D01*
D37*
X144653000Y-78232000D02*
X147637500Y-78232000D01*
X143002000Y-74231500D02*
X143002000Y-76771500D01*
X141922500Y-73152000D02*
X143002000Y-74231500D01*
X138557000Y-73152000D02*
X141922500Y-73152000D01*
X137795000Y-73914000D02*
X138557000Y-73152000D01*
D35*
X137795000Y-75374500D02*
X137795000Y-73914000D01*
X136144000Y-77025500D02*
X137795000Y-75374500D01*
X136144000Y-80518000D02*
X136144000Y-77025500D01*
D37*
X144462500Y-78232000D02*
X143002000Y-76771500D01*
X144653000Y-78232000D02*
X144462500Y-78232000D01*
D40*
X159131000Y-72199500D02*
X152717500Y-72199500D01*
X152717500Y-72199500D02*
X150063200Y-69545200D01*
X150063200Y-69545200D02*
X150063200Y-67310000D01*
X162105340Y-69225160D02*
X159131000Y-72199500D01*
X162105340Y-67564000D02*
X162105340Y-69225160D01*
X152717500Y-74104500D02*
X152717500Y-72199500D01*
X150812500Y-76009500D02*
X152717500Y-74104500D01*
X146431000Y-76009500D02*
X150812500Y-76009500D01*
X138125200Y-67703700D02*
X146431000Y-76009500D01*
X138125200Y-67310000D02*
X138125200Y-67703700D01*
D37*
X131572000Y-78549500D02*
X132207000Y-77914500D01*
X144653000Y-76136500D02*
X144780000Y-76009500D01*
X144780000Y-76009500D02*
X146431000Y-76009500D01*
X131572000Y-80518000D02*
X131572000Y-78549500D01*
X131572000Y-87249000D02*
X130937000Y-86614000D01*
X130937000Y-86614000D02*
X130937000Y-81153000D01*
X130937000Y-81153000D02*
X131572000Y-80518000D01*
X131572000Y-90170000D02*
X131572000Y-87249000D01*
D35*
X159639000Y-99314000D02*
X158158000Y-100795000D01*
X158158000Y-100795000D02*
X158158000Y-102489000D01*
D36*
X123858031Y-78579969D02*
X128714500Y-73723500D01*
X123847798Y-78579969D02*
X123858031Y-78579969D01*
D39*
X137160000Y-60960000D02*
X136715500Y-60960000D01*
X123847798Y-78579969D02*
X123847798Y-78590202D01*
X103289000Y-82829500D02*
X103289000Y-83094000D01*
X110807500Y-80772000D02*
X110236000Y-81343500D01*
X110236000Y-81343500D02*
X109283500Y-81343500D01*
X109283500Y-81343500D02*
X107505500Y-79565500D01*
X107505500Y-79565500D02*
X105600500Y-79565500D01*
X105600500Y-79565500D02*
X105156000Y-80010000D01*
X105156000Y-80010000D02*
X105156000Y-80962500D01*
X105156000Y-80962500D02*
X103289000Y-82829500D01*
X123847798Y-78590202D02*
X122745500Y-79692500D01*
X115633500Y-80772000D02*
X112395000Y-80772000D01*
X118808500Y-83947000D02*
X115633500Y-80772000D01*
X119380000Y-83947000D02*
X118808500Y-83947000D01*
X120078500Y-83248500D02*
X119380000Y-83947000D01*
X120078500Y-80835500D02*
X120078500Y-83248500D01*
X121221500Y-79692500D02*
X120078500Y-80835500D01*
X122745500Y-79692500D02*
X121221500Y-79692500D01*
X112395000Y-80772000D02*
X110807500Y-80772000D01*
D35*
X95339000Y-83094000D02*
X103289000Y-83094000D01*
X103319000Y-83124000D02*
X103289000Y-83094000D01*
X106299000Y-83124000D02*
X103319000Y-83124000D01*
X92576000Y-83094000D02*
X92540000Y-83058000D01*
X95339000Y-83094000D02*
X92576000Y-83094000D01*
D36*
X129667000Y-72771000D02*
X129667000Y-71628000D01*
X129667000Y-71628000D02*
X131635500Y-69659500D01*
X131635500Y-69659500D02*
X131889500Y-69659500D01*
X128714500Y-73723500D02*
X129667000Y-72771000D01*
D35*
X154345640Y-96456500D02*
X154345640Y-93766640D01*
X152463500Y-91884500D02*
X146494500Y-91884500D01*
X154345640Y-93766640D02*
X152463500Y-91884500D01*
X84582000Y-68770500D02*
X84582000Y-69850000D01*
X83693000Y-67881500D02*
X84582000Y-68770500D01*
X80645000Y-67881500D02*
X83693000Y-67881500D01*
X79883000Y-68643500D02*
X80645000Y-67881500D01*
X88900000Y-101600000D02*
X88900000Y-103886000D01*
X79883000Y-100076000D02*
X79883000Y-70040500D01*
X84074000Y-104267000D02*
X79883000Y-100076000D01*
X88519000Y-104267000D02*
X84074000Y-104267000D01*
X88900000Y-103886000D02*
X88519000Y-104267000D01*
X79883000Y-70040500D02*
X79883000Y-68643500D01*
X135191500Y-72580500D02*
X133858000Y-73914000D01*
X135191500Y-69659500D02*
X135191500Y-72580500D01*
X132842000Y-67310000D02*
X135191500Y-69659500D01*
X131622800Y-67310000D02*
X132842000Y-67310000D01*
X136144000Y-87376000D02*
X138304000Y-85216000D01*
X138304000Y-85216000D02*
X140208000Y-85216000D01*
X136144000Y-90170000D02*
X136144000Y-87376000D01*
X133858000Y-73914000D02*
X133858000Y-80518000D01*
D37*
X136141500Y-90172500D02*
X136144000Y-90170000D01*
X136141500Y-92583000D02*
X136141500Y-90172500D01*
X135064500Y-98425000D02*
X134683500Y-98044000D01*
X138176000Y-92773500D02*
X137985500Y-92583000D01*
X137985500Y-92583000D02*
X136141500Y-92583000D01*
X136873000Y-98425000D02*
X135064500Y-98425000D01*
X136144000Y-92580500D02*
X136141500Y-92583000D01*
X136144000Y-90170000D02*
X136144000Y-92580500D01*
X154345640Y-95735140D02*
X154345640Y-96456500D01*
D35*
X140462000Y-92773500D02*
X141351000Y-91884500D01*
X138176000Y-92773500D02*
X140462000Y-92773500D01*
X141351000Y-91884500D02*
X146494500Y-91884500D01*
D37*
X146494500Y-91884500D02*
X150495000Y-91884500D01*
D35*
X138303000Y-83693000D02*
X138303000Y-78486000D01*
X138303000Y-78486000D02*
X137350500Y-77533500D01*
X135191500Y-76517500D02*
X133858000Y-75184000D01*
D37*
X133858000Y-75184000D02*
X133858000Y-73914000D01*
D35*
X139826000Y-85216000D02*
X138303000Y-83693000D01*
D37*
X140208000Y-85216000D02*
X139826000Y-85216000D01*
D35*
X154345640Y-96456500D02*
X154345640Y-98765360D01*
D37*
X153670000Y-99441000D02*
X153670000Y-101790500D01*
D35*
X154345640Y-98765360D02*
X153670000Y-99441000D01*
D37*
X153670000Y-101790500D02*
X153670000Y-104838500D01*
X153670000Y-104838500D02*
X152019000Y-106489500D01*
X152019000Y-106489500D02*
X92075000Y-106489500D01*
D35*
X92075000Y-106489500D02*
X88900000Y-103314500D01*
D37*
X88900000Y-103314500D02*
X88900000Y-101600000D01*
D41*
X159344360Y-96456500D02*
X159344360Y-95336360D01*
X159344360Y-95336360D02*
X159250000Y-95242000D01*
D35*
X89725500Y-93853000D02*
X90594000Y-92984500D01*
X90594000Y-92984500D02*
X90594000Y-91186000D01*
D37*
X97663000Y-64643000D02*
X98818700Y-64643000D01*
X97282000Y-65024000D02*
X97663000Y-64643000D01*
X94107000Y-65024000D02*
X97282000Y-65024000D01*
X93662500Y-65468500D02*
X94107000Y-65024000D01*
X90805000Y-65468500D02*
X93662500Y-65468500D01*
X90213000Y-66060500D02*
X90805000Y-65468500D01*
X90213000Y-66611500D02*
X90213000Y-66060500D01*
X88646000Y-66611500D02*
X88328500Y-66929000D01*
X90213000Y-66611500D02*
X88646000Y-66611500D01*
X90340000Y-78295500D02*
X90340000Y-83058000D01*
X90340000Y-74930000D02*
X90340000Y-78295500D01*
X90340000Y-90932000D02*
X90594000Y-91186000D01*
X90340000Y-83058000D02*
X90340000Y-90932000D01*
X90340000Y-71417000D02*
X89344500Y-70421500D01*
X90340000Y-74930000D02*
X90340000Y-71417000D01*
X91249500Y-76644500D02*
X90340000Y-77554000D01*
X90340000Y-77554000D02*
X90340000Y-78189000D01*
X90340000Y-78189000D02*
X90233500Y-78295500D01*
X90233500Y-78295500D02*
X90340000Y-78295500D01*
X113792000Y-75755500D02*
X113284000Y-75755500D01*
D39*
X116262916Y-78226416D02*
X113792000Y-75755500D01*
X116281755Y-78226416D02*
X116262916Y-78226416D01*
D36*
X125984000Y-73596500D02*
X125984000Y-72834500D01*
X122433584Y-77146916D02*
X125984000Y-73596500D01*
X122433584Y-77165755D02*
X122433584Y-77146916D01*
D37*
X111506000Y-75755500D02*
X108966000Y-78295500D01*
X108966000Y-78295500D02*
X108394500Y-78295500D01*
X108394500Y-78295500D02*
X107061000Y-76962000D01*
X107061000Y-76962000D02*
X107061000Y-74993500D01*
X107061000Y-74993500D02*
X107823000Y-74231500D01*
X107823000Y-74231500D02*
X107823000Y-72072500D01*
X104965500Y-64579500D02*
X104584500Y-64960500D01*
X104584500Y-64960500D02*
X102044500Y-64960500D01*
X102044500Y-64960500D02*
X101028500Y-65976500D01*
X101028500Y-65976500D02*
X99314000Y-65976500D01*
X99314000Y-65976500D02*
X98818700Y-65481200D01*
X98818700Y-65481200D02*
X98818700Y-64643000D01*
X113284000Y-75755500D02*
X111506000Y-75755500D01*
D36*
X117602000Y-79502000D02*
X120097339Y-79502000D01*
X120097339Y-79502000D02*
X122433584Y-77165755D01*
X116326416Y-78226416D02*
X117602000Y-79502000D01*
X116281755Y-78226416D02*
X116326416Y-78226416D01*
D35*
X133858000Y-83566000D02*
X133858000Y-90170000D01*
X131551500Y-96647000D02*
X131551500Y-94361000D01*
D37*
X133858000Y-90678000D02*
X133858000Y-90170000D01*
X131551500Y-92984500D02*
X133858000Y-90678000D01*
X131551500Y-94361000D02*
X131551500Y-92984500D01*
X158826200Y-105803700D02*
X158826200Y-104775000D01*
X159258000Y-106235500D02*
X158826200Y-105803700D01*
X160591500Y-106235500D02*
X159258000Y-106235500D01*
X161734500Y-105092500D02*
X160591500Y-106235500D01*
X161734500Y-99123500D02*
X161734500Y-105092500D01*
X159344360Y-96733360D02*
X161734500Y-99123500D01*
D38*
X159344360Y-96456500D02*
X159344360Y-96733360D01*
D36*
X128206500Y-83502500D02*
X127952500Y-83756500D01*
D37*
X127889000Y-77978000D02*
X128206500Y-78295500D01*
D36*
X128206500Y-78295500D02*
X128206500Y-83502500D01*
X133858000Y-84264500D02*
X133858000Y-83566000D01*
D37*
X132270500Y-85852000D02*
X133858000Y-84264500D01*
D41*
X150558500Y-86550500D02*
X148399500Y-86550500D01*
X159344360Y-95336360D02*
X159250000Y-95242000D01*
X159250000Y-95242000D02*
X150558500Y-86550500D01*
X145351500Y-84582000D02*
X147320000Y-86550500D01*
X147320000Y-86550500D02*
X148336000Y-86550500D01*
D36*
X148336000Y-86550500D02*
X148399500Y-86614000D01*
X148399500Y-86614000D02*
X148399500Y-86550500D01*
D37*
X95186500Y-64135000D02*
X96139000Y-63182500D01*
X96139000Y-63182500D02*
X100076000Y-63182500D01*
X100076000Y-63182500D02*
X100317300Y-63423800D01*
X100317300Y-63423800D02*
X100317300Y-64643000D01*
X92413000Y-64135000D02*
X95186500Y-64135000D01*
D38*
X160358000Y-104741800D02*
X160324800Y-104775000D01*
D37*
X160358000Y-102489000D02*
X160358000Y-104741800D01*
D36*
X113855500Y-77216000D02*
X111315500Y-77216000D01*
X115573022Y-78933522D02*
X113855500Y-77216000D01*
X115574649Y-78933522D02*
X115573022Y-78933522D01*
X110998000Y-77216000D02*
X108839000Y-79375000D01*
X108839000Y-79375000D02*
X108839000Y-79692500D01*
X111315500Y-77216000D02*
X110998000Y-77216000D01*
X115221095Y-82256924D02*
X115221095Y-82263905D01*
X110680500Y-85852000D02*
X109982000Y-85153500D01*
X109982000Y-85153500D02*
X109664500Y-85153500D01*
X115221095Y-82263905D02*
X111633000Y-85852000D01*
X111633000Y-85852000D02*
X110807500Y-85852000D01*
X110807500Y-85852000D02*
X110680500Y-85852000D01*
X111760000Y-86423500D02*
X109728000Y-86423500D01*
X115573022Y-82610478D02*
X111760000Y-86423500D01*
X115574649Y-82610478D02*
X115573022Y-82610478D01*
D37*
X134810500Y-96647000D02*
X133751500Y-96647000D01*
X135572500Y-95885000D02*
X134810500Y-96647000D01*
X136873000Y-95885000D02*
X135572500Y-95885000D01*
D38*
X101600000Y-104330500D02*
X103187500Y-105918000D01*
X103187500Y-105918000D02*
X141224000Y-105918000D01*
X141224000Y-105918000D02*
X143510000Y-103632000D01*
X143510000Y-103632000D02*
X143510000Y-100647500D01*
X143510000Y-100647500D02*
X142875000Y-100012500D01*
X142875000Y-100012500D02*
X139636500Y-100012500D01*
X139636500Y-100012500D02*
X138620500Y-98996500D01*
X138620500Y-98996500D02*
X138620500Y-96456500D01*
X138620500Y-96456500D02*
X138049000Y-95885000D01*
X138049000Y-95885000D02*
X136873000Y-95885000D01*
D37*
X101600000Y-101600000D02*
X101600000Y-104330500D01*
D35*
X136873000Y-94615000D02*
X134937500Y-94615000D01*
X134937500Y-94615000D02*
X134683500Y-94361000D01*
X134683500Y-94361000D02*
X133751500Y-94361000D01*
D36*
X111982250Y-86899750D02*
X111950500Y-86931500D01*
X115917969Y-82964031D02*
X111982250Y-86899750D01*
X115928202Y-82964031D02*
X115917969Y-82964031D01*
X111188500Y-87693500D02*
X110363000Y-87693500D01*
X110363000Y-87693500D02*
X110236000Y-87566500D01*
X111982250Y-86899750D02*
X111188500Y-87693500D01*
D37*
X134683500Y-94361000D02*
X133751500Y-94361000D01*
X134937500Y-94615000D02*
X134683500Y-94361000D01*
D38*
X136873000Y-94615000D02*
X137985500Y-94615000D01*
X145542000Y-104330500D02*
X146050000Y-103822500D01*
X146050000Y-103822500D02*
X146050000Y-100457000D01*
X146050000Y-100457000D02*
X144970500Y-99377500D01*
X144970500Y-99377500D02*
X140017500Y-99377500D01*
X140017500Y-99377500D02*
X139382500Y-98742500D01*
X139382500Y-98742500D02*
X139382500Y-96012000D01*
X139382500Y-96012000D02*
X137985500Y-94615000D01*
D36*
X118049522Y-85086978D02*
X114427000Y-88709500D01*
X118049522Y-85085351D02*
X118049522Y-85086978D01*
X107759500Y-99314000D02*
X106680000Y-100393500D01*
D37*
X106680000Y-100393500D02*
X106680000Y-101600000D01*
D36*
X109474000Y-93091000D02*
X113855500Y-88709500D01*
X113855500Y-88709500D02*
X114427000Y-88709500D01*
X109474000Y-97599500D02*
X107759500Y-99314000D01*
X109474000Y-93091000D02*
X109474000Y-97599500D01*
X118396095Y-85438905D02*
X114490500Y-89344500D01*
X118403076Y-85438905D02*
X118396095Y-85438905D01*
X110109000Y-93091000D02*
X113855500Y-89344500D01*
X113855500Y-89344500D02*
X114490500Y-89344500D01*
X109220000Y-99250500D02*
X109918500Y-98552000D01*
X109918500Y-98552000D02*
X109918500Y-93281500D01*
X109918500Y-93281500D02*
X110109000Y-93091000D01*
D37*
X109220000Y-101600000D02*
X109220000Y-99250500D01*
D36*
X125222000Y-88595200D02*
X126136400Y-88595200D01*
X121726478Y-85099678D02*
X125222000Y-88595200D01*
X121726478Y-85085351D02*
X121726478Y-85099678D01*
X125018800Y-87680800D02*
X126377700Y-87680800D01*
X122080031Y-84742031D02*
X125018800Y-87680800D01*
X126377700Y-87680800D02*
X126873000Y-87185500D01*
X122080031Y-84731798D02*
X122080031Y-84742031D01*
X114300000Y-96202500D02*
X112585500Y-94488000D01*
X114300000Y-101600000D02*
X114300000Y-96202500D01*
D37*
X86296500Y-95631000D02*
X88392000Y-97726500D01*
X88392000Y-97726500D02*
X88646000Y-97980500D01*
X86296500Y-86487000D02*
X86296500Y-95631000D01*
D36*
X106362500Y-98171000D02*
X105346500Y-98171000D01*
X105346500Y-98171000D02*
X104711500Y-98806000D01*
D37*
X104711500Y-98806000D02*
X89471500Y-98806000D01*
X89471500Y-98806000D02*
X88392000Y-97726500D01*
D36*
X106553000Y-97980500D02*
X106362500Y-98171000D01*
X107569000Y-96964500D02*
X106553000Y-97980500D01*
D37*
X116840000Y-94386400D02*
X116840000Y-101600000D01*
D36*
X116890800Y-94335600D02*
X116840000Y-94386400D01*
X124815600Y-86766400D02*
X125476000Y-86766400D01*
X122433584Y-84384384D02*
X124815600Y-86766400D01*
X122433584Y-84378245D02*
X122433584Y-84384384D01*
D37*
X116890800Y-94335600D02*
X116890800Y-93522800D01*
D36*
X112236250Y-93249750D02*
X112204500Y-93281500D01*
X112649000Y-92837000D02*
X112236250Y-93249750D01*
D37*
X116205000Y-92837000D02*
X112649000Y-92837000D01*
X116890800Y-93522800D02*
X116205000Y-92837000D01*
D36*
X107569000Y-95694500D02*
X105727500Y-97536000D01*
D37*
X87249000Y-83312000D02*
X86487000Y-82550000D01*
X87249000Y-93408500D02*
X87249000Y-83312000D01*
X84582000Y-82550000D02*
X86487000Y-82550000D01*
D36*
X105156000Y-97536000D02*
X104457500Y-98234500D01*
D37*
X104457500Y-98234500D02*
X89916000Y-98234500D01*
X89916000Y-98234500D02*
X87249000Y-95567500D01*
X87249000Y-95567500D02*
X87249000Y-93408500D01*
D36*
X105727500Y-97536000D02*
X105156000Y-97536000D01*
D37*
X119380000Y-100482400D02*
X119380000Y-101600000D01*
X119888000Y-99974400D02*
X119380000Y-100482400D01*
D36*
X119888000Y-84328000D02*
X119888000Y-99974400D01*
X121856500Y-82359500D02*
X119888000Y-84328000D01*
X122542300Y-82359500D02*
X121856500Y-82359500D01*
X123500384Y-83317584D02*
X122542300Y-82359500D01*
X123494245Y-83317584D02*
X123500384Y-83317584D01*
X121920000Y-102552500D02*
X121920000Y-101600000D01*
D35*
X121920000Y-101600000D02*
X121920000Y-98412300D01*
D36*
X118403076Y-76105095D02*
X118396095Y-76105095D01*
X115570000Y-94361000D02*
X115570000Y-101790500D01*
X115570000Y-101790500D02*
X115570000Y-102933500D01*
X115570000Y-102933500D02*
X116332000Y-103695500D01*
X116332000Y-103695500D02*
X120777000Y-103695500D01*
D37*
X120777000Y-103695500D02*
X121920000Y-102552500D01*
D36*
X119380000Y-77089000D02*
X119380000Y-77470000D01*
X119380000Y-77470000D02*
X118427500Y-78422500D01*
X118403076Y-76112076D02*
X119380000Y-77089000D01*
X118403076Y-76105095D02*
X118403076Y-76112076D01*
X123634500Y-64770000D02*
X122364500Y-63500000D01*
X123634500Y-67881500D02*
X123634500Y-64770000D01*
X121094500Y-63500000D02*
X120332500Y-62738000D01*
X120332500Y-62738000D02*
X112077500Y-62738000D01*
X112077500Y-62738000D02*
X111760000Y-62420500D01*
X111760000Y-62420500D02*
X111760000Y-60960000D01*
X122364500Y-63500000D02*
X121094500Y-63500000D01*
X123063000Y-68897500D02*
X123380500Y-68580000D01*
X118173500Y-71691500D02*
X120269000Y-71691500D01*
X120269000Y-71691500D02*
X122142250Y-69818250D01*
X118396095Y-76105095D02*
X116903500Y-74612500D01*
X116903500Y-74612500D02*
X116903500Y-72961500D01*
X116903500Y-72961500D02*
X118173500Y-71691500D01*
X122142250Y-69818250D02*
X123063000Y-68897500D01*
X123634500Y-68326000D02*
X123380500Y-68580000D01*
X123634500Y-67881500D02*
X123634500Y-68326000D01*
X113030000Y-102108000D02*
X113030000Y-102806500D01*
D37*
X124460000Y-103060500D02*
X124460000Y-101600000D01*
D36*
X123317000Y-104203500D02*
X124460000Y-103060500D01*
X114427000Y-104203500D02*
X123317000Y-104203500D01*
X113030000Y-102806500D02*
X114427000Y-104203500D01*
X112776000Y-84010500D02*
X112776000Y-83693000D01*
X113030000Y-99441000D02*
X113030000Y-102108000D01*
X113030000Y-98615500D02*
X113030000Y-99441000D01*
X113030000Y-102108000D02*
X113030000Y-102171500D01*
X112776000Y-83693000D02*
X112268000Y-83185000D01*
D38*
X124460000Y-100965000D02*
X124460000Y-101600000D01*
D36*
X124460000Y-100901500D02*
X124460000Y-101600000D01*
D35*
X124460000Y-101600000D02*
X124460000Y-98412300D01*
D36*
X114867542Y-81918958D02*
X112776000Y-84010500D01*
X114867542Y-81903371D02*
X114867542Y-81918958D01*
X112776000Y-84010500D02*
X112395000Y-84391500D01*
X110426500Y-84391500D02*
X109061250Y-83026250D01*
X112395000Y-84391500D02*
X110426500Y-84391500D01*
X108934250Y-83026250D02*
X108013500Y-82105500D01*
X108013500Y-82105500D02*
X108013500Y-80835500D01*
X108013500Y-80835500D02*
X107696000Y-80518000D01*
X107696000Y-80518000D02*
X106045000Y-80518000D01*
X109061250Y-83026250D02*
X108934250Y-83026250D01*
X111950500Y-96964500D02*
X113030000Y-98044000D01*
X113030000Y-98044000D02*
X113030000Y-99314000D01*
X125425200Y-89509600D02*
X127279400Y-89509600D01*
X121372924Y-85457324D02*
X125425200Y-89509600D01*
X127889000Y-88900000D02*
X127889000Y-88138000D01*
X127279400Y-89509600D02*
X127889000Y-88900000D01*
D35*
X127000000Y-101600000D02*
X127000000Y-98412300D01*
D36*
X121372924Y-85438905D02*
X121372924Y-85457324D01*
D39*
X131889500Y-76517500D02*
X131889500Y-75565000D01*
X131889500Y-75565000D02*
X131000500Y-74676000D01*
X131000500Y-74676000D02*
X131000500Y-72898000D01*
X131000500Y-72898000D02*
X131953000Y-71945500D01*
X131953000Y-71945500D02*
X132842000Y-71945500D01*
X132842000Y-71945500D02*
X134175500Y-70612000D01*
D36*
X127889000Y-88138000D02*
X128714500Y-88138000D01*
X129921000Y-78486000D02*
X131572000Y-76835000D01*
X129921000Y-82931000D02*
X129921000Y-78486000D01*
X130111500Y-83121500D02*
X129921000Y-82931000D01*
X130111500Y-86741000D02*
X130111500Y-83121500D01*
X128714500Y-88138000D02*
X130111500Y-86741000D01*
D39*
X131572000Y-76835000D02*
X131889500Y-76517500D01*
D36*
X128625600Y-75234800D02*
X129641600Y-75234800D01*
X124573324Y-79287076D02*
X128625600Y-75234800D01*
X124554905Y-79287076D02*
X124573324Y-79287076D01*
D35*
X129540000Y-101600000D02*
X129540000Y-98348800D01*
D36*
X129032000Y-70675500D02*
X128587500Y-70231000D01*
X128587500Y-70231000D02*
X128587500Y-68389500D01*
X128587500Y-68389500D02*
X127863600Y-67665600D01*
X127863600Y-67665600D02*
X127863600Y-66751200D01*
X125984000Y-84264500D02*
X126301500Y-84582000D01*
X126301500Y-84582000D02*
X126619000Y-84582000D01*
D38*
X128841500Y-83185000D02*
X128841500Y-82169000D01*
D36*
X129641600Y-75603100D02*
X129794000Y-75755500D01*
X129641600Y-75603100D02*
X129641600Y-75234800D01*
X128841500Y-77597000D02*
X128841500Y-82169000D01*
X129794000Y-76644500D02*
X128841500Y-77597000D01*
X129794000Y-75755500D02*
X129794000Y-76644500D01*
X125730000Y-84264500D02*
X125984000Y-84264500D01*
X127508000Y-84582000D02*
X127825500Y-84899500D01*
X127825500Y-84899500D02*
X128524000Y-84899500D01*
X128524000Y-84899500D02*
X128841500Y-84582000D01*
X128841500Y-84582000D02*
X128841500Y-83185000D01*
X126619000Y-84582000D02*
X127508000Y-84582000D01*
X107124500Y-104775000D02*
X129476500Y-104775000D01*
X105410000Y-103060500D02*
X107124500Y-104775000D01*
X105410000Y-100266500D02*
X105410000Y-103060500D01*
X117297755Y-84378245D02*
X109029500Y-92646500D01*
X117342416Y-84378245D02*
X117297755Y-84378245D01*
D37*
X133413500Y-99441000D02*
X131699000Y-99441000D01*
D36*
X131699000Y-99441000D02*
X130810000Y-100330000D01*
X130810000Y-100330000D02*
X130810000Y-103441500D01*
X130810000Y-103441500D02*
X129476500Y-104775000D01*
D37*
X134620000Y-100647500D02*
X133413500Y-99441000D01*
D36*
X134620000Y-101600000D02*
X134620000Y-100647500D01*
X106267250Y-99409250D02*
X105410000Y-100266500D01*
X106965750Y-99409250D02*
X108902500Y-97472500D01*
X108902500Y-97472500D02*
X108902500Y-92773500D01*
X108902500Y-92773500D02*
X109029500Y-92646500D01*
X106267250Y-99409250D02*
X106965750Y-99409250D01*
X117754400Y-74777600D02*
X117754400Y-73609200D01*
X118728342Y-75751542D02*
X117754400Y-74777600D01*
X118756629Y-75751542D02*
X118728342Y-75751542D01*
X115221095Y-79287076D02*
X115202676Y-79287076D01*
X138493500Y-104394000D02*
X139700000Y-103187500D01*
D37*
X139700000Y-103187500D02*
X139700000Y-101600000D01*
D36*
X113588800Y-77673200D02*
X112128300Y-77673200D01*
X115202676Y-79287076D02*
X113588800Y-77673200D01*
X112128300Y-77673200D02*
X111188500Y-78613000D01*
X114867542Y-79640629D02*
X114867542Y-79612342D01*
X113792000Y-78549500D02*
X112585500Y-78549500D01*
X114867542Y-79625042D02*
X113792000Y-78549500D01*
X114867542Y-79640629D02*
X114867542Y-79625042D01*
X142240000Y-102044500D02*
X142240000Y-101600000D01*
X142240000Y-101981000D02*
X142240000Y-101600000D01*
D37*
X140271500Y-103949500D02*
X142240000Y-101981000D01*
D36*
X118756629Y-85792458D02*
X118756629Y-85814971D01*
X110490000Y-102514400D02*
X109372400Y-103632000D01*
X110490000Y-98869500D02*
X110490000Y-101955600D01*
X110490000Y-101955600D02*
X110490000Y-102514400D01*
X112204500Y-91694000D02*
X110934500Y-92964000D01*
X112903000Y-90995500D02*
X112204500Y-91694000D01*
X113963450Y-89935050D02*
X112903000Y-90995500D01*
X114636550Y-89935050D02*
X118756629Y-85814971D01*
X114636550Y-89935050D02*
X113963450Y-89935050D01*
X110490000Y-93408500D02*
X110934500Y-92964000D01*
X110490000Y-98869500D02*
X110490000Y-93408500D01*
X121019371Y-85792458D02*
X121019371Y-85814971D01*
X121019371Y-85814971D02*
X125120400Y-89916000D01*
X128930400Y-90373200D02*
X129133600Y-90576400D01*
X125577600Y-90373200D02*
X128930400Y-90373200D01*
X125120400Y-89916000D02*
X125577600Y-90373200D01*
X123140691Y-83671138D02*
X123142738Y-83671138D01*
X128587500Y-85979000D02*
X128206500Y-85979000D01*
X124612400Y-85140800D02*
X123142738Y-83671138D01*
X127368300Y-85140800D02*
X124612400Y-85140800D01*
X128206500Y-85979000D02*
X127368300Y-85140800D01*
X124201351Y-78933522D02*
X124215678Y-78933522D01*
D37*
X83312000Y-65087500D02*
X83312000Y-64198500D01*
X86296500Y-68072000D02*
X83312000Y-65087500D01*
X86296500Y-70104000D02*
X86296500Y-68072000D01*
D36*
X85280500Y-71120000D02*
X86296500Y-70104000D01*
X83947000Y-71120000D02*
X85280500Y-71120000D01*
X83312000Y-71755000D02*
X83947000Y-71120000D01*
D39*
X124015500Y-58674000D02*
X123888500Y-58674000D01*
X123888500Y-58674000D02*
X121920000Y-56705500D01*
X121920000Y-56705500D02*
X85661500Y-56705500D01*
D37*
X85661500Y-56705500D02*
X83312000Y-59055000D01*
X83312000Y-59055000D02*
X83312000Y-64198500D01*
D39*
X125476000Y-58674000D02*
X124015500Y-58674000D01*
X126047500Y-59245500D02*
X125476000Y-58674000D01*
X134302500Y-59245500D02*
X126047500Y-59245500D01*
X134620000Y-59563000D02*
X134302500Y-59245500D01*
X134620000Y-60960000D02*
X134620000Y-59563000D01*
X83312000Y-83820000D02*
X84582000Y-85090000D01*
X83312000Y-72517000D02*
X83312000Y-83820000D01*
D36*
X83312000Y-72517000D02*
X83312000Y-71755000D01*
X128955800Y-74180700D02*
X130175000Y-72961500D01*
X128955800Y-74193400D02*
X124215678Y-78933522D01*
X128955800Y-74193400D02*
X128955800Y-74180700D01*
X131572000Y-70612000D02*
X130175000Y-72009000D01*
X130175000Y-72009000D02*
X130175000Y-72961500D01*
X132842000Y-70612000D02*
X131572000Y-70612000D01*
X124908458Y-81903371D02*
X124930971Y-81903371D01*
X125780800Y-82753200D02*
X124930971Y-81903371D01*
X125780800Y-82753200D02*
X126796800Y-82753200D01*
X126796800Y-82753200D02*
X127254000Y-82296000D01*
X127254000Y-82296000D02*
X127254000Y-81280000D01*
X127254000Y-81280000D02*
X126542800Y-80568800D01*
X125730000Y-60642500D02*
X125730000Y-59817000D01*
X125666500Y-62674500D02*
X125730000Y-62611000D01*
X125730000Y-62611000D02*
X125730000Y-60642500D01*
D37*
X93980000Y-60960000D02*
X93980000Y-58991500D01*
D36*
X95821500Y-57150000D02*
X93980000Y-58991500D01*
X121666000Y-57150000D02*
X95821500Y-57150000D01*
X123698000Y-59182000D02*
X121666000Y-57150000D01*
X125095000Y-59182000D02*
X123698000Y-59182000D01*
X125730000Y-59817000D02*
X125095000Y-59182000D01*
X124908458Y-79640629D02*
X124930971Y-79640629D01*
X128168400Y-76403200D02*
X128676400Y-76403200D01*
X124930971Y-79640629D02*
X128168400Y-76403200D01*
X123088400Y-71475600D02*
X123037600Y-71424800D01*
X123571000Y-62801500D02*
X123190000Y-62420500D01*
D37*
X96520000Y-59182000D02*
X96520000Y-60960000D01*
D36*
X98044000Y-57658000D02*
X96520000Y-59182000D01*
X121208800Y-57658000D02*
X98044000Y-57658000D01*
X123190000Y-59639200D02*
X121208800Y-57658000D01*
X123190000Y-62420500D02*
X123190000Y-59639200D01*
X123825000Y-69596000D02*
X124523500Y-68897500D01*
X124523500Y-68897500D02*
X124523500Y-63754000D01*
X124523500Y-63754000D02*
X123571000Y-62801500D01*
X123088400Y-70332600D02*
X123825000Y-69596000D01*
X123088400Y-71475600D02*
X123088400Y-70332600D01*
X126809500Y-73469500D02*
X126809500Y-67754500D01*
X122787138Y-77491862D02*
X126809500Y-73469500D01*
X122787138Y-77519309D02*
X122787138Y-77491862D01*
X126174500Y-56769000D02*
X126873000Y-57467500D01*
X126873000Y-57467500D02*
X135509000Y-57467500D01*
X135509000Y-57467500D02*
X136207500Y-58166000D01*
X136207500Y-58166000D02*
X136207500Y-59309000D01*
X124269500Y-56769000D02*
X126174500Y-56769000D01*
X122174000Y-71564500D02*
X122174000Y-70866000D01*
X121034958Y-75751542D02*
X121983500Y-74803000D01*
X121019371Y-75751542D02*
X121034958Y-75751542D01*
X122174000Y-70561198D02*
X123063000Y-69672198D01*
D37*
X101600000Y-59499500D02*
X101600000Y-60960000D01*
D36*
X102679500Y-58420000D02*
X101600000Y-59499500D01*
X119443500Y-58420000D02*
X102679500Y-58420000D01*
X120650000Y-59626500D02*
X119443500Y-58420000D01*
X120650000Y-62039500D02*
X120650000Y-59626500D01*
X121475500Y-62865000D02*
X120650000Y-62039500D01*
X122174000Y-62865000D02*
X121475500Y-62865000D01*
X122174000Y-70866000D02*
X122174000Y-70561198D01*
X123317000Y-73469500D02*
X123317000Y-72898000D01*
X123317000Y-72898000D02*
X122174000Y-71755000D01*
X122174000Y-71755000D02*
X122174000Y-71628000D01*
X121983500Y-74803000D02*
X123317000Y-73469500D01*
X123063000Y-69659500D02*
X124079000Y-68643500D01*
X124079000Y-68643500D02*
X124079000Y-64135000D01*
X124079000Y-64135000D02*
X122809000Y-62865000D01*
X122809000Y-62865000D02*
X122174000Y-62865000D01*
X123063000Y-69672198D02*
X123063000Y-69659500D01*
X116635309Y-83671138D02*
X116635309Y-83707191D01*
X109347000Y-88963500D02*
X107823000Y-87439500D01*
X107823000Y-87439500D02*
X107823000Y-84518500D01*
X116635309Y-83707191D02*
X111379000Y-88963500D01*
X111379000Y-88963500D02*
X109601000Y-88963500D01*
X109601000Y-88963500D02*
X109347000Y-88963500D01*
X124650500Y-73533000D02*
X124650500Y-70421500D01*
X121726478Y-76457022D02*
X124650500Y-73533000D01*
X121726478Y-76458649D02*
X121726478Y-76457022D01*
X126555500Y-65151000D02*
X126682500Y-65024000D01*
X125476000Y-66230500D02*
X126555500Y-65151000D01*
X139509500Y-64135000D02*
X139573000Y-64135000D01*
X127571500Y-64135000D02*
X139509500Y-64135000D01*
X126555500Y-65151000D02*
X127571500Y-64135000D01*
X141732000Y-64135000D02*
X142430500Y-64833500D01*
X141097000Y-64135000D02*
X139509500Y-64135000D01*
X141097000Y-64135000D02*
X141732000Y-64135000D01*
D39*
X142176500Y-60896500D02*
X142240000Y-60960000D01*
D37*
X142748000Y-57023000D02*
X142176500Y-57594500D01*
X142176500Y-57594500D02*
X142176500Y-60896500D01*
X148400500Y-82676000D02*
X153098500Y-77978000D01*
X153098500Y-77978000D02*
X153098500Y-75882500D01*
X153098500Y-75882500D02*
X152908000Y-75692000D01*
X150177500Y-71818500D02*
X147193000Y-68834000D01*
X147193000Y-68834000D02*
X147193000Y-65976500D01*
X147193000Y-65976500D02*
X147447000Y-65722500D01*
X140208000Y-82676000D02*
X148400500Y-82676000D01*
D36*
X124650500Y-70358000D02*
X125476000Y-69532500D01*
X125476000Y-69532500D02*
X125476000Y-66230500D01*
X124650500Y-70421500D02*
X124650500Y-70358000D01*
X124066300Y-73418700D02*
X124066300Y-70104000D01*
X125285500Y-65087500D02*
X126936500Y-63436500D01*
X126936500Y-63436500D02*
X144335500Y-63436500D01*
D37*
X144335500Y-63436500D02*
X144780000Y-62992000D01*
X144780000Y-62992000D02*
X144780000Y-60960000D01*
D36*
X121379905Y-76105095D02*
X124066300Y-73418700D01*
X121372924Y-76105095D02*
X121379905Y-76105095D01*
D37*
X144589500Y-57594500D02*
X144780000Y-57785000D01*
X144780000Y-57785000D02*
X144780000Y-60960000D01*
X148718000Y-80136000D02*
X151384000Y-77470000D01*
X149161500Y-73342500D02*
X148907500Y-73088500D01*
X148907500Y-73088500D02*
X148907500Y-71564500D01*
X148907500Y-71564500D02*
X146494500Y-69151500D01*
X146494500Y-69151500D02*
X146494500Y-65214500D01*
X146494500Y-65214500D02*
X147320000Y-64389000D01*
X140208000Y-80136000D02*
X148718000Y-80136000D01*
D36*
X124066300Y-70053200D02*
X124968000Y-69151500D01*
X124968000Y-69151500D02*
X124968000Y-65405000D01*
X124968000Y-65405000D02*
X125285500Y-65087500D01*
X124066300Y-70104000D02*
X124066300Y-70053200D01*
X123847798Y-82964031D02*
X123858031Y-82964031D01*
D39*
X122491500Y-81597500D02*
X121412000Y-81597500D01*
X123847798Y-82953798D02*
X122491500Y-81597500D01*
X123847798Y-82964031D02*
X123847798Y-82953798D01*
D36*
X124201351Y-82610478D02*
X124201351Y-82596151D01*
D39*
X122428000Y-80835500D02*
X122428000Y-80581500D01*
X124201351Y-82608851D02*
X122428000Y-80835500D01*
X124201351Y-82610478D02*
X124201351Y-82608851D01*
D36*
X124554905Y-82256924D02*
X124554905Y-82238505D01*
D39*
X123634500Y-81343500D02*
X123634500Y-80645000D01*
X124547924Y-82256924D02*
X123634500Y-81343500D01*
X124554905Y-82256924D02*
X124547924Y-82256924D01*
D36*
X126682500Y-66357500D02*
X126746000Y-66294000D01*
X126238000Y-66802000D02*
X126682500Y-66357500D01*
X125095000Y-73787000D02*
X125095000Y-71628000D01*
X122080031Y-76801969D02*
X125095000Y-73787000D01*
X122080031Y-76812202D02*
X122080031Y-76801969D01*
X127698500Y-65341500D02*
X127952500Y-65087500D01*
X127952500Y-65087500D02*
X140208000Y-65087500D01*
X140208000Y-65087500D02*
X140271500Y-65024000D01*
X126682500Y-66357500D02*
X127698500Y-65341500D01*
X125095000Y-70612000D02*
X125920500Y-69786500D01*
X125920500Y-69786500D02*
X125920500Y-67119500D01*
X125920500Y-67119500D02*
X126238000Y-66802000D01*
X125095000Y-71628000D02*
X125095000Y-70612000D01*
X146862800Y-61417200D02*
X147320000Y-60960000D01*
D37*
X147320000Y-60960000D02*
X147320000Y-62674500D01*
X147320000Y-62674500D02*
X145923000Y-64071500D01*
D36*
X145923000Y-66421000D02*
X145923000Y-64071500D01*
X115968769Y-78579969D02*
X118465600Y-81076800D01*
X115928202Y-78579969D02*
X115968769Y-78579969D01*
X144970500Y-69596000D02*
X145923000Y-68643500D01*
X145923000Y-68643500D02*
X145923000Y-66421000D01*
X108775500Y-86487000D02*
X108775500Y-86423500D01*
X108775500Y-87312500D02*
X108775500Y-86487000D01*
X109855000Y-88392000D02*
X108775500Y-87312500D01*
X111188500Y-88392000D02*
X109855000Y-88392000D01*
X116262916Y-83317584D02*
X111188500Y-88392000D01*
X116281755Y-83317584D02*
X116262916Y-83317584D01*
X107759500Y-82867500D02*
X106934000Y-82042000D01*
X106934000Y-82042000D02*
X106934000Y-81534000D01*
X108775500Y-84010500D02*
X107759500Y-82994500D01*
X108775500Y-86487000D02*
X108775500Y-84010500D01*
X107759500Y-82994500D02*
X107759500Y-82867500D01*
X124612400Y-85852000D02*
X122787138Y-84026738D01*
X124612400Y-85852000D02*
X126809500Y-85852000D01*
X129489200Y-84772500D02*
X129489200Y-84201000D01*
X129489200Y-85293200D02*
X129489200Y-84772500D01*
X122787138Y-84024691D02*
X122787138Y-84026738D01*
X129489200Y-83515200D02*
X129349500Y-83375500D01*
X129349500Y-83375500D02*
X129349500Y-78168500D01*
X129349500Y-78168500D02*
X130810000Y-76708000D01*
X130810000Y-76708000D02*
X130810000Y-75882500D01*
X129489200Y-84201000D02*
X129489200Y-83515200D01*
D37*
X151701500Y-65024000D02*
X152400000Y-64325500D01*
X152400000Y-64325500D02*
X152400000Y-60960000D01*
D36*
X129489200Y-86728300D02*
X129095500Y-87122000D01*
X129095500Y-87122000D02*
X128079500Y-87122000D01*
X128079500Y-87122000D02*
X126809500Y-85852000D01*
X129489200Y-84772500D02*
X129489200Y-86728300D01*
X123140691Y-77872862D02*
X123142738Y-77872862D01*
X127209550Y-73806050D02*
X127304800Y-73710800D01*
X123142738Y-77872862D02*
X127209550Y-73806050D01*
X127304800Y-73710800D02*
X127304800Y-71386700D01*
X127304800Y-70243700D02*
X127762000Y-69786500D01*
X127304800Y-71386700D02*
X127304800Y-70243700D01*
D37*
X140906500Y-98425000D02*
X140144500Y-97663000D01*
X140144500Y-97663000D02*
X140144500Y-95504000D01*
X142273000Y-98425000D02*
X140906500Y-98425000D01*
X146240500Y-95694500D02*
X146240500Y-94170500D01*
X146240500Y-94170500D02*
X144875250Y-92805250D01*
X145161000Y-96774000D02*
X146240500Y-95694500D01*
X145161000Y-96786700D02*
X145161000Y-96774000D01*
X141827250Y-92805250D02*
X140144500Y-94488000D01*
X140144500Y-94488000D02*
X140144500Y-95504000D01*
X144875250Y-92805250D02*
X141827250Y-92805250D01*
X143319500Y-97155000D02*
X144449800Y-98285300D01*
X144449800Y-98285300D02*
X145161000Y-98285300D01*
X142273000Y-97155000D02*
X143319500Y-97155000D01*
D35*
X121767600Y-94622800D02*
X121767600Y-95859600D01*
X121767600Y-95859600D02*
X121920000Y-96012000D01*
X121920000Y-96012000D02*
X121920000Y-96913700D01*
D36*
X121920000Y-96012000D02*
X121767600Y-95859600D01*
X121920000Y-96913700D02*
X121920000Y-96012000D01*
D35*
X124104400Y-94622800D02*
X124104400Y-95783400D01*
X124460000Y-96139000D02*
X124460000Y-96913700D01*
X124104400Y-95783400D02*
X124460000Y-96139000D01*
D36*
X124460000Y-96913700D02*
X124345700Y-96913700D01*
D35*
X126390400Y-94622800D02*
X126390400Y-95529400D01*
X127000000Y-96139000D02*
X127000000Y-96913700D01*
X126390400Y-95529400D02*
X127000000Y-96139000D01*
D36*
X127000000Y-96913700D02*
X126695200Y-96913700D01*
D35*
X128676400Y-94622800D02*
X128676400Y-95211900D01*
X128676400Y-95211900D02*
X129540000Y-96075500D01*
X129540000Y-96075500D02*
X129540000Y-96850200D01*
D36*
X129540000Y-96850200D02*
X129362200Y-96850200D01*
X129540000Y-96850200D02*
X129540000Y-96418400D01*
X103316500Y-91249500D02*
X103289000Y-91222000D01*
X109791500Y-91249500D02*
X109283500Y-91249500D01*
X116988862Y-84052138D02*
X109791500Y-91249500D01*
X116988862Y-84024691D02*
X116988862Y-84052138D01*
X108470698Y-93091000D02*
X108470698Y-92062302D01*
X108470698Y-92062302D02*
X109283500Y-91249500D01*
X108470698Y-97293642D02*
X108470698Y-93091000D01*
X107053590Y-98710750D02*
X108470698Y-97293642D01*
X104775000Y-100139500D02*
X103314500Y-100139500D01*
X106203750Y-98710750D02*
X104775000Y-100139500D01*
D37*
X132080000Y-103695500D02*
X132080000Y-101600000D01*
D36*
X130492500Y-105283000D02*
X132080000Y-103695500D01*
X104965500Y-105283000D02*
X130492500Y-105283000D01*
X102870000Y-103187500D02*
X104965500Y-105283000D01*
X102870000Y-100584000D02*
X102870000Y-103187500D01*
X103314500Y-100139500D02*
X102870000Y-100584000D01*
X106203750Y-98710750D02*
X107053590Y-98710750D01*
D35*
X92830000Y-91222000D02*
X92794000Y-91186000D01*
X95339000Y-91222000D02*
X92830000Y-91222000D01*
D36*
X103289000Y-92684500D02*
X105283000Y-94678500D01*
X105283000Y-94678500D02*
X107378500Y-94678500D01*
X107378500Y-94678500D02*
X108470698Y-93586302D01*
X108470698Y-93586302D02*
X108470698Y-93091000D01*
X103289000Y-91222000D02*
X103289000Y-92684500D01*
D35*
X103289000Y-91222000D02*
X95339000Y-91222000D01*
D36*
G36*
X94451769Y-57442100D02*
X93665265Y-58228604D01*
X93664095Y-58228837D01*
X93396283Y-58407783D01*
X93217337Y-58675595D01*
X93154500Y-58991500D01*
X93154500Y-59559117D01*
X92920330Y-59715585D01*
X92710000Y-60030365D01*
X92499670Y-59715585D01*
X92013489Y-59390729D01*
X91440000Y-59276655D01*
X90866511Y-59390729D01*
X90380330Y-59715585D01*
X90173539Y-60025069D01*
X89802036Y-59609268D01*
X89274791Y-59355291D01*
X89259026Y-59352642D01*
X89027000Y-59473783D01*
X89027000Y-60833000D01*
X89047000Y-60833000D01*
X89047000Y-61087000D01*
X89027000Y-61087000D01*
X89027000Y-62446217D01*
X89259026Y-62567358D01*
X89274791Y-62564709D01*
X89802036Y-62310732D01*
X90173539Y-61894930D01*
X90235140Y-61987123D01*
X89584382Y-62637882D01*
X89391671Y-62926294D01*
X89358589Y-63092608D01*
X89358588Y-63092608D01*
X89158073Y-63224327D01*
X89074862Y-63347600D01*
X88836500Y-63347600D01*
X88773000Y-63360230D01*
X88773000Y-62446217D01*
X88773000Y-61087000D01*
X88753000Y-61087000D01*
X88753000Y-60833000D01*
X88773000Y-60833000D01*
X88773000Y-59473783D01*
X88540974Y-59352642D01*
X88525209Y-59355291D01*
X87997964Y-59609268D01*
X87840326Y-59785701D01*
X87824063Y-59701877D01*
X87684273Y-59489073D01*
X87473240Y-59346623D01*
X87223600Y-59296560D01*
X85496400Y-59296560D01*
X85254277Y-59343537D01*
X85041473Y-59483327D01*
X84899023Y-59694360D01*
X84848960Y-59944000D01*
X84848960Y-61976000D01*
X84895937Y-62218123D01*
X85035727Y-62430927D01*
X85246760Y-62573377D01*
X85496400Y-62623440D01*
X87223600Y-62623440D01*
X87465723Y-62576463D01*
X87678527Y-62436673D01*
X87820977Y-62225640D01*
X87839483Y-62133354D01*
X87997964Y-62310732D01*
X88525209Y-62564709D01*
X88540974Y-62567358D01*
X88773000Y-62446217D01*
X88773000Y-63360230D01*
X88535175Y-63407537D01*
X88279724Y-63578224D01*
X86819224Y-65038724D01*
X86648537Y-65294175D01*
X86588600Y-65595500D01*
X86588600Y-67196666D01*
X84137500Y-64745566D01*
X84137500Y-64198500D01*
X84137500Y-59396933D01*
X86092333Y-57442100D01*
X94451769Y-57442100D01*
X94451769Y-57442100D01*
G37*
X94451769Y-57442100D02*
X93665265Y-58228604D01*
X93664095Y-58228837D01*
X93396283Y-58407783D01*
X93217337Y-58675595D01*
X93154500Y-58991500D01*
X93154500Y-59559117D01*
X92920330Y-59715585D01*
X92710000Y-60030365D01*
X92499670Y-59715585D01*
X92013489Y-59390729D01*
X91440000Y-59276655D01*
X90866511Y-59390729D01*
X90380330Y-59715585D01*
X90173539Y-60025069D01*
X89802036Y-59609268D01*
X89274791Y-59355291D01*
X89259026Y-59352642D01*
X89027000Y-59473783D01*
X89027000Y-60833000D01*
X89047000Y-60833000D01*
X89047000Y-61087000D01*
X89027000Y-61087000D01*
X89027000Y-62446217D01*
X89259026Y-62567358D01*
X89274791Y-62564709D01*
X89802036Y-62310732D01*
X90173539Y-61894930D01*
X90235140Y-61987123D01*
X89584382Y-62637882D01*
X89391671Y-62926294D01*
X89358589Y-63092608D01*
X89358588Y-63092608D01*
X89158073Y-63224327D01*
X89074862Y-63347600D01*
X88836500Y-63347600D01*
X88773000Y-63360230D01*
X88773000Y-62446217D01*
X88773000Y-61087000D01*
X88753000Y-61087000D01*
X88753000Y-60833000D01*
X88773000Y-60833000D01*
X88773000Y-59473783D01*
X88540974Y-59352642D01*
X88525209Y-59355291D01*
X87997964Y-59609268D01*
X87840326Y-59785701D01*
X87824063Y-59701877D01*
X87684273Y-59489073D01*
X87473240Y-59346623D01*
X87223600Y-59296560D01*
X85496400Y-59296560D01*
X85254277Y-59343537D01*
X85041473Y-59483327D01*
X84899023Y-59694360D01*
X84848960Y-59944000D01*
X84848960Y-61976000D01*
X84895937Y-62218123D01*
X85035727Y-62430927D01*
X85246760Y-62573377D01*
X85496400Y-62623440D01*
X87223600Y-62623440D01*
X87465723Y-62576463D01*
X87678527Y-62436673D01*
X87820977Y-62225640D01*
X87839483Y-62133354D01*
X87997964Y-62310732D01*
X88525209Y-62564709D01*
X88540974Y-62567358D01*
X88773000Y-62446217D01*
X88773000Y-63360230D01*
X88535175Y-63407537D01*
X88279724Y-63578224D01*
X86819224Y-65038724D01*
X86648537Y-65294175D01*
X86588600Y-65595500D01*
X86588600Y-67196666D01*
X84137500Y-64745566D01*
X84137500Y-64198500D01*
X84137500Y-59396933D01*
X86092333Y-57442100D01*
X94451769Y-57442100D01*
G36*
X102744870Y-99631500D02*
X102331185Y-100045185D01*
X102289188Y-100108036D01*
X102173489Y-100030729D01*
X101600000Y-99916655D01*
X101026511Y-100030729D01*
X100540330Y-100355585D01*
X100330000Y-100670365D01*
X100119670Y-100355585D01*
X99633489Y-100030729D01*
X99060000Y-99916655D01*
X98486511Y-100030729D01*
X98000330Y-100355585D01*
X97790000Y-100670365D01*
X97579670Y-100355585D01*
X97093489Y-100030729D01*
X96520000Y-99916655D01*
X95946511Y-100030729D01*
X95460330Y-100355585D01*
X95250000Y-100670365D01*
X95039670Y-100355585D01*
X94553489Y-100030729D01*
X93980000Y-99916655D01*
X93406511Y-100030729D01*
X92920330Y-100355585D01*
X92710000Y-100670365D01*
X92499670Y-100355585D01*
X92013489Y-100030729D01*
X91440000Y-99916655D01*
X90866511Y-100030729D01*
X90380330Y-100355585D01*
X90170000Y-100670365D01*
X89959670Y-100355585D01*
X89473489Y-100030729D01*
X88900000Y-99916655D01*
X88326511Y-100030729D01*
X87840330Y-100355585D01*
X87829784Y-100371367D01*
X87824063Y-100341877D01*
X87684273Y-100129073D01*
X87473240Y-99986623D01*
X87223600Y-99936560D01*
X85496400Y-99936560D01*
X85376166Y-99959887D01*
X85254277Y-99983537D01*
X85041473Y-100123327D01*
X84899023Y-100334360D01*
X84848960Y-100584000D01*
X84848960Y-102616000D01*
X84895937Y-102858123D01*
X85035727Y-103070927D01*
X85246760Y-103213377D01*
X85496400Y-103263440D01*
X87223600Y-103263440D01*
X87465723Y-103216463D01*
X87678527Y-103076673D01*
X87820977Y-102865640D01*
X87828718Y-102827037D01*
X87840330Y-102844415D01*
X88011000Y-102958453D01*
X88011000Y-103314500D01*
X88011000Y-103378000D01*
X84442236Y-103378000D01*
X82836166Y-101771930D01*
X82836166Y-93683772D01*
X82042000Y-92889605D01*
X81247834Y-93683772D01*
X81316207Y-93925035D01*
X81836428Y-94110296D01*
X82387946Y-94082373D01*
X82767793Y-93925035D01*
X82836166Y-93683772D01*
X82836166Y-101771930D01*
X80772000Y-99707764D01*
X80772000Y-93303095D01*
X80826965Y-93435793D01*
X81068228Y-93504166D01*
X81862395Y-92710000D01*
X81068228Y-91915834D01*
X80826965Y-91984207D01*
X80772000Y-92138551D01*
X80772000Y-90731332D01*
X80864531Y-90955274D01*
X81254672Y-91346096D01*
X81464880Y-91433382D01*
X81316207Y-91494965D01*
X81247834Y-91736228D01*
X82042000Y-92530395D01*
X82836166Y-91736228D01*
X82767793Y-91494965D01*
X82608015Y-91438064D01*
X82827274Y-91347469D01*
X83218096Y-90957328D01*
X83311969Y-90731257D01*
X83404531Y-90955274D01*
X83794672Y-91346096D01*
X84004880Y-91433382D01*
X83856207Y-91494965D01*
X83787834Y-91736228D01*
X84582000Y-92530395D01*
X84596142Y-92516252D01*
X84775747Y-92695857D01*
X84761605Y-92710000D01*
X84775747Y-92724142D01*
X84596142Y-92903747D01*
X84582000Y-92889605D01*
X84402395Y-93069210D01*
X84402395Y-92710000D01*
X83608228Y-91915834D01*
X83366965Y-91984207D01*
X83316145Y-92126911D01*
X83257035Y-91984207D01*
X83015772Y-91915834D01*
X82221605Y-92710000D01*
X83015772Y-93504166D01*
X83257035Y-93435793D01*
X83307854Y-93293088D01*
X83366965Y-93435793D01*
X83608228Y-93504166D01*
X84402395Y-92710000D01*
X84402395Y-93069210D01*
X83787834Y-93683772D01*
X83856207Y-93925035D01*
X84376428Y-94110296D01*
X84927946Y-94082373D01*
X85307793Y-93925035D01*
X85376165Y-93683772D01*
X85376166Y-93683773D01*
X85471000Y-93778607D01*
X85471000Y-95631000D01*
X85533837Y-95946906D01*
X85712783Y-96214717D01*
X87808280Y-98310213D01*
X87808283Y-98310217D01*
X87808284Y-98310217D01*
X88062283Y-98564216D01*
X88887780Y-99389713D01*
X88887783Y-99389717D01*
X88887784Y-99389717D01*
X89155595Y-99568663D01*
X89471500Y-99631501D01*
X89471500Y-99631500D01*
X89471505Y-99631500D01*
X102744870Y-99631500D01*
X102744870Y-99631500D01*
G37*
X102744870Y-99631500D02*
X102331185Y-100045185D01*
X102289188Y-100108036D01*
X102173489Y-100030729D01*
X101600000Y-99916655D01*
X101026511Y-100030729D01*
X100540330Y-100355585D01*
X100330000Y-100670365D01*
X100119670Y-100355585D01*
X99633489Y-100030729D01*
X99060000Y-99916655D01*
X98486511Y-100030729D01*
X98000330Y-100355585D01*
X97790000Y-100670365D01*
X97579670Y-100355585D01*
X97093489Y-100030729D01*
X96520000Y-99916655D01*
X95946511Y-100030729D01*
X95460330Y-100355585D01*
X95250000Y-100670365D01*
X95039670Y-100355585D01*
X94553489Y-100030729D01*
X93980000Y-99916655D01*
X93406511Y-100030729D01*
X92920330Y-100355585D01*
X92710000Y-100670365D01*
X92499670Y-100355585D01*
X92013489Y-100030729D01*
X91440000Y-99916655D01*
X90866511Y-100030729D01*
X90380330Y-100355585D01*
X90170000Y-100670365D01*
X89959670Y-100355585D01*
X89473489Y-100030729D01*
X88900000Y-99916655D01*
X88326511Y-100030729D01*
X87840330Y-100355585D01*
X87829784Y-100371367D01*
X87824063Y-100341877D01*
X87684273Y-100129073D01*
X87473240Y-99986623D01*
X87223600Y-99936560D01*
X85496400Y-99936560D01*
X85376166Y-99959887D01*
X85254277Y-99983537D01*
X85041473Y-100123327D01*
X84899023Y-100334360D01*
X84848960Y-100584000D01*
X84848960Y-102616000D01*
X84895937Y-102858123D01*
X85035727Y-103070927D01*
X85246760Y-103213377D01*
X85496400Y-103263440D01*
X87223600Y-103263440D01*
X87465723Y-103216463D01*
X87678527Y-103076673D01*
X87820977Y-102865640D01*
X87828718Y-102827037D01*
X87840330Y-102844415D01*
X88011000Y-102958453D01*
X88011000Y-103314500D01*
X88011000Y-103378000D01*
X84442236Y-103378000D01*
X82836166Y-101771930D01*
X82836166Y-93683772D01*
X82042000Y-92889605D01*
X81247834Y-93683772D01*
X81316207Y-93925035D01*
X81836428Y-94110296D01*
X82387946Y-94082373D01*
X82767793Y-93925035D01*
X82836166Y-93683772D01*
X82836166Y-101771930D01*
X80772000Y-99707764D01*
X80772000Y-93303095D01*
X80826965Y-93435793D01*
X81068228Y-93504166D01*
X81862395Y-92710000D01*
X81068228Y-91915834D01*
X80826965Y-91984207D01*
X80772000Y-92138551D01*
X80772000Y-90731332D01*
X80864531Y-90955274D01*
X81254672Y-91346096D01*
X81464880Y-91433382D01*
X81316207Y-91494965D01*
X81247834Y-91736228D01*
X82042000Y-92530395D01*
X82836166Y-91736228D01*
X82767793Y-91494965D01*
X82608015Y-91438064D01*
X82827274Y-91347469D01*
X83218096Y-90957328D01*
X83311969Y-90731257D01*
X83404531Y-90955274D01*
X83794672Y-91346096D01*
X84004880Y-91433382D01*
X83856207Y-91494965D01*
X83787834Y-91736228D01*
X84582000Y-92530395D01*
X84596142Y-92516252D01*
X84775747Y-92695857D01*
X84761605Y-92710000D01*
X84775747Y-92724142D01*
X84596142Y-92903747D01*
X84582000Y-92889605D01*
X84402395Y-93069210D01*
X84402395Y-92710000D01*
X83608228Y-91915834D01*
X83366965Y-91984207D01*
X83316145Y-92126911D01*
X83257035Y-91984207D01*
X83015772Y-91915834D01*
X82221605Y-92710000D01*
X83015772Y-93504166D01*
X83257035Y-93435793D01*
X83307854Y-93293088D01*
X83366965Y-93435793D01*
X83608228Y-93504166D01*
X84402395Y-92710000D01*
X84402395Y-93069210D01*
X83787834Y-93683772D01*
X83856207Y-93925035D01*
X84376428Y-94110296D01*
X84927946Y-94082373D01*
X85307793Y-93925035D01*
X85376165Y-93683772D01*
X85376166Y-93683773D01*
X85471000Y-93778607D01*
X85471000Y-95631000D01*
X85533837Y-95946906D01*
X85712783Y-96214717D01*
X87808280Y-98310213D01*
X87808283Y-98310217D01*
X87808284Y-98310217D01*
X88062283Y-98564216D01*
X88887780Y-99389713D01*
X88887783Y-99389717D01*
X88887784Y-99389717D01*
X89155595Y-99568663D01*
X89471500Y-99631501D01*
X89471500Y-99631500D01*
X89471505Y-99631500D01*
X102744870Y-99631500D01*
G36*
X106445509Y-95440500D02*
X106434197Y-95467744D01*
X106433949Y-95751920D01*
X105411869Y-96774000D01*
X105156000Y-96774000D01*
X104864395Y-96832004D01*
X104617185Y-96997185D01*
X104205370Y-97409000D01*
X91483990Y-97409000D01*
X91495303Y-97381756D01*
X91495697Y-96930225D01*
X91323267Y-96512914D01*
X91004265Y-96193355D01*
X90587256Y-96020197D01*
X90467000Y-96020091D01*
X90467000Y-92112250D01*
X90467000Y-91313000D01*
X90467000Y-91059000D01*
X90467000Y-90259750D01*
X90308250Y-90101000D01*
X90213000Y-90101000D01*
X90213000Y-83984250D01*
X90213000Y-83185000D01*
X90213000Y-82931000D01*
X90213000Y-82131750D01*
X90213000Y-75856250D01*
X90213000Y-75057000D01*
X90213000Y-74803000D01*
X90213000Y-74003750D01*
X90054250Y-73845000D01*
X89613691Y-73845000D01*
X89380302Y-73941673D01*
X89201673Y-74120301D01*
X89105000Y-74353690D01*
X89105000Y-74606309D01*
X89105000Y-74644250D01*
X89263750Y-74803000D01*
X90213000Y-74803000D01*
X90213000Y-75057000D01*
X89263750Y-75057000D01*
X89105000Y-75215750D01*
X89105000Y-75253691D01*
X89105000Y-75506310D01*
X89201673Y-75739699D01*
X89380302Y-75918327D01*
X89613691Y-76015000D01*
X90054250Y-76015000D01*
X90213000Y-75856250D01*
X90213000Y-82131750D01*
X90054250Y-81973000D01*
X89613691Y-81973000D01*
X89380302Y-82069673D01*
X89201673Y-82248301D01*
X89105000Y-82481690D01*
X89105000Y-82734309D01*
X89105000Y-82772250D01*
X89263750Y-82931000D01*
X90213000Y-82931000D01*
X90213000Y-83185000D01*
X89263750Y-83185000D01*
X89105000Y-83343750D01*
X89105000Y-83381691D01*
X89105000Y-83634310D01*
X89201673Y-83867699D01*
X89380302Y-84046327D01*
X89613691Y-84143000D01*
X90054250Y-84143000D01*
X90213000Y-83984250D01*
X90213000Y-90101000D01*
X89867691Y-90101000D01*
X89634302Y-90197673D01*
X89455673Y-90376301D01*
X89359000Y-90609690D01*
X89359000Y-90862309D01*
X89359000Y-90900250D01*
X89517750Y-91059000D01*
X90467000Y-91059000D01*
X90467000Y-91313000D01*
X89517750Y-91313000D01*
X89359000Y-91471750D01*
X89359000Y-91509691D01*
X89359000Y-91762310D01*
X89455673Y-91995699D01*
X89634302Y-92174327D01*
X89867691Y-92271000D01*
X90308250Y-92271000D01*
X90467000Y-92112250D01*
X90467000Y-96020091D01*
X90392960Y-96020027D01*
X88963500Y-94590566D01*
X88963500Y-87947500D01*
X88963500Y-78676500D01*
X88900663Y-78360595D01*
X88900662Y-78360594D01*
X88721717Y-78092783D01*
X88721713Y-78092780D01*
X85930666Y-75301733D01*
X85969869Y-75207324D01*
X85970303Y-74709130D01*
X86753217Y-73926217D01*
X86932163Y-73658406D01*
X86932163Y-73658405D01*
X86995000Y-73342500D01*
X86995000Y-71525434D01*
X88543434Y-69977000D01*
X88773000Y-69977000D01*
X90614500Y-69977000D01*
X90930405Y-69914163D01*
X90930406Y-69914163D01*
X91198217Y-69735217D01*
X92996717Y-67936717D01*
X93169156Y-67678642D01*
X93169157Y-67678642D01*
X93255123Y-67661963D01*
X93467927Y-67522173D01*
X93482556Y-67500500D01*
X93693985Y-67500500D01*
X93738537Y-67730123D01*
X93878327Y-67942927D01*
X94089360Y-68085377D01*
X94339000Y-68135440D01*
X96339000Y-68135440D01*
X96581123Y-68088463D01*
X96793927Y-67948673D01*
X96936377Y-67737640D01*
X96938510Y-67727000D01*
X101687931Y-67727000D01*
X101688537Y-67730123D01*
X101828327Y-67942927D01*
X102039360Y-68085377D01*
X102289000Y-68135440D01*
X104289000Y-68135440D01*
X104385484Y-68116720D01*
X104641560Y-68372796D01*
X104641560Y-68738000D01*
X104688537Y-68980123D01*
X104759384Y-69087974D01*
X104691623Y-69188360D01*
X104641560Y-69438000D01*
X104641560Y-69893006D01*
X104459761Y-70074804D01*
X104289000Y-70040560D01*
X102289000Y-70040560D01*
X102046877Y-70087537D01*
X101834073Y-70227327D01*
X101691623Y-70438360D01*
X101689489Y-70449000D01*
X96940068Y-70449000D01*
X96939463Y-70445877D01*
X96799673Y-70233073D01*
X96588640Y-70090623D01*
X96339000Y-70040560D01*
X94339000Y-70040560D01*
X94271575Y-70053641D01*
X94162529Y-69944595D01*
X94162697Y-69752225D01*
X93990267Y-69334914D01*
X93671265Y-69015355D01*
X93254256Y-68842197D01*
X92802725Y-68841803D01*
X92385414Y-69014233D01*
X92065855Y-69333235D01*
X91892697Y-69750244D01*
X91892303Y-70201775D01*
X92064733Y-70619086D01*
X92383735Y-70938645D01*
X92800744Y-71111803D01*
X92995038Y-71111972D01*
X93691560Y-71808493D01*
X93691560Y-71988000D01*
X93738537Y-72230123D01*
X93878327Y-72442927D01*
X94089360Y-72585377D01*
X94339000Y-72635440D01*
X96339000Y-72635440D01*
X96581123Y-72588463D01*
X96793927Y-72448673D01*
X96936377Y-72237640D01*
X96938510Y-72227000D01*
X101687931Y-72227000D01*
X101688537Y-72230123D01*
X101828327Y-72442927D01*
X102039360Y-72585377D01*
X102289000Y-72635440D01*
X104289000Y-72635440D01*
X104531123Y-72588463D01*
X104535989Y-72585265D01*
X104572022Y-72621298D01*
X104563190Y-72642568D01*
X104562631Y-73282704D01*
X104707475Y-73633254D01*
X104513914Y-73713233D01*
X104513554Y-73713592D01*
X104289000Y-73668560D01*
X102289000Y-73668560D01*
X102046877Y-73715537D01*
X101834073Y-73855327D01*
X101691623Y-74066360D01*
X101689489Y-74077000D01*
X96940068Y-74077000D01*
X96939463Y-74073877D01*
X96799673Y-73861073D01*
X96588640Y-73718623D01*
X96339000Y-73668560D01*
X94339000Y-73668560D01*
X94096877Y-73715537D01*
X93884073Y-73855327D01*
X93741623Y-74066360D01*
X93739489Y-74077000D01*
X93634783Y-74077000D01*
X93600673Y-74025073D01*
X93389640Y-73882623D01*
X93140000Y-73832560D01*
X91940000Y-73832560D01*
X91697877Y-73879537D01*
X91485073Y-74019327D01*
X91441662Y-74083637D01*
X91299698Y-73941673D01*
X91066309Y-73845000D01*
X90625750Y-73845000D01*
X90467000Y-74003750D01*
X90467000Y-74803000D01*
X90487000Y-74803000D01*
X90487000Y-75057000D01*
X90467000Y-75057000D01*
X90467000Y-75856250D01*
X90625750Y-76015000D01*
X91066309Y-76015000D01*
X91299698Y-75918327D01*
X91441176Y-75776849D01*
X91479327Y-75834927D01*
X91690360Y-75977377D01*
X91940000Y-76027440D01*
X93140000Y-76027440D01*
X93382123Y-75980463D01*
X93573116Y-75855000D01*
X93737931Y-75855000D01*
X93738537Y-75858123D01*
X93878327Y-76070927D01*
X94089360Y-76213377D01*
X94339000Y-76263440D01*
X96339000Y-76263440D01*
X96341683Y-76262919D01*
X96908892Y-76830128D01*
X96908803Y-76932775D01*
X97081233Y-77350086D01*
X97400235Y-77669645D01*
X97817244Y-77842803D01*
X98268775Y-77843197D01*
X98686086Y-77670767D01*
X99005645Y-77351765D01*
X99178803Y-76934756D01*
X99179197Y-76483225D01*
X99006767Y-76065914D01*
X98796220Y-75855000D01*
X101687931Y-75855000D01*
X101688537Y-75858123D01*
X101828327Y-76070927D01*
X102039360Y-76213377D01*
X102289000Y-76263440D01*
X104289000Y-76263440D01*
X104531123Y-76216463D01*
X104641560Y-76143917D01*
X104641560Y-76866000D01*
X104688537Y-77108123D01*
X104759384Y-77215974D01*
X104718191Y-77277000D01*
X104079000Y-77277000D01*
X103738794Y-77344671D01*
X103450382Y-77537382D01*
X102819204Y-78168560D01*
X102289000Y-78168560D01*
X102046877Y-78215537D01*
X101834073Y-78355327D01*
X101691623Y-78566360D01*
X101689489Y-78577000D01*
X96940068Y-78577000D01*
X96939463Y-78573877D01*
X96799673Y-78361073D01*
X96588640Y-78218623D01*
X96339000Y-78168560D01*
X96164500Y-78168560D01*
X96164500Y-78003500D01*
X96101663Y-77687595D01*
X96101662Y-77687594D01*
X95922717Y-77419783D01*
X95922713Y-77419780D01*
X95877029Y-77374096D01*
X95877197Y-77181725D01*
X95704767Y-76764414D01*
X95385765Y-76444855D01*
X94968756Y-76271697D01*
X94517225Y-76271303D01*
X94099914Y-76443733D01*
X93780355Y-76762735D01*
X93607197Y-77179744D01*
X93606803Y-77631275D01*
X93779233Y-78048586D01*
X94005689Y-78275437D01*
X93884073Y-78355327D01*
X93741623Y-78566360D01*
X93691560Y-78816000D01*
X93691560Y-80116000D01*
X93738537Y-80358123D01*
X93878327Y-80570927D01*
X94089360Y-80713377D01*
X94339000Y-80763440D01*
X96339000Y-80763440D01*
X96581123Y-80716463D01*
X96793927Y-80576673D01*
X96936377Y-80365640D01*
X96938510Y-80355000D01*
X101687931Y-80355000D01*
X101688537Y-80358123D01*
X101828327Y-80570927D01*
X102039360Y-80713377D01*
X102289000Y-80763440D01*
X104289000Y-80763440D01*
X104319211Y-80757578D01*
X103280230Y-81796560D01*
X102289000Y-81796560D01*
X102046877Y-81843537D01*
X101834073Y-81983327D01*
X101691623Y-82194360D01*
X101689489Y-82205000D01*
X96940068Y-82205000D01*
X96939463Y-82201877D01*
X96799673Y-81989073D01*
X96588640Y-81846623D01*
X96339000Y-81796560D01*
X94339000Y-81796560D01*
X94096877Y-81843537D01*
X93884073Y-81983327D01*
X93741623Y-82194360D01*
X93739489Y-82205000D01*
X93634783Y-82205000D01*
X93600673Y-82153073D01*
X93389640Y-82010623D01*
X93140000Y-81960560D01*
X91940000Y-81960560D01*
X91697877Y-82007537D01*
X91485073Y-82147327D01*
X91441662Y-82211637D01*
X91299698Y-82069673D01*
X91066309Y-81973000D01*
X90625750Y-81973000D01*
X90467000Y-82131750D01*
X90467000Y-82931000D01*
X90487000Y-82931000D01*
X90487000Y-83185000D01*
X90467000Y-83185000D01*
X90467000Y-83984250D01*
X90625750Y-84143000D01*
X91066309Y-84143000D01*
X91299698Y-84046327D01*
X91441176Y-83904849D01*
X91479327Y-83962927D01*
X91690360Y-84105377D01*
X91940000Y-84155440D01*
X93140000Y-84155440D01*
X93382123Y-84108463D01*
X93573116Y-83983000D01*
X93737931Y-83983000D01*
X93738537Y-83986123D01*
X93878327Y-84198927D01*
X94089360Y-84341377D01*
X94339000Y-84391440D01*
X96339000Y-84391440D01*
X96581123Y-84344463D01*
X96793927Y-84204673D01*
X96936377Y-83993640D01*
X96938510Y-83983000D01*
X101687931Y-83983000D01*
X101688537Y-83986123D01*
X101828327Y-84198927D01*
X102039360Y-84341377D01*
X102289000Y-84391440D01*
X104289000Y-84391440D01*
X104531123Y-84344463D01*
X104743927Y-84204673D01*
X104873308Y-84013000D01*
X105354330Y-84013000D01*
X105394384Y-84073974D01*
X105326623Y-84174360D01*
X105276560Y-84424000D01*
X105276560Y-85624000D01*
X105323537Y-85866123D01*
X105410000Y-85997746D01*
X105410000Y-86705000D01*
X104890068Y-86705000D01*
X104889463Y-86701877D01*
X104749673Y-86489073D01*
X104538640Y-86346623D01*
X104289000Y-86296560D01*
X102289000Y-86296560D01*
X102046877Y-86343537D01*
X101834073Y-86483327D01*
X101691623Y-86694360D01*
X101689489Y-86705000D01*
X97051236Y-86705000D01*
X97213628Y-86542607D01*
X97316275Y-86542697D01*
X97733586Y-86370267D01*
X98053145Y-86051265D01*
X98226303Y-85634256D01*
X98226697Y-85182725D01*
X98054267Y-84765414D01*
X97735265Y-84445855D01*
X97318256Y-84272697D01*
X96866725Y-84272303D01*
X96449414Y-84444733D01*
X96129855Y-84763735D01*
X95956697Y-85180744D01*
X95956605Y-85285158D01*
X94945204Y-86296560D01*
X94339000Y-86296560D01*
X94096877Y-86343537D01*
X93884073Y-86483327D01*
X93741623Y-86694360D01*
X93691560Y-86944000D01*
X93691560Y-88244000D01*
X93738537Y-88486123D01*
X93878327Y-88698927D01*
X94089360Y-88841377D01*
X94339000Y-88891440D01*
X96339000Y-88891440D01*
X96581123Y-88844463D01*
X96793927Y-88704673D01*
X96936377Y-88493640D01*
X96938510Y-88483000D01*
X101687931Y-88483000D01*
X101688537Y-88486123D01*
X101751846Y-88582500D01*
X100838000Y-88582500D01*
X100522094Y-88645337D01*
X100254283Y-88824283D01*
X100234095Y-88844470D01*
X100041725Y-88844303D01*
X99624414Y-89016733D01*
X99304855Y-89335735D01*
X99131697Y-89752744D01*
X99131303Y-90204275D01*
X99184491Y-90333000D01*
X96940068Y-90333000D01*
X96939463Y-90329877D01*
X96799673Y-90117073D01*
X96588640Y-89974623D01*
X96339000Y-89924560D01*
X94339000Y-89924560D01*
X94096877Y-89971537D01*
X93884073Y-90111327D01*
X93796155Y-90241572D01*
X93643640Y-90138623D01*
X93394000Y-90088560D01*
X92194000Y-90088560D01*
X91951877Y-90135537D01*
X91739073Y-90275327D01*
X91695662Y-90339637D01*
X91553698Y-90197673D01*
X91320309Y-90101000D01*
X90879750Y-90101000D01*
X90721000Y-90259750D01*
X90721000Y-91059000D01*
X90741000Y-91059000D01*
X90741000Y-91313000D01*
X90721000Y-91313000D01*
X90721000Y-92112250D01*
X90879750Y-92271000D01*
X91320309Y-92271000D01*
X91553698Y-92174327D01*
X91695176Y-92032849D01*
X91733327Y-92090927D01*
X91944360Y-92233377D01*
X92194000Y-92283440D01*
X93394000Y-92283440D01*
X93636123Y-92236463D01*
X93763805Y-92152589D01*
X93878327Y-92326927D01*
X94089360Y-92469377D01*
X94339000Y-92519440D01*
X96339000Y-92519440D01*
X96581123Y-92472463D01*
X96793927Y-92332673D01*
X96936377Y-92121640D01*
X96938510Y-92111000D01*
X101687931Y-92111000D01*
X101688537Y-92114123D01*
X101828327Y-92326927D01*
X102039360Y-92469377D01*
X102289000Y-92519440D01*
X102527000Y-92519440D01*
X102527000Y-92684500D01*
X102585004Y-92976105D01*
X102750185Y-93223315D01*
X103951430Y-94424560D01*
X102289000Y-94424560D01*
X102046877Y-94471537D01*
X101834073Y-94611327D01*
X101691623Y-94822360D01*
X101689489Y-94833000D01*
X96940068Y-94833000D01*
X96939463Y-94829877D01*
X96799673Y-94617073D01*
X96588640Y-94474623D01*
X96339000Y-94424560D01*
X94856296Y-94424560D01*
X93845107Y-93413371D01*
X93845197Y-93310725D01*
X93672767Y-92893414D01*
X93353765Y-92573855D01*
X92936756Y-92400697D01*
X92485225Y-92400303D01*
X92067914Y-92572733D01*
X91748355Y-92891735D01*
X91575197Y-93308744D01*
X91574803Y-93760275D01*
X91747233Y-94177586D01*
X92066235Y-94497145D01*
X92483244Y-94670303D01*
X92587658Y-94670394D01*
X93691560Y-95774296D01*
X93691560Y-96372000D01*
X93738537Y-96614123D01*
X93878327Y-96826927D01*
X94089360Y-96969377D01*
X94339000Y-97019440D01*
X96339000Y-97019440D01*
X96581123Y-96972463D01*
X96793927Y-96832673D01*
X96936377Y-96621640D01*
X96938510Y-96611000D01*
X101687931Y-96611000D01*
X101688537Y-96614123D01*
X101828327Y-96826927D01*
X102039360Y-96969377D01*
X102289000Y-97019440D01*
X104289000Y-97019440D01*
X104531123Y-96972463D01*
X104743927Y-96832673D01*
X104886377Y-96621640D01*
X104936440Y-96372000D01*
X104936440Y-95345776D01*
X104991395Y-95382496D01*
X104991396Y-95382496D01*
X105283000Y-95440500D01*
X106445509Y-95440500D01*
X106445509Y-95440500D01*
G37*
X106445509Y-95440500D02*
X106434197Y-95467744D01*
X106433949Y-95751920D01*
X105411869Y-96774000D01*
X105156000Y-96774000D01*
X104864395Y-96832004D01*
X104617185Y-96997185D01*
X104205370Y-97409000D01*
X91483990Y-97409000D01*
X91495303Y-97381756D01*
X91495697Y-96930225D01*
X91323267Y-96512914D01*
X91004265Y-96193355D01*
X90587256Y-96020197D01*
X90467000Y-96020091D01*
X90467000Y-92112250D01*
X90467000Y-91313000D01*
X90467000Y-91059000D01*
X90467000Y-90259750D01*
X90308250Y-90101000D01*
X90213000Y-90101000D01*
X90213000Y-83984250D01*
X90213000Y-83185000D01*
X90213000Y-82931000D01*
X90213000Y-82131750D01*
X90213000Y-75856250D01*
X90213000Y-75057000D01*
X90213000Y-74803000D01*
X90213000Y-74003750D01*
X90054250Y-73845000D01*
X89613691Y-73845000D01*
X89380302Y-73941673D01*
X89201673Y-74120301D01*
X89105000Y-74353690D01*
X89105000Y-74606309D01*
X89105000Y-74644250D01*
X89263750Y-74803000D01*
X90213000Y-74803000D01*
X90213000Y-75057000D01*
X89263750Y-75057000D01*
X89105000Y-75215750D01*
X89105000Y-75253691D01*
X89105000Y-75506310D01*
X89201673Y-75739699D01*
X89380302Y-75918327D01*
X89613691Y-76015000D01*
X90054250Y-76015000D01*
X90213000Y-75856250D01*
X90213000Y-82131750D01*
X90054250Y-81973000D01*
X89613691Y-81973000D01*
X89380302Y-82069673D01*
X89201673Y-82248301D01*
X89105000Y-82481690D01*
X89105000Y-82734309D01*
X89105000Y-82772250D01*
X89263750Y-82931000D01*
X90213000Y-82931000D01*
X90213000Y-83185000D01*
X89263750Y-83185000D01*
X89105000Y-83343750D01*
X89105000Y-83381691D01*
X89105000Y-83634310D01*
X89201673Y-83867699D01*
X89380302Y-84046327D01*
X89613691Y-84143000D01*
X90054250Y-84143000D01*
X90213000Y-83984250D01*
X90213000Y-90101000D01*
X89867691Y-90101000D01*
X89634302Y-90197673D01*
X89455673Y-90376301D01*
X89359000Y-90609690D01*
X89359000Y-90862309D01*
X89359000Y-90900250D01*
X89517750Y-91059000D01*
X90467000Y-91059000D01*
X90467000Y-91313000D01*
X89517750Y-91313000D01*
X89359000Y-91471750D01*
X89359000Y-91509691D01*
X89359000Y-91762310D01*
X89455673Y-91995699D01*
X89634302Y-92174327D01*
X89867691Y-92271000D01*
X90308250Y-92271000D01*
X90467000Y-92112250D01*
X90467000Y-96020091D01*
X90392960Y-96020027D01*
X88963500Y-94590566D01*
X88963500Y-87947500D01*
X88963500Y-78676500D01*
X88900663Y-78360595D01*
X88900662Y-78360594D01*
X88721717Y-78092783D01*
X88721713Y-78092780D01*
X85930666Y-75301733D01*
X85969869Y-75207324D01*
X85970303Y-74709130D01*
X86753217Y-73926217D01*
X86932163Y-73658406D01*
X86932163Y-73658405D01*
X86995000Y-73342500D01*
X86995000Y-71525434D01*
X88543434Y-69977000D01*
X88773000Y-69977000D01*
X90614500Y-69977000D01*
X90930405Y-69914163D01*
X90930406Y-69914163D01*
X91198217Y-69735217D01*
X92996717Y-67936717D01*
X93169156Y-67678642D01*
X93169157Y-67678642D01*
X93255123Y-67661963D01*
X93467927Y-67522173D01*
X93482556Y-67500500D01*
X93693985Y-67500500D01*
X93738537Y-67730123D01*
X93878327Y-67942927D01*
X94089360Y-68085377D01*
X94339000Y-68135440D01*
X96339000Y-68135440D01*
X96581123Y-68088463D01*
X96793927Y-67948673D01*
X96936377Y-67737640D01*
X96938510Y-67727000D01*
X101687931Y-67727000D01*
X101688537Y-67730123D01*
X101828327Y-67942927D01*
X102039360Y-68085377D01*
X102289000Y-68135440D01*
X104289000Y-68135440D01*
X104385484Y-68116720D01*
X104641560Y-68372796D01*
X104641560Y-68738000D01*
X104688537Y-68980123D01*
X104759384Y-69087974D01*
X104691623Y-69188360D01*
X104641560Y-69438000D01*
X104641560Y-69893006D01*
X104459761Y-70074804D01*
X104289000Y-70040560D01*
X102289000Y-70040560D01*
X102046877Y-70087537D01*
X101834073Y-70227327D01*
X101691623Y-70438360D01*
X101689489Y-70449000D01*
X96940068Y-70449000D01*
X96939463Y-70445877D01*
X96799673Y-70233073D01*
X96588640Y-70090623D01*
X96339000Y-70040560D01*
X94339000Y-70040560D01*
X94271575Y-70053641D01*
X94162529Y-69944595D01*
X94162697Y-69752225D01*
X93990267Y-69334914D01*
X93671265Y-69015355D01*
X93254256Y-68842197D01*
X92802725Y-68841803D01*
X92385414Y-69014233D01*
X92065855Y-69333235D01*
X91892697Y-69750244D01*
X91892303Y-70201775D01*
X92064733Y-70619086D01*
X92383735Y-70938645D01*
X92800744Y-71111803D01*
X92995038Y-71111972D01*
X93691560Y-71808493D01*
X93691560Y-71988000D01*
X93738537Y-72230123D01*
X93878327Y-72442927D01*
X94089360Y-72585377D01*
X94339000Y-72635440D01*
X96339000Y-72635440D01*
X96581123Y-72588463D01*
X96793927Y-72448673D01*
X96936377Y-72237640D01*
X96938510Y-72227000D01*
X101687931Y-72227000D01*
X101688537Y-72230123D01*
X101828327Y-72442927D01*
X102039360Y-72585377D01*
X102289000Y-72635440D01*
X104289000Y-72635440D01*
X104531123Y-72588463D01*
X104535989Y-72585265D01*
X104572022Y-72621298D01*
X104563190Y-72642568D01*
X104562631Y-73282704D01*
X104707475Y-73633254D01*
X104513914Y-73713233D01*
X104513554Y-73713592D01*
X104289000Y-73668560D01*
X102289000Y-73668560D01*
X102046877Y-73715537D01*
X101834073Y-73855327D01*
X101691623Y-74066360D01*
X101689489Y-74077000D01*
X96940068Y-74077000D01*
X96939463Y-74073877D01*
X96799673Y-73861073D01*
X96588640Y-73718623D01*
X96339000Y-73668560D01*
X94339000Y-73668560D01*
X94096877Y-73715537D01*
X93884073Y-73855327D01*
X93741623Y-74066360D01*
X93739489Y-74077000D01*
X93634783Y-74077000D01*
X93600673Y-74025073D01*
X93389640Y-73882623D01*
X93140000Y-73832560D01*
X91940000Y-73832560D01*
X91697877Y-73879537D01*
X91485073Y-74019327D01*
X91441662Y-74083637D01*
X91299698Y-73941673D01*
X91066309Y-73845000D01*
X90625750Y-73845000D01*
X90467000Y-74003750D01*
X90467000Y-74803000D01*
X90487000Y-74803000D01*
X90487000Y-75057000D01*
X90467000Y-75057000D01*
X90467000Y-75856250D01*
X90625750Y-76015000D01*
X91066309Y-76015000D01*
X91299698Y-75918327D01*
X91441176Y-75776849D01*
X91479327Y-75834927D01*
X91690360Y-75977377D01*
X91940000Y-76027440D01*
X93140000Y-76027440D01*
X93382123Y-75980463D01*
X93573116Y-75855000D01*
X93737931Y-75855000D01*
X93738537Y-75858123D01*
X93878327Y-76070927D01*
X94089360Y-76213377D01*
X94339000Y-76263440D01*
X96339000Y-76263440D01*
X96341683Y-76262919D01*
X96908892Y-76830128D01*
X96908803Y-76932775D01*
X97081233Y-77350086D01*
X97400235Y-77669645D01*
X97817244Y-77842803D01*
X98268775Y-77843197D01*
X98686086Y-77670767D01*
X99005645Y-77351765D01*
X99178803Y-76934756D01*
X99179197Y-76483225D01*
X99006767Y-76065914D01*
X98796220Y-75855000D01*
X101687931Y-75855000D01*
X101688537Y-75858123D01*
X101828327Y-76070927D01*
X102039360Y-76213377D01*
X102289000Y-76263440D01*
X104289000Y-76263440D01*
X104531123Y-76216463D01*
X104641560Y-76143917D01*
X104641560Y-76866000D01*
X104688537Y-77108123D01*
X104759384Y-77215974D01*
X104718191Y-77277000D01*
X104079000Y-77277000D01*
X103738794Y-77344671D01*
X103450382Y-77537382D01*
X102819204Y-78168560D01*
X102289000Y-78168560D01*
X102046877Y-78215537D01*
X101834073Y-78355327D01*
X101691623Y-78566360D01*
X101689489Y-78577000D01*
X96940068Y-78577000D01*
X96939463Y-78573877D01*
X96799673Y-78361073D01*
X96588640Y-78218623D01*
X96339000Y-78168560D01*
X96164500Y-78168560D01*
X96164500Y-78003500D01*
X96101663Y-77687595D01*
X96101662Y-77687594D01*
X95922717Y-77419783D01*
X95922713Y-77419780D01*
X95877029Y-77374096D01*
X95877197Y-77181725D01*
X95704767Y-76764414D01*
X95385765Y-76444855D01*
X94968756Y-76271697D01*
X94517225Y-76271303D01*
X94099914Y-76443733D01*
X93780355Y-76762735D01*
X93607197Y-77179744D01*
X93606803Y-77631275D01*
X93779233Y-78048586D01*
X94005689Y-78275437D01*
X93884073Y-78355327D01*
X93741623Y-78566360D01*
X93691560Y-78816000D01*
X93691560Y-80116000D01*
X93738537Y-80358123D01*
X93878327Y-80570927D01*
X94089360Y-80713377D01*
X94339000Y-80763440D01*
X96339000Y-80763440D01*
X96581123Y-80716463D01*
X96793927Y-80576673D01*
X96936377Y-80365640D01*
X96938510Y-80355000D01*
X101687931Y-80355000D01*
X101688537Y-80358123D01*
X101828327Y-80570927D01*
X102039360Y-80713377D01*
X102289000Y-80763440D01*
X104289000Y-80763440D01*
X104319211Y-80757578D01*
X103280230Y-81796560D01*
X102289000Y-81796560D01*
X102046877Y-81843537D01*
X101834073Y-81983327D01*
X101691623Y-82194360D01*
X101689489Y-82205000D01*
X96940068Y-82205000D01*
X96939463Y-82201877D01*
X96799673Y-81989073D01*
X96588640Y-81846623D01*
X96339000Y-81796560D01*
X94339000Y-81796560D01*
X94096877Y-81843537D01*
X93884073Y-81983327D01*
X93741623Y-82194360D01*
X93739489Y-82205000D01*
X93634783Y-82205000D01*
X93600673Y-82153073D01*
X93389640Y-82010623D01*
X93140000Y-81960560D01*
X91940000Y-81960560D01*
X91697877Y-82007537D01*
X91485073Y-82147327D01*
X91441662Y-82211637D01*
X91299698Y-82069673D01*
X91066309Y-81973000D01*
X90625750Y-81973000D01*
X90467000Y-82131750D01*
X90467000Y-82931000D01*
X90487000Y-82931000D01*
X90487000Y-83185000D01*
X90467000Y-83185000D01*
X90467000Y-83984250D01*
X90625750Y-84143000D01*
X91066309Y-84143000D01*
X91299698Y-84046327D01*
X91441176Y-83904849D01*
X91479327Y-83962927D01*
X91690360Y-84105377D01*
X91940000Y-84155440D01*
X93140000Y-84155440D01*
X93382123Y-84108463D01*
X93573116Y-83983000D01*
X93737931Y-83983000D01*
X93738537Y-83986123D01*
X93878327Y-84198927D01*
X94089360Y-84341377D01*
X94339000Y-84391440D01*
X96339000Y-84391440D01*
X96581123Y-84344463D01*
X96793927Y-84204673D01*
X96936377Y-83993640D01*
X96938510Y-83983000D01*
X101687931Y-83983000D01*
X101688537Y-83986123D01*
X101828327Y-84198927D01*
X102039360Y-84341377D01*
X102289000Y-84391440D01*
X104289000Y-84391440D01*
X104531123Y-84344463D01*
X104743927Y-84204673D01*
X104873308Y-84013000D01*
X105354330Y-84013000D01*
X105394384Y-84073974D01*
X105326623Y-84174360D01*
X105276560Y-84424000D01*
X105276560Y-85624000D01*
X105323537Y-85866123D01*
X105410000Y-85997746D01*
X105410000Y-86705000D01*
X104890068Y-86705000D01*
X104889463Y-86701877D01*
X104749673Y-86489073D01*
X104538640Y-86346623D01*
X104289000Y-86296560D01*
X102289000Y-86296560D01*
X102046877Y-86343537D01*
X101834073Y-86483327D01*
X101691623Y-86694360D01*
X101689489Y-86705000D01*
X97051236Y-86705000D01*
X97213628Y-86542607D01*
X97316275Y-86542697D01*
X97733586Y-86370267D01*
X98053145Y-86051265D01*
X98226303Y-85634256D01*
X98226697Y-85182725D01*
X98054267Y-84765414D01*
X97735265Y-84445855D01*
X97318256Y-84272697D01*
X96866725Y-84272303D01*
X96449414Y-84444733D01*
X96129855Y-84763735D01*
X95956697Y-85180744D01*
X95956605Y-85285158D01*
X94945204Y-86296560D01*
X94339000Y-86296560D01*
X94096877Y-86343537D01*
X93884073Y-86483327D01*
X93741623Y-86694360D01*
X93691560Y-86944000D01*
X93691560Y-88244000D01*
X93738537Y-88486123D01*
X93878327Y-88698927D01*
X94089360Y-88841377D01*
X94339000Y-88891440D01*
X96339000Y-88891440D01*
X96581123Y-88844463D01*
X96793927Y-88704673D01*
X96936377Y-88493640D01*
X96938510Y-88483000D01*
X101687931Y-88483000D01*
X101688537Y-88486123D01*
X101751846Y-88582500D01*
X100838000Y-88582500D01*
X100522094Y-88645337D01*
X100254283Y-88824283D01*
X100234095Y-88844470D01*
X100041725Y-88844303D01*
X99624414Y-89016733D01*
X99304855Y-89335735D01*
X99131697Y-89752744D01*
X99131303Y-90204275D01*
X99184491Y-90333000D01*
X96940068Y-90333000D01*
X96939463Y-90329877D01*
X96799673Y-90117073D01*
X96588640Y-89974623D01*
X96339000Y-89924560D01*
X94339000Y-89924560D01*
X94096877Y-89971537D01*
X93884073Y-90111327D01*
X93796155Y-90241572D01*
X93643640Y-90138623D01*
X93394000Y-90088560D01*
X92194000Y-90088560D01*
X91951877Y-90135537D01*
X91739073Y-90275327D01*
X91695662Y-90339637D01*
X91553698Y-90197673D01*
X91320309Y-90101000D01*
X90879750Y-90101000D01*
X90721000Y-90259750D01*
X90721000Y-91059000D01*
X90741000Y-91059000D01*
X90741000Y-91313000D01*
X90721000Y-91313000D01*
X90721000Y-92112250D01*
X90879750Y-92271000D01*
X91320309Y-92271000D01*
X91553698Y-92174327D01*
X91695176Y-92032849D01*
X91733327Y-92090927D01*
X91944360Y-92233377D01*
X92194000Y-92283440D01*
X93394000Y-92283440D01*
X93636123Y-92236463D01*
X93763805Y-92152589D01*
X93878327Y-92326927D01*
X94089360Y-92469377D01*
X94339000Y-92519440D01*
X96339000Y-92519440D01*
X96581123Y-92472463D01*
X96793927Y-92332673D01*
X96936377Y-92121640D01*
X96938510Y-92111000D01*
X101687931Y-92111000D01*
X101688537Y-92114123D01*
X101828327Y-92326927D01*
X102039360Y-92469377D01*
X102289000Y-92519440D01*
X102527000Y-92519440D01*
X102527000Y-92684500D01*
X102585004Y-92976105D01*
X102750185Y-93223315D01*
X103951430Y-94424560D01*
X102289000Y-94424560D01*
X102046877Y-94471537D01*
X101834073Y-94611327D01*
X101691623Y-94822360D01*
X101689489Y-94833000D01*
X96940068Y-94833000D01*
X96939463Y-94829877D01*
X96799673Y-94617073D01*
X96588640Y-94474623D01*
X96339000Y-94424560D01*
X94856296Y-94424560D01*
X93845107Y-93413371D01*
X93845197Y-93310725D01*
X93672767Y-92893414D01*
X93353765Y-92573855D01*
X92936756Y-92400697D01*
X92485225Y-92400303D01*
X92067914Y-92572733D01*
X91748355Y-92891735D01*
X91575197Y-93308744D01*
X91574803Y-93760275D01*
X91747233Y-94177586D01*
X92066235Y-94497145D01*
X92483244Y-94670303D01*
X92587658Y-94670394D01*
X93691560Y-95774296D01*
X93691560Y-96372000D01*
X93738537Y-96614123D01*
X93878327Y-96826927D01*
X94089360Y-96969377D01*
X94339000Y-97019440D01*
X96339000Y-97019440D01*
X96581123Y-96972463D01*
X96793927Y-96832673D01*
X96936377Y-96621640D01*
X96938510Y-96611000D01*
X101687931Y-96611000D01*
X101688537Y-96614123D01*
X101828327Y-96826927D01*
X102039360Y-96969377D01*
X102289000Y-97019440D01*
X104289000Y-97019440D01*
X104531123Y-96972463D01*
X104743927Y-96832673D01*
X104886377Y-96621640D01*
X104936440Y-96372000D01*
X104936440Y-95345776D01*
X104991395Y-95382496D01*
X104991396Y-95382496D01*
X105283000Y-95440500D01*
X106445509Y-95440500D01*
G36*
X111973130Y-63479239D02*
X110810266Y-64642103D01*
X110809094Y-64642337D01*
X110541283Y-64821283D01*
X109350066Y-66012500D01*
X104902389Y-66012500D01*
X104889463Y-65945877D01*
X104749673Y-65733073D01*
X104538640Y-65590623D01*
X104289000Y-65540560D01*
X102289000Y-65540560D01*
X102046877Y-65587537D01*
X101834073Y-65727327D01*
X101691623Y-65938360D01*
X101689489Y-65949000D01*
X98691700Y-65949000D01*
X98691700Y-65518030D01*
X98691700Y-64770000D01*
X97943670Y-64770000D01*
X97784920Y-64928750D01*
X97784920Y-65168090D01*
X97881593Y-65401479D01*
X98060222Y-65580107D01*
X98293611Y-65676780D01*
X98532950Y-65676780D01*
X98691700Y-65518030D01*
X98691700Y-65949000D01*
X96940068Y-65949000D01*
X96939463Y-65945877D01*
X96799673Y-65733073D01*
X96588640Y-65590623D01*
X96339000Y-65540560D01*
X94339000Y-65540560D01*
X94096877Y-65587537D01*
X93891421Y-65722500D01*
X93484135Y-65722500D01*
X93473673Y-65706573D01*
X93262640Y-65564123D01*
X93013000Y-65514060D01*
X91813000Y-65514060D01*
X91570877Y-65561037D01*
X91358073Y-65700827D01*
X91314662Y-65765137D01*
X91172698Y-65623173D01*
X90939309Y-65526500D01*
X90498750Y-65526500D01*
X90340000Y-65685250D01*
X90340000Y-66484500D01*
X90360000Y-66484500D01*
X90360000Y-66738500D01*
X90340000Y-66738500D01*
X90340000Y-67537750D01*
X90498750Y-67696500D01*
X90902066Y-67696500D01*
X90272565Y-68326000D01*
X90086000Y-68326000D01*
X90086000Y-67537750D01*
X90086000Y-66738500D01*
X90086000Y-66484500D01*
X90086000Y-65685250D01*
X89927250Y-65526500D01*
X89486691Y-65526500D01*
X89253302Y-65623173D01*
X89074673Y-65801801D01*
X88978000Y-66035190D01*
X88978000Y-66287809D01*
X88978000Y-66325750D01*
X89136750Y-66484500D01*
X90086000Y-66484500D01*
X90086000Y-66738500D01*
X89136750Y-66738500D01*
X88978000Y-66897250D01*
X88978000Y-66935191D01*
X88978000Y-67187810D01*
X89074673Y-67421199D01*
X89253302Y-67599827D01*
X89486691Y-67696500D01*
X89927250Y-67696500D01*
X90086000Y-67537750D01*
X90086000Y-68326000D01*
X89061052Y-68326000D01*
X88163400Y-67428348D01*
X88163400Y-65921652D01*
X89109825Y-64975226D01*
X89152327Y-65039927D01*
X89363360Y-65182377D01*
X89613000Y-65232440D01*
X90813000Y-65232440D01*
X91055123Y-65185463D01*
X91267927Y-65045673D01*
X91312613Y-64979471D01*
X91352327Y-65039927D01*
X91563360Y-65182377D01*
X91813000Y-65232440D01*
X93013000Y-65232440D01*
X93255123Y-65185463D01*
X93467927Y-65045673D01*
X93525419Y-64960500D01*
X95186500Y-64960500D01*
X95502405Y-64897663D01*
X95502406Y-64897663D01*
X95770217Y-64718717D01*
X96480933Y-64008000D01*
X97830446Y-64008000D01*
X97784920Y-64117910D01*
X97784920Y-64357250D01*
X97943670Y-64516000D01*
X98691700Y-64516000D01*
X98691700Y-64496000D01*
X98945700Y-64496000D01*
X98945700Y-64516000D01*
X98965700Y-64516000D01*
X98965700Y-64770000D01*
X98945700Y-64770000D01*
X98945700Y-65518030D01*
X99104450Y-65676780D01*
X99343789Y-65676780D01*
X99577178Y-65580107D01*
X99578879Y-65578405D01*
X99668880Y-65639157D01*
X99918520Y-65689220D01*
X100716080Y-65689220D01*
X100958203Y-65642243D01*
X101171007Y-65502453D01*
X101313457Y-65291420D01*
X101363520Y-65041780D01*
X101363520Y-64244220D01*
X101316543Y-64002097D01*
X101176753Y-63789293D01*
X101142800Y-63766374D01*
X101142800Y-63423805D01*
X101142800Y-63423800D01*
X101142801Y-63423800D01*
X101079963Y-63107895D01*
X100901017Y-62840084D01*
X100901017Y-62840083D01*
X100901013Y-62840080D01*
X100659717Y-62598783D01*
X100391906Y-62419837D01*
X100076000Y-62357000D01*
X99891310Y-62357000D01*
X100119670Y-62204415D01*
X100330000Y-61889634D01*
X100540330Y-62204415D01*
X101026511Y-62529271D01*
X101600000Y-62643345D01*
X102173489Y-62529271D01*
X102659670Y-62204415D01*
X102870000Y-61889634D01*
X103080330Y-62204415D01*
X103566511Y-62529271D01*
X104140000Y-62643345D01*
X104713489Y-62529271D01*
X105199670Y-62204415D01*
X105410000Y-61889634D01*
X105620330Y-62204415D01*
X106106511Y-62529271D01*
X106680000Y-62643345D01*
X107253489Y-62529271D01*
X107739670Y-62204415D01*
X107950000Y-61889634D01*
X108160330Y-62204415D01*
X108646511Y-62529271D01*
X109220000Y-62643345D01*
X109793489Y-62529271D01*
X110279670Y-62204415D01*
X110490000Y-61889634D01*
X110700330Y-62204415D01*
X110998000Y-62403311D01*
X110998000Y-62420500D01*
X111056004Y-62712105D01*
X111221185Y-62959315D01*
X111538685Y-63276816D01*
X111686876Y-63375834D01*
X111785895Y-63441996D01*
X111785896Y-63441996D01*
X111973130Y-63479239D01*
X111973130Y-63479239D01*
G37*
X111973130Y-63479239D02*
X110810266Y-64642103D01*
X110809094Y-64642337D01*
X110541283Y-64821283D01*
X109350066Y-66012500D01*
X104902389Y-66012500D01*
X104889463Y-65945877D01*
X104749673Y-65733073D01*
X104538640Y-65590623D01*
X104289000Y-65540560D01*
X102289000Y-65540560D01*
X102046877Y-65587537D01*
X101834073Y-65727327D01*
X101691623Y-65938360D01*
X101689489Y-65949000D01*
X98691700Y-65949000D01*
X98691700Y-65518030D01*
X98691700Y-64770000D01*
X97943670Y-64770000D01*
X97784920Y-64928750D01*
X97784920Y-65168090D01*
X97881593Y-65401479D01*
X98060222Y-65580107D01*
X98293611Y-65676780D01*
X98532950Y-65676780D01*
X98691700Y-65518030D01*
X98691700Y-65949000D01*
X96940068Y-65949000D01*
X96939463Y-65945877D01*
X96799673Y-65733073D01*
X96588640Y-65590623D01*
X96339000Y-65540560D01*
X94339000Y-65540560D01*
X94096877Y-65587537D01*
X93891421Y-65722500D01*
X93484135Y-65722500D01*
X93473673Y-65706573D01*
X93262640Y-65564123D01*
X93013000Y-65514060D01*
X91813000Y-65514060D01*
X91570877Y-65561037D01*
X91358073Y-65700827D01*
X91314662Y-65765137D01*
X91172698Y-65623173D01*
X90939309Y-65526500D01*
X90498750Y-65526500D01*
X90340000Y-65685250D01*
X90340000Y-66484500D01*
X90360000Y-66484500D01*
X90360000Y-66738500D01*
X90340000Y-66738500D01*
X90340000Y-67537750D01*
X90498750Y-67696500D01*
X90902066Y-67696500D01*
X90272565Y-68326000D01*
X90086000Y-68326000D01*
X90086000Y-67537750D01*
X90086000Y-66738500D01*
X90086000Y-66484500D01*
X90086000Y-65685250D01*
X89927250Y-65526500D01*
X89486691Y-65526500D01*
X89253302Y-65623173D01*
X89074673Y-65801801D01*
X88978000Y-66035190D01*
X88978000Y-66287809D01*
X88978000Y-66325750D01*
X89136750Y-66484500D01*
X90086000Y-66484500D01*
X90086000Y-66738500D01*
X89136750Y-66738500D01*
X88978000Y-66897250D01*
X88978000Y-66935191D01*
X88978000Y-67187810D01*
X89074673Y-67421199D01*
X89253302Y-67599827D01*
X89486691Y-67696500D01*
X89927250Y-67696500D01*
X90086000Y-67537750D01*
X90086000Y-68326000D01*
X89061052Y-68326000D01*
X88163400Y-67428348D01*
X88163400Y-65921652D01*
X89109825Y-64975226D01*
X89152327Y-65039927D01*
X89363360Y-65182377D01*
X89613000Y-65232440D01*
X90813000Y-65232440D01*
X91055123Y-65185463D01*
X91267927Y-65045673D01*
X91312613Y-64979471D01*
X91352327Y-65039927D01*
X91563360Y-65182377D01*
X91813000Y-65232440D01*
X93013000Y-65232440D01*
X93255123Y-65185463D01*
X93467927Y-65045673D01*
X93525419Y-64960500D01*
X95186500Y-64960500D01*
X95502405Y-64897663D01*
X95502406Y-64897663D01*
X95770217Y-64718717D01*
X96480933Y-64008000D01*
X97830446Y-64008000D01*
X97784920Y-64117910D01*
X97784920Y-64357250D01*
X97943670Y-64516000D01*
X98691700Y-64516000D01*
X98691700Y-64496000D01*
X98945700Y-64496000D01*
X98945700Y-64516000D01*
X98965700Y-64516000D01*
X98965700Y-64770000D01*
X98945700Y-64770000D01*
X98945700Y-65518030D01*
X99104450Y-65676780D01*
X99343789Y-65676780D01*
X99577178Y-65580107D01*
X99578879Y-65578405D01*
X99668880Y-65639157D01*
X99918520Y-65689220D01*
X100716080Y-65689220D01*
X100958203Y-65642243D01*
X101171007Y-65502453D01*
X101313457Y-65291420D01*
X101363520Y-65041780D01*
X101363520Y-64244220D01*
X101316543Y-64002097D01*
X101176753Y-63789293D01*
X101142800Y-63766374D01*
X101142800Y-63423805D01*
X101142800Y-63423800D01*
X101142801Y-63423800D01*
X101079963Y-63107895D01*
X100901017Y-62840084D01*
X100901017Y-62840083D01*
X100901013Y-62840080D01*
X100659717Y-62598783D01*
X100391906Y-62419837D01*
X100076000Y-62357000D01*
X99891310Y-62357000D01*
X100119670Y-62204415D01*
X100330000Y-61889634D01*
X100540330Y-62204415D01*
X101026511Y-62529271D01*
X101600000Y-62643345D01*
X102173489Y-62529271D01*
X102659670Y-62204415D01*
X102870000Y-61889634D01*
X103080330Y-62204415D01*
X103566511Y-62529271D01*
X104140000Y-62643345D01*
X104713489Y-62529271D01*
X105199670Y-62204415D01*
X105410000Y-61889634D01*
X105620330Y-62204415D01*
X106106511Y-62529271D01*
X106680000Y-62643345D01*
X107253489Y-62529271D01*
X107739670Y-62204415D01*
X107950000Y-61889634D01*
X108160330Y-62204415D01*
X108646511Y-62529271D01*
X109220000Y-62643345D01*
X109793489Y-62529271D01*
X110279670Y-62204415D01*
X110490000Y-61889634D01*
X110700330Y-62204415D01*
X110998000Y-62403311D01*
X110998000Y-62420500D01*
X111056004Y-62712105D01*
X111221185Y-62959315D01*
X111538685Y-63276816D01*
X111686876Y-63375834D01*
X111785895Y-63441996D01*
X111785896Y-63441996D01*
X111973130Y-63479239D01*
G36*
X115205888Y-77485018D02*
X115204018Y-77486888D01*
X114394315Y-76677185D01*
X114147105Y-76512004D01*
X113855500Y-76454000D01*
X111315500Y-76454000D01*
X110998000Y-76454000D01*
X110706395Y-76512004D01*
X110459185Y-76677185D01*
X108554310Y-78582059D01*
X108196914Y-78729733D01*
X107939552Y-78986645D01*
X107787385Y-78884970D01*
X107505500Y-78828900D01*
X106673825Y-78828900D01*
X106686440Y-78766000D01*
X106686440Y-77566000D01*
X106639463Y-77323877D01*
X106568615Y-77216025D01*
X106636377Y-77115640D01*
X106686440Y-76866000D01*
X106686440Y-75666000D01*
X106639463Y-75423877D01*
X106553000Y-75292253D01*
X106553000Y-75184000D01*
X106485329Y-74843794D01*
X106304554Y-74573246D01*
X106490664Y-74573409D01*
X107082286Y-74328956D01*
X107535325Y-73876706D01*
X107780810Y-73285512D01*
X107781369Y-72645376D01*
X107536916Y-72053754D01*
X107084666Y-71600715D01*
X106553000Y-71379948D01*
X106553000Y-71011159D01*
X106636377Y-70887640D01*
X106642141Y-70858896D01*
X106934905Y-70800663D01*
X106934906Y-70800663D01*
X107202717Y-70621717D01*
X107261207Y-70563225D01*
X107211392Y-70803787D01*
X107259889Y-71053737D01*
X107401011Y-71265659D01*
X107931341Y-71795989D01*
X108135766Y-71933978D01*
X108385087Y-71985608D01*
X108588418Y-71946156D01*
X109485575Y-72843313D01*
X107487524Y-74841365D01*
X107349535Y-75045790D01*
X107297905Y-75295111D01*
X107346402Y-75545061D01*
X107487524Y-75756983D01*
X108901017Y-77170476D01*
X109105442Y-77308465D01*
X109354763Y-77360095D01*
X109604713Y-77311598D01*
X109816635Y-77170476D01*
X111323232Y-75663878D01*
X111464610Y-75692000D01*
X113412869Y-75692000D01*
X115205888Y-77485018D01*
X115205888Y-77485018D01*
G37*
X115205888Y-77485018D02*
X115204018Y-77486888D01*
X114394315Y-76677185D01*
X114147105Y-76512004D01*
X113855500Y-76454000D01*
X111315500Y-76454000D01*
X110998000Y-76454000D01*
X110706395Y-76512004D01*
X110459185Y-76677185D01*
X108554310Y-78582059D01*
X108196914Y-78729733D01*
X107939552Y-78986645D01*
X107787385Y-78884970D01*
X107505500Y-78828900D01*
X106673825Y-78828900D01*
X106686440Y-78766000D01*
X106686440Y-77566000D01*
X106639463Y-77323877D01*
X106568615Y-77216025D01*
X106636377Y-77115640D01*
X106686440Y-76866000D01*
X106686440Y-75666000D01*
X106639463Y-75423877D01*
X106553000Y-75292253D01*
X106553000Y-75184000D01*
X106485329Y-74843794D01*
X106304554Y-74573246D01*
X106490664Y-74573409D01*
X107082286Y-74328956D01*
X107535325Y-73876706D01*
X107780810Y-73285512D01*
X107781369Y-72645376D01*
X107536916Y-72053754D01*
X107084666Y-71600715D01*
X106553000Y-71379948D01*
X106553000Y-71011159D01*
X106636377Y-70887640D01*
X106642141Y-70858896D01*
X106934905Y-70800663D01*
X106934906Y-70800663D01*
X107202717Y-70621717D01*
X107261207Y-70563225D01*
X107211392Y-70803787D01*
X107259889Y-71053737D01*
X107401011Y-71265659D01*
X107931341Y-71795989D01*
X108135766Y-71933978D01*
X108385087Y-71985608D01*
X108588418Y-71946156D01*
X109485575Y-72843313D01*
X107487524Y-74841365D01*
X107349535Y-75045790D01*
X107297905Y-75295111D01*
X107346402Y-75545061D01*
X107487524Y-75756983D01*
X108901017Y-77170476D01*
X109105442Y-77308465D01*
X109354763Y-77360095D01*
X109604713Y-77311598D01*
X109816635Y-77170476D01*
X111323232Y-75663878D01*
X111464610Y-75692000D01*
X113412869Y-75692000D01*
X115205888Y-77485018D01*
G36*
X122422132Y-78955900D02*
X121221500Y-78955900D01*
X120939615Y-79011970D01*
X120700645Y-79171645D01*
X119557645Y-80314645D01*
X119447109Y-80480073D01*
X119428367Y-80434714D01*
X119109365Y-80115155D01*
X118692356Y-79941997D01*
X118408179Y-79941749D01*
X117898038Y-79431608D01*
X118200744Y-79557303D01*
X118652275Y-79557697D01*
X119069586Y-79385267D01*
X119389145Y-79066265D01*
X119562303Y-78649256D01*
X119562550Y-78365079D01*
X119918815Y-78008816D01*
X119918815Y-78008815D01*
X120083996Y-77761605D01*
X120141999Y-77470000D01*
X120142000Y-77470000D01*
X120142000Y-77089000D01*
X120083996Y-76797395D01*
X119918815Y-76550185D01*
X119837710Y-76469080D01*
X119888851Y-76393317D01*
X120013554Y-76580582D01*
X120190331Y-76757359D01*
X120297611Y-76829774D01*
X120367107Y-76934135D01*
X120543884Y-77110912D01*
X120651165Y-77183328D01*
X120720661Y-77287689D01*
X120897438Y-77464466D01*
X121004718Y-77536881D01*
X121074214Y-77641242D01*
X121250991Y-77818019D01*
X121339377Y-77877680D01*
X121347249Y-77896684D01*
X121368504Y-77917940D01*
X121399019Y-77917940D01*
X121455416Y-77956008D01*
X121611462Y-77988322D01*
X121640199Y-78136427D01*
X121681399Y-78198296D01*
X121681399Y-78230834D01*
X121681399Y-78230835D01*
X121702655Y-78252090D01*
X121722768Y-78260421D01*
X121781321Y-78348349D01*
X121958098Y-78525126D01*
X122065378Y-78597541D01*
X122134874Y-78701902D01*
X122311651Y-78878679D01*
X122418932Y-78951095D01*
X122422132Y-78955900D01*
X122422132Y-78955900D01*
G37*
X122422132Y-78955900D02*
X121221500Y-78955900D01*
X120939615Y-79011970D01*
X120700645Y-79171645D01*
X119557645Y-80314645D01*
X119447109Y-80480073D01*
X119428367Y-80434714D01*
X119109365Y-80115155D01*
X118692356Y-79941997D01*
X118408179Y-79941749D01*
X117898038Y-79431608D01*
X118200744Y-79557303D01*
X118652275Y-79557697D01*
X119069586Y-79385267D01*
X119389145Y-79066265D01*
X119562303Y-78649256D01*
X119562550Y-78365079D01*
X119918815Y-78008816D01*
X119918815Y-78008815D01*
X120083996Y-77761605D01*
X120141999Y-77470000D01*
X120142000Y-77470000D01*
X120142000Y-77089000D01*
X120083996Y-76797395D01*
X119918815Y-76550185D01*
X119837710Y-76469080D01*
X119888851Y-76393317D01*
X120013554Y-76580582D01*
X120190331Y-76757359D01*
X120297611Y-76829774D01*
X120367107Y-76934135D01*
X120543884Y-77110912D01*
X120651165Y-77183328D01*
X120720661Y-77287689D01*
X120897438Y-77464466D01*
X121004718Y-77536881D01*
X121074214Y-77641242D01*
X121250991Y-77818019D01*
X121339377Y-77877680D01*
X121347249Y-77896684D01*
X121368504Y-77917940D01*
X121399019Y-77917940D01*
X121455416Y-77956008D01*
X121611462Y-77988322D01*
X121640199Y-78136427D01*
X121681399Y-78198296D01*
X121681399Y-78230834D01*
X121681399Y-78230835D01*
X121702655Y-78252090D01*
X121722768Y-78260421D01*
X121781321Y-78348349D01*
X121958098Y-78525126D01*
X122065378Y-78597541D01*
X122134874Y-78701902D01*
X122311651Y-78878679D01*
X122418932Y-78951095D01*
X122422132Y-78955900D01*
G36*
X126047500Y-73153870D02*
X125857000Y-73344370D01*
X125857000Y-71628000D01*
X125857000Y-70927630D01*
X126047500Y-70737130D01*
X126047500Y-73153870D01*
X126047500Y-73153870D01*
G37*
X126047500Y-73153870D02*
X125857000Y-73344370D01*
X125857000Y-71628000D01*
X125857000Y-70927630D01*
X126047500Y-70737130D01*
X126047500Y-73153870D01*
G36*
X128079500Y-84075869D02*
X128046815Y-84043185D01*
X127856098Y-83915751D01*
X127880803Y-83856256D01*
X127881050Y-83572079D01*
X128079500Y-83373630D01*
X128079500Y-84075869D01*
X128079500Y-84075869D01*
G37*
X128079500Y-84075869D02*
X128046815Y-84043185D01*
X127856098Y-83915751D01*
X127880803Y-83856256D01*
X127881050Y-83572079D01*
X128079500Y-83373630D01*
X128079500Y-84075869D01*
G36*
X128086271Y-77562958D02*
X128079500Y-77597000D01*
X128079500Y-79376870D01*
X128001665Y-79299035D01*
X128007803Y-79284256D01*
X128008197Y-78832725D01*
X127835767Y-78415414D01*
X127535054Y-78114175D01*
X128086271Y-77562958D01*
X128086271Y-77562958D01*
G37*
X128086271Y-77562958D02*
X128079500Y-77597000D01*
X128079500Y-79376870D01*
X128001665Y-79299035D01*
X128007803Y-79284256D01*
X128008197Y-78832725D01*
X127835767Y-78415414D01*
X127535054Y-78114175D01*
X128086271Y-77562958D01*
G36*
X134811191Y-95478875D02*
X134654455Y-95635611D01*
X134601140Y-95599623D01*
X134351500Y-95549560D01*
X133151500Y-95549560D01*
X132909377Y-95596537D01*
X132696573Y-95736327D01*
X132653162Y-95800637D01*
X132511198Y-95658673D01*
X132277809Y-95562000D01*
X131837250Y-95562000D01*
X131678500Y-95720750D01*
X131678500Y-96520000D01*
X131698500Y-96520000D01*
X131698500Y-96774000D01*
X131678500Y-96774000D01*
X131678500Y-97573250D01*
X131837250Y-97732000D01*
X132277809Y-97732000D01*
X132511198Y-97635327D01*
X132652676Y-97493849D01*
X132690827Y-97551927D01*
X132901860Y-97694377D01*
X133151500Y-97744440D01*
X133578927Y-97744440D01*
X133548697Y-97817244D01*
X133548303Y-98268775D01*
X133716467Y-98675763D01*
X133413500Y-98615500D01*
X131699000Y-98615500D01*
X131383095Y-98678337D01*
X131115283Y-98857283D01*
X130936337Y-99125095D01*
X130936104Y-99126265D01*
X130429000Y-99633370D01*
X130429000Y-99155968D01*
X130536157Y-98997220D01*
X130586220Y-98747580D01*
X130586220Y-97950020D01*
X130539243Y-97707897D01*
X130468049Y-97599518D01*
X130503489Y-97547015D01*
X130591802Y-97635327D01*
X130825191Y-97732000D01*
X131265750Y-97732000D01*
X131424500Y-97573250D01*
X131424500Y-96774000D01*
X131404500Y-96774000D01*
X131404500Y-96520000D01*
X131424500Y-96520000D01*
X131424500Y-95720750D01*
X131424500Y-95287250D01*
X131424500Y-94488000D01*
X130475250Y-94488000D01*
X130316500Y-94646750D01*
X130316500Y-94684691D01*
X130316500Y-94937310D01*
X130413173Y-95170699D01*
X130591802Y-95349327D01*
X130825191Y-95446000D01*
X131265750Y-95446000D01*
X131424500Y-95287250D01*
X131424500Y-95720750D01*
X131265750Y-95562000D01*
X130825191Y-95562000D01*
X130591802Y-95658673D01*
X130413173Y-95837301D01*
X130391856Y-95888764D01*
X130361329Y-95735295D01*
X130361329Y-95735294D01*
X130168618Y-95446882D01*
X129773840Y-95052104D01*
X129773840Y-94022800D01*
X129726863Y-93780677D01*
X129587073Y-93567873D01*
X129520871Y-93523186D01*
X129581327Y-93483473D01*
X129705505Y-93299508D01*
X129948244Y-93400303D01*
X130399775Y-93400697D01*
X130817086Y-93228267D01*
X131136645Y-92909265D01*
X131309803Y-92492256D01*
X131310197Y-92040725D01*
X131224548Y-91833440D01*
X132080000Y-91833440D01*
X132322123Y-91786463D01*
X132534927Y-91646673D01*
X132677377Y-91435640D01*
X132715000Y-91248032D01*
X132715000Y-91312310D01*
X132811673Y-91545699D01*
X132990302Y-91724327D01*
X133119898Y-91778007D01*
X132907094Y-91820337D01*
X132639283Y-91999283D01*
X132619095Y-92019470D01*
X132426725Y-92019303D01*
X132009414Y-92191733D01*
X131689855Y-92510735D01*
X131516697Y-92927744D01*
X131516393Y-93276000D01*
X131424498Y-93276000D01*
X131424498Y-93434748D01*
X131265750Y-93276000D01*
X130825191Y-93276000D01*
X130591802Y-93372673D01*
X130413173Y-93551301D01*
X130316500Y-93784690D01*
X130316500Y-94037309D01*
X130316500Y-94075250D01*
X130475250Y-94234000D01*
X131424500Y-94234000D01*
X131424500Y-94214000D01*
X131678500Y-94214000D01*
X131678500Y-94234000D01*
X131698500Y-94234000D01*
X131698500Y-94488000D01*
X131678500Y-94488000D01*
X131678500Y-95287250D01*
X131837250Y-95446000D01*
X132277809Y-95446000D01*
X132511198Y-95349327D01*
X132652676Y-95207849D01*
X132690827Y-95265927D01*
X132901860Y-95408377D01*
X133151500Y-95458440D01*
X134351500Y-95458440D01*
X134567627Y-95416506D01*
X134597294Y-95436329D01*
X134811191Y-95478875D01*
X134811191Y-95478875D01*
G37*
X134811191Y-95478875D02*
X134654455Y-95635611D01*
X134601140Y-95599623D01*
X134351500Y-95549560D01*
X133151500Y-95549560D01*
X132909377Y-95596537D01*
X132696573Y-95736327D01*
X132653162Y-95800637D01*
X132511198Y-95658673D01*
X132277809Y-95562000D01*
X131837250Y-95562000D01*
X131678500Y-95720750D01*
X131678500Y-96520000D01*
X131698500Y-96520000D01*
X131698500Y-96774000D01*
X131678500Y-96774000D01*
X131678500Y-97573250D01*
X131837250Y-97732000D01*
X132277809Y-97732000D01*
X132511198Y-97635327D01*
X132652676Y-97493849D01*
X132690827Y-97551927D01*
X132901860Y-97694377D01*
X133151500Y-97744440D01*
X133578927Y-97744440D01*
X133548697Y-97817244D01*
X133548303Y-98268775D01*
X133716467Y-98675763D01*
X133413500Y-98615500D01*
X131699000Y-98615500D01*
X131383095Y-98678337D01*
X131115283Y-98857283D01*
X130936337Y-99125095D01*
X130936104Y-99126265D01*
X130429000Y-99633370D01*
X130429000Y-99155968D01*
X130536157Y-98997220D01*
X130586220Y-98747580D01*
X130586220Y-97950020D01*
X130539243Y-97707897D01*
X130468049Y-97599518D01*
X130503489Y-97547015D01*
X130591802Y-97635327D01*
X130825191Y-97732000D01*
X131265750Y-97732000D01*
X131424500Y-97573250D01*
X131424500Y-96774000D01*
X131404500Y-96774000D01*
X131404500Y-96520000D01*
X131424500Y-96520000D01*
X131424500Y-95720750D01*
X131424500Y-95287250D01*
X131424500Y-94488000D01*
X130475250Y-94488000D01*
X130316500Y-94646750D01*
X130316500Y-94684691D01*
X130316500Y-94937310D01*
X130413173Y-95170699D01*
X130591802Y-95349327D01*
X130825191Y-95446000D01*
X131265750Y-95446000D01*
X131424500Y-95287250D01*
X131424500Y-95720750D01*
X131265750Y-95562000D01*
X130825191Y-95562000D01*
X130591802Y-95658673D01*
X130413173Y-95837301D01*
X130391856Y-95888764D01*
X130361329Y-95735295D01*
X130361329Y-95735294D01*
X130168618Y-95446882D01*
X129773840Y-95052104D01*
X129773840Y-94022800D01*
X129726863Y-93780677D01*
X129587073Y-93567873D01*
X129520871Y-93523186D01*
X129581327Y-93483473D01*
X129705505Y-93299508D01*
X129948244Y-93400303D01*
X130399775Y-93400697D01*
X130817086Y-93228267D01*
X131136645Y-92909265D01*
X131309803Y-92492256D01*
X131310197Y-92040725D01*
X131224548Y-91833440D01*
X132080000Y-91833440D01*
X132322123Y-91786463D01*
X132534927Y-91646673D01*
X132677377Y-91435640D01*
X132715000Y-91248032D01*
X132715000Y-91312310D01*
X132811673Y-91545699D01*
X132990302Y-91724327D01*
X133119898Y-91778007D01*
X132907094Y-91820337D01*
X132639283Y-91999283D01*
X132619095Y-92019470D01*
X132426725Y-92019303D01*
X132009414Y-92191733D01*
X131689855Y-92510735D01*
X131516697Y-92927744D01*
X131516393Y-93276000D01*
X131424498Y-93276000D01*
X131424498Y-93434748D01*
X131265750Y-93276000D01*
X130825191Y-93276000D01*
X130591802Y-93372673D01*
X130413173Y-93551301D01*
X130316500Y-93784690D01*
X130316500Y-94037309D01*
X130316500Y-94075250D01*
X130475250Y-94234000D01*
X131424500Y-94234000D01*
X131424500Y-94214000D01*
X131678500Y-94214000D01*
X131678500Y-94234000D01*
X131698500Y-94234000D01*
X131698500Y-94488000D01*
X131678500Y-94488000D01*
X131678500Y-95287250D01*
X131837250Y-95446000D01*
X132277809Y-95446000D01*
X132511198Y-95349327D01*
X132652676Y-95207849D01*
X132690827Y-95265927D01*
X132901860Y-95408377D01*
X133151500Y-95458440D01*
X134351500Y-95458440D01*
X134567627Y-95416506D01*
X134597294Y-95436329D01*
X134811191Y-95478875D01*
G36*
X137834096Y-84481332D02*
X137675382Y-84587382D01*
X136321800Y-85940964D01*
X136321800Y-84708310D01*
X136321800Y-84455691D01*
X136321800Y-83851750D01*
X136163050Y-83693000D01*
X133985000Y-83693000D01*
X133985000Y-85058250D01*
X134143750Y-85217000D01*
X135813109Y-85217000D01*
X136046498Y-85120327D01*
X136225127Y-84941699D01*
X136321800Y-84708310D01*
X136321800Y-85940964D01*
X135515382Y-86747382D01*
X135322671Y-87035794D01*
X135255000Y-87376000D01*
X135255000Y-88644764D01*
X135181073Y-88693327D01*
X135038623Y-88904360D01*
X135001000Y-89091967D01*
X135001000Y-89027690D01*
X134904327Y-88794301D01*
X134725698Y-88615673D01*
X134492309Y-88519000D01*
X134143750Y-88519000D01*
X133985000Y-88677750D01*
X133985000Y-90043000D01*
X134005000Y-90043000D01*
X134005000Y-90297000D01*
X133985000Y-90297000D01*
X133985000Y-90317000D01*
X133731000Y-90317000D01*
X133731000Y-90297000D01*
X133711000Y-90297000D01*
X133711000Y-90043000D01*
X133731000Y-90043000D01*
X133731000Y-88677750D01*
X133572250Y-88519000D01*
X133223691Y-88519000D01*
X132990302Y-88615673D01*
X132811673Y-88794301D01*
X132715000Y-89027690D01*
X132715000Y-89089883D01*
X132680463Y-88911877D01*
X132540673Y-88699073D01*
X132397500Y-88602429D01*
X132397500Y-87249005D01*
X132397500Y-87249000D01*
X132397501Y-87249000D01*
X132334663Y-86933095D01*
X132155717Y-86665284D01*
X132155717Y-86665283D01*
X132155713Y-86665280D01*
X131762500Y-86272066D01*
X131762500Y-85158848D01*
X131902891Y-85217000D01*
X133572250Y-85217000D01*
X133731000Y-85058250D01*
X133731000Y-83693000D01*
X133711000Y-83693000D01*
X133711000Y-83439000D01*
X133731000Y-83439000D01*
X133731000Y-83419000D01*
X133985000Y-83419000D01*
X133985000Y-83439000D01*
X136163050Y-83439000D01*
X136321800Y-83280250D01*
X136321800Y-82676309D01*
X136321800Y-82423690D01*
X136225127Y-82190301D01*
X136216265Y-82181440D01*
X136652000Y-82181440D01*
X136894123Y-82134463D01*
X137106927Y-81994673D01*
X137249377Y-81783640D01*
X137299440Y-81534000D01*
X137299440Y-79502000D01*
X137252463Y-79259877D01*
X137112673Y-79047073D01*
X137033000Y-78993292D01*
X137033000Y-78630622D01*
X137123744Y-78668303D01*
X137228158Y-78668394D01*
X137414000Y-78854236D01*
X137414000Y-83693000D01*
X137481671Y-84033206D01*
X137674382Y-84321618D01*
X137834096Y-84481332D01*
X137834096Y-84481332D01*
G37*
X137834096Y-84481332D02*
X137675382Y-84587382D01*
X136321800Y-85940964D01*
X136321800Y-84708310D01*
X136321800Y-84455691D01*
X136321800Y-83851750D01*
X136163050Y-83693000D01*
X133985000Y-83693000D01*
X133985000Y-85058250D01*
X134143750Y-85217000D01*
X135813109Y-85217000D01*
X136046498Y-85120327D01*
X136225127Y-84941699D01*
X136321800Y-84708310D01*
X136321800Y-85940964D01*
X135515382Y-86747382D01*
X135322671Y-87035794D01*
X135255000Y-87376000D01*
X135255000Y-88644764D01*
X135181073Y-88693327D01*
X135038623Y-88904360D01*
X135001000Y-89091967D01*
X135001000Y-89027690D01*
X134904327Y-88794301D01*
X134725698Y-88615673D01*
X134492309Y-88519000D01*
X134143750Y-88519000D01*
X133985000Y-88677750D01*
X133985000Y-90043000D01*
X134005000Y-90043000D01*
X134005000Y-90297000D01*
X133985000Y-90297000D01*
X133985000Y-90317000D01*
X133731000Y-90317000D01*
X133731000Y-90297000D01*
X133711000Y-90297000D01*
X133711000Y-90043000D01*
X133731000Y-90043000D01*
X133731000Y-88677750D01*
X133572250Y-88519000D01*
X133223691Y-88519000D01*
X132990302Y-88615673D01*
X132811673Y-88794301D01*
X132715000Y-89027690D01*
X132715000Y-89089883D01*
X132680463Y-88911877D01*
X132540673Y-88699073D01*
X132397500Y-88602429D01*
X132397500Y-87249005D01*
X132397500Y-87249000D01*
X132397501Y-87249000D01*
X132334663Y-86933095D01*
X132155717Y-86665284D01*
X132155717Y-86665283D01*
X132155713Y-86665280D01*
X131762500Y-86272066D01*
X131762500Y-85158848D01*
X131902891Y-85217000D01*
X133572250Y-85217000D01*
X133731000Y-85058250D01*
X133731000Y-83693000D01*
X133711000Y-83693000D01*
X133711000Y-83439000D01*
X133731000Y-83439000D01*
X133731000Y-83419000D01*
X133985000Y-83419000D01*
X133985000Y-83439000D01*
X136163050Y-83439000D01*
X136321800Y-83280250D01*
X136321800Y-82676309D01*
X136321800Y-82423690D01*
X136225127Y-82190301D01*
X136216265Y-82181440D01*
X136652000Y-82181440D01*
X136894123Y-82134463D01*
X137106927Y-81994673D01*
X137249377Y-81783640D01*
X137299440Y-81534000D01*
X137299440Y-79502000D01*
X137252463Y-79259877D01*
X137112673Y-79047073D01*
X137033000Y-78993292D01*
X137033000Y-78630622D01*
X137123744Y-78668303D01*
X137228158Y-78668394D01*
X137414000Y-78854236D01*
X137414000Y-83693000D01*
X137481671Y-84033206D01*
X137674382Y-84321618D01*
X137834096Y-84481332D01*
G36*
X164315000Y-106315000D02*
X158699200Y-106315000D01*
X158699200Y-105650030D01*
X158699200Y-104902000D01*
X158699200Y-104648000D01*
X158699200Y-103899970D01*
X158540450Y-103741220D01*
X158301111Y-103741220D01*
X158067722Y-103837893D01*
X157889093Y-104016521D01*
X157792420Y-104249910D01*
X157792420Y-104489250D01*
X157951170Y-104648000D01*
X158699200Y-104648000D01*
X158699200Y-104902000D01*
X157951170Y-104902000D01*
X157792420Y-105060750D01*
X157792420Y-105300090D01*
X157889093Y-105533479D01*
X158067722Y-105712107D01*
X158301111Y-105808780D01*
X158540450Y-105808780D01*
X158699200Y-105650030D01*
X158699200Y-106315000D01*
X153360933Y-106315000D01*
X154253713Y-105422219D01*
X154253717Y-105422217D01*
X154253717Y-105422216D01*
X154432663Y-105154405D01*
X154495500Y-104838500D01*
X154495501Y-104838500D01*
X154495500Y-104838494D01*
X154495500Y-103194928D01*
X154940000Y-103283345D01*
X155513489Y-103169271D01*
X155999670Y-102844415D01*
X156324526Y-102358234D01*
X156438600Y-101784745D01*
X156438600Y-101415255D01*
X156324526Y-100841766D01*
X155999670Y-100355585D01*
X155513489Y-100030729D01*
X154940000Y-99916655D01*
X154495500Y-100005071D01*
X154495500Y-99872736D01*
X154974258Y-99393978D01*
X155166969Y-99105566D01*
X155234640Y-98765360D01*
X155234640Y-98004370D01*
X156095700Y-98004370D01*
X156337823Y-97957393D01*
X156550627Y-97817603D01*
X156693077Y-97606570D01*
X156743140Y-97356930D01*
X156743140Y-95556070D01*
X156696163Y-95313947D01*
X156556373Y-95101143D01*
X156345340Y-94958693D01*
X156095700Y-94908630D01*
X155234640Y-94908630D01*
X155234640Y-93766640D01*
X155166969Y-93426435D01*
X155166969Y-93426434D01*
X154974258Y-93138022D01*
X153092118Y-91255882D01*
X152803706Y-91063171D01*
X152463500Y-90995500D01*
X146494500Y-90995500D01*
X141871440Y-90995500D01*
X141871440Y-89432400D01*
X141824463Y-89190277D01*
X141684673Y-88977473D01*
X141473640Y-88835023D01*
X141435037Y-88827281D01*
X141452415Y-88815670D01*
X141777271Y-88329489D01*
X141891345Y-87756000D01*
X141777271Y-87182511D01*
X141452415Y-86696330D01*
X141137634Y-86486000D01*
X141452415Y-86275670D01*
X141777271Y-85789489D01*
X141891345Y-85216000D01*
X141777271Y-84642511D01*
X141452415Y-84156330D01*
X141137634Y-83946000D01*
X141452415Y-83735670D01*
X141608882Y-83501500D01*
X148400500Y-83501500D01*
X148716405Y-83438663D01*
X148716406Y-83438663D01*
X148984217Y-83259717D01*
X153682213Y-78561719D01*
X153682216Y-78561717D01*
X153682217Y-78561717D01*
X153789486Y-78401175D01*
X153861163Y-78293906D01*
X153861163Y-78293905D01*
X153924000Y-77978000D01*
X153924000Y-76204864D01*
X154042803Y-75918756D01*
X154043197Y-75467225D01*
X153870767Y-75049914D01*
X153551765Y-74730355D01*
X153509498Y-74712804D01*
X153656162Y-74493307D01*
X153656162Y-74493306D01*
X153668992Y-74428799D01*
X153733499Y-74104500D01*
X153733500Y-74104500D01*
X153733500Y-73215500D01*
X159131000Y-73215500D01*
X159131000Y-73215499D01*
X159455299Y-73150992D01*
X159519806Y-73138162D01*
X159519807Y-73138162D01*
X159849420Y-72917920D01*
X162805840Y-69961500D01*
X163855400Y-69961500D01*
X164097523Y-69914523D01*
X164310327Y-69774733D01*
X164315000Y-69767810D01*
X164315000Y-73535426D01*
X163759276Y-72978732D01*
X162754412Y-72561476D01*
X161666362Y-72560526D01*
X160660771Y-72976028D01*
X159890732Y-73744724D01*
X159473476Y-74749588D01*
X159472526Y-75837638D01*
X159888028Y-76843229D01*
X160656724Y-77613268D01*
X161661588Y-78030524D01*
X162749638Y-78031474D01*
X163755229Y-77615972D01*
X164315000Y-77057177D01*
X164315000Y-88535426D01*
X163759276Y-87978732D01*
X162754412Y-87561476D01*
X161666362Y-87560526D01*
X160660771Y-87976028D01*
X159890732Y-88744724D01*
X159473476Y-89749588D01*
X159472526Y-90837638D01*
X159888028Y-91843229D01*
X160656724Y-92613268D01*
X161661588Y-93030524D01*
X162749638Y-93031474D01*
X163755229Y-92615972D01*
X164315000Y-92057177D01*
X164315000Y-95660464D01*
X163938643Y-95283449D01*
X163374670Y-95049267D01*
X162764009Y-95048735D01*
X162199629Y-95281932D01*
X161767449Y-95713357D01*
X161729420Y-95804941D01*
X161729420Y-95682379D01*
X161729420Y-95429760D01*
X161632747Y-95196371D01*
X161454118Y-95017743D01*
X161220729Y-94921070D01*
X159630110Y-94921070D01*
X159471360Y-95079820D01*
X159471360Y-96329500D01*
X159491360Y-96329500D01*
X159491360Y-96583500D01*
X159471360Y-96583500D01*
X159471360Y-97833180D01*
X159630110Y-97991930D01*
X161220729Y-97991930D01*
X161454118Y-97895257D01*
X161632747Y-97716629D01*
X161729420Y-97483240D01*
X161729420Y-97364005D01*
X161765932Y-97452371D01*
X161967831Y-97654623D01*
X161852176Y-97770077D01*
X161633250Y-98297309D01*
X161632752Y-98868187D01*
X161850757Y-99395800D01*
X162038603Y-99583974D01*
X161852176Y-99770077D01*
X161633250Y-100297309D01*
X161632752Y-100868187D01*
X161850757Y-101395800D01*
X162038603Y-101583974D01*
X161852176Y-101770077D01*
X161633250Y-102297309D01*
X161632752Y-102868187D01*
X161850757Y-103395800D01*
X161967954Y-103513201D01*
X161767449Y-103713357D01*
X161605440Y-104103518D01*
X161605440Y-102939000D01*
X161605440Y-102039000D01*
X161558463Y-101796877D01*
X161418673Y-101584073D01*
X161207640Y-101441623D01*
X160958000Y-101391560D01*
X159758000Y-101391560D01*
X159515877Y-101438537D01*
X159303073Y-101578327D01*
X159258386Y-101644528D01*
X159218673Y-101584073D01*
X159047000Y-101468191D01*
X159047000Y-101163236D01*
X159761128Y-100449107D01*
X159863775Y-100449197D01*
X160281086Y-100276767D01*
X160600645Y-99957765D01*
X160773803Y-99540756D01*
X160774197Y-99089225D01*
X160601767Y-98671914D01*
X160282765Y-98352355D01*
X159865756Y-98179197D01*
X159414225Y-98178803D01*
X159217360Y-98260146D01*
X159217360Y-97833180D01*
X159217360Y-96583500D01*
X159217360Y-96329500D01*
X159217360Y-95079820D01*
X159058610Y-94921070D01*
X157467991Y-94921070D01*
X157234602Y-95017743D01*
X157055973Y-95196371D01*
X156959300Y-95429760D01*
X156959300Y-95682379D01*
X156959300Y-96170750D01*
X157118050Y-96329500D01*
X159217360Y-96329500D01*
X159217360Y-96583500D01*
X157118050Y-96583500D01*
X156959300Y-96742250D01*
X156959300Y-97230621D01*
X156959300Y-97483240D01*
X157055973Y-97716629D01*
X157234602Y-97895257D01*
X157467991Y-97991930D01*
X159058610Y-97991930D01*
X159217360Y-97833180D01*
X159217360Y-98260146D01*
X158996914Y-98351233D01*
X158677355Y-98670235D01*
X158504197Y-99087244D01*
X158504105Y-99191658D01*
X157529382Y-100166382D01*
X157336671Y-100454794D01*
X157269000Y-100795000D01*
X157269000Y-101469330D01*
X157103073Y-101578327D01*
X156960623Y-101789360D01*
X156910560Y-102039000D01*
X156910560Y-102939000D01*
X156957537Y-103181123D01*
X157097327Y-103393927D01*
X157308360Y-103536377D01*
X157558000Y-103586440D01*
X158758000Y-103586440D01*
X159000123Y-103539463D01*
X159212927Y-103399673D01*
X159257613Y-103333471D01*
X159297327Y-103393927D01*
X159508360Y-103536377D01*
X159532500Y-103541218D01*
X159532500Y-103816280D01*
X159351289Y-103741220D01*
X159111950Y-103741220D01*
X158953200Y-103899970D01*
X158953200Y-104648000D01*
X158973200Y-104648000D01*
X158973200Y-104902000D01*
X158953200Y-104902000D01*
X158953200Y-105650030D01*
X159111950Y-105808780D01*
X159351289Y-105808780D01*
X159584678Y-105712107D01*
X159586379Y-105710405D01*
X159676380Y-105771157D01*
X159926020Y-105821220D01*
X160723580Y-105821220D01*
X160965703Y-105774243D01*
X161178507Y-105634453D01*
X161320957Y-105423420D01*
X161371020Y-105173780D01*
X161371020Y-104376220D01*
X161324043Y-104134097D01*
X161184253Y-103921293D01*
X161183500Y-103920784D01*
X161183500Y-103542688D01*
X161200123Y-103539463D01*
X161412927Y-103399673D01*
X161555377Y-103188640D01*
X161605440Y-102939000D01*
X161605440Y-104103518D01*
X161533267Y-104277330D01*
X161532735Y-104887991D01*
X161765932Y-105452371D01*
X162197357Y-105884551D01*
X162761330Y-106118733D01*
X163371991Y-106119265D01*
X163936371Y-105886068D01*
X164315000Y-105508100D01*
X164315000Y-106315000D01*
X164315000Y-106315000D01*
G37*
X164315000Y-106315000D02*
X158699200Y-106315000D01*
X158699200Y-105650030D01*
X158699200Y-104902000D01*
X158699200Y-104648000D01*
X158699200Y-103899970D01*
X158540450Y-103741220D01*
X158301111Y-103741220D01*
X158067722Y-103837893D01*
X157889093Y-104016521D01*
X157792420Y-104249910D01*
X157792420Y-104489250D01*
X157951170Y-104648000D01*
X158699200Y-104648000D01*
X158699200Y-104902000D01*
X157951170Y-104902000D01*
X157792420Y-105060750D01*
X157792420Y-105300090D01*
X157889093Y-105533479D01*
X158067722Y-105712107D01*
X158301111Y-105808780D01*
X158540450Y-105808780D01*
X158699200Y-105650030D01*
X158699200Y-106315000D01*
X153360933Y-106315000D01*
X154253713Y-105422219D01*
X154253717Y-105422217D01*
X154253717Y-105422216D01*
X154432663Y-105154405D01*
X154495500Y-104838500D01*
X154495501Y-104838500D01*
X154495500Y-104838494D01*
X154495500Y-103194928D01*
X154940000Y-103283345D01*
X155513489Y-103169271D01*
X155999670Y-102844415D01*
X156324526Y-102358234D01*
X156438600Y-101784745D01*
X156438600Y-101415255D01*
X156324526Y-100841766D01*
X155999670Y-100355585D01*
X155513489Y-100030729D01*
X154940000Y-99916655D01*
X154495500Y-100005071D01*
X154495500Y-99872736D01*
X154974258Y-99393978D01*
X155166969Y-99105566D01*
X155234640Y-98765360D01*
X155234640Y-98004370D01*
X156095700Y-98004370D01*
X156337823Y-97957393D01*
X156550627Y-97817603D01*
X156693077Y-97606570D01*
X156743140Y-97356930D01*
X156743140Y-95556070D01*
X156696163Y-95313947D01*
X156556373Y-95101143D01*
X156345340Y-94958693D01*
X156095700Y-94908630D01*
X155234640Y-94908630D01*
X155234640Y-93766640D01*
X155166969Y-93426435D01*
X155166969Y-93426434D01*
X154974258Y-93138022D01*
X153092118Y-91255882D01*
X152803706Y-91063171D01*
X152463500Y-90995500D01*
X146494500Y-90995500D01*
X141871440Y-90995500D01*
X141871440Y-89432400D01*
X141824463Y-89190277D01*
X141684673Y-88977473D01*
X141473640Y-88835023D01*
X141435037Y-88827281D01*
X141452415Y-88815670D01*
X141777271Y-88329489D01*
X141891345Y-87756000D01*
X141777271Y-87182511D01*
X141452415Y-86696330D01*
X141137634Y-86486000D01*
X141452415Y-86275670D01*
X141777271Y-85789489D01*
X141891345Y-85216000D01*
X141777271Y-84642511D01*
X141452415Y-84156330D01*
X141137634Y-83946000D01*
X141452415Y-83735670D01*
X141608882Y-83501500D01*
X148400500Y-83501500D01*
X148716405Y-83438663D01*
X148716406Y-83438663D01*
X148984217Y-83259717D01*
X153682213Y-78561719D01*
X153682216Y-78561717D01*
X153682217Y-78561717D01*
X153789486Y-78401175D01*
X153861163Y-78293906D01*
X153861163Y-78293905D01*
X153924000Y-77978000D01*
X153924000Y-76204864D01*
X154042803Y-75918756D01*
X154043197Y-75467225D01*
X153870767Y-75049914D01*
X153551765Y-74730355D01*
X153509498Y-74712804D01*
X153656162Y-74493307D01*
X153656162Y-74493306D01*
X153668992Y-74428799D01*
X153733499Y-74104500D01*
X153733500Y-74104500D01*
X153733500Y-73215500D01*
X159131000Y-73215500D01*
X159131000Y-73215499D01*
X159455299Y-73150992D01*
X159519806Y-73138162D01*
X159519807Y-73138162D01*
X159849420Y-72917920D01*
X162805840Y-69961500D01*
X163855400Y-69961500D01*
X164097523Y-69914523D01*
X164310327Y-69774733D01*
X164315000Y-69767810D01*
X164315000Y-73535426D01*
X163759276Y-72978732D01*
X162754412Y-72561476D01*
X161666362Y-72560526D01*
X160660771Y-72976028D01*
X159890732Y-73744724D01*
X159473476Y-74749588D01*
X159472526Y-75837638D01*
X159888028Y-76843229D01*
X160656724Y-77613268D01*
X161661588Y-78030524D01*
X162749638Y-78031474D01*
X163755229Y-77615972D01*
X164315000Y-77057177D01*
X164315000Y-88535426D01*
X163759276Y-87978732D01*
X162754412Y-87561476D01*
X161666362Y-87560526D01*
X160660771Y-87976028D01*
X159890732Y-88744724D01*
X159473476Y-89749588D01*
X159472526Y-90837638D01*
X159888028Y-91843229D01*
X160656724Y-92613268D01*
X161661588Y-93030524D01*
X162749638Y-93031474D01*
X163755229Y-92615972D01*
X164315000Y-92057177D01*
X164315000Y-95660464D01*
X163938643Y-95283449D01*
X163374670Y-95049267D01*
X162764009Y-95048735D01*
X162199629Y-95281932D01*
X161767449Y-95713357D01*
X161729420Y-95804941D01*
X161729420Y-95682379D01*
X161729420Y-95429760D01*
X161632747Y-95196371D01*
X161454118Y-95017743D01*
X161220729Y-94921070D01*
X159630110Y-94921070D01*
X159471360Y-95079820D01*
X159471360Y-96329500D01*
X159491360Y-96329500D01*
X159491360Y-96583500D01*
X159471360Y-96583500D01*
X159471360Y-97833180D01*
X159630110Y-97991930D01*
X161220729Y-97991930D01*
X161454118Y-97895257D01*
X161632747Y-97716629D01*
X161729420Y-97483240D01*
X161729420Y-97364005D01*
X161765932Y-97452371D01*
X161967831Y-97654623D01*
X161852176Y-97770077D01*
X161633250Y-98297309D01*
X161632752Y-98868187D01*
X161850757Y-99395800D01*
X162038603Y-99583974D01*
X161852176Y-99770077D01*
X161633250Y-100297309D01*
X161632752Y-100868187D01*
X161850757Y-101395800D01*
X162038603Y-101583974D01*
X161852176Y-101770077D01*
X161633250Y-102297309D01*
X161632752Y-102868187D01*
X161850757Y-103395800D01*
X161967954Y-103513201D01*
X161767449Y-103713357D01*
X161605440Y-104103518D01*
X161605440Y-102939000D01*
X161605440Y-102039000D01*
X161558463Y-101796877D01*
X161418673Y-101584073D01*
X161207640Y-101441623D01*
X160958000Y-101391560D01*
X159758000Y-101391560D01*
X159515877Y-101438537D01*
X159303073Y-101578327D01*
X159258386Y-101644528D01*
X159218673Y-101584073D01*
X159047000Y-101468191D01*
X159047000Y-101163236D01*
X159761128Y-100449107D01*
X159863775Y-100449197D01*
X160281086Y-100276767D01*
X160600645Y-99957765D01*
X160773803Y-99540756D01*
X160774197Y-99089225D01*
X160601767Y-98671914D01*
X160282765Y-98352355D01*
X159865756Y-98179197D01*
X159414225Y-98178803D01*
X159217360Y-98260146D01*
X159217360Y-97833180D01*
X159217360Y-96583500D01*
X159217360Y-96329500D01*
X159217360Y-95079820D01*
X159058610Y-94921070D01*
X157467991Y-94921070D01*
X157234602Y-95017743D01*
X157055973Y-95196371D01*
X156959300Y-95429760D01*
X156959300Y-95682379D01*
X156959300Y-96170750D01*
X157118050Y-96329500D01*
X159217360Y-96329500D01*
X159217360Y-96583500D01*
X157118050Y-96583500D01*
X156959300Y-96742250D01*
X156959300Y-97230621D01*
X156959300Y-97483240D01*
X157055973Y-97716629D01*
X157234602Y-97895257D01*
X157467991Y-97991930D01*
X159058610Y-97991930D01*
X159217360Y-97833180D01*
X159217360Y-98260146D01*
X158996914Y-98351233D01*
X158677355Y-98670235D01*
X158504197Y-99087244D01*
X158504105Y-99191658D01*
X157529382Y-100166382D01*
X157336671Y-100454794D01*
X157269000Y-100795000D01*
X157269000Y-101469330D01*
X157103073Y-101578327D01*
X156960623Y-101789360D01*
X156910560Y-102039000D01*
X156910560Y-102939000D01*
X156957537Y-103181123D01*
X157097327Y-103393927D01*
X157308360Y-103536377D01*
X157558000Y-103586440D01*
X158758000Y-103586440D01*
X159000123Y-103539463D01*
X159212927Y-103399673D01*
X159257613Y-103333471D01*
X159297327Y-103393927D01*
X159508360Y-103536377D01*
X159532500Y-103541218D01*
X159532500Y-103816280D01*
X159351289Y-103741220D01*
X159111950Y-103741220D01*
X158953200Y-103899970D01*
X158953200Y-104648000D01*
X158973200Y-104648000D01*
X158973200Y-104902000D01*
X158953200Y-104902000D01*
X158953200Y-105650030D01*
X159111950Y-105808780D01*
X159351289Y-105808780D01*
X159584678Y-105712107D01*
X159586379Y-105710405D01*
X159676380Y-105771157D01*
X159926020Y-105821220D01*
X160723580Y-105821220D01*
X160965703Y-105774243D01*
X161178507Y-105634453D01*
X161320957Y-105423420D01*
X161371020Y-105173780D01*
X161371020Y-104376220D01*
X161324043Y-104134097D01*
X161184253Y-103921293D01*
X161183500Y-103920784D01*
X161183500Y-103542688D01*
X161200123Y-103539463D01*
X161412927Y-103399673D01*
X161555377Y-103188640D01*
X161605440Y-102939000D01*
X161605440Y-104103518D01*
X161533267Y-104277330D01*
X161532735Y-104887991D01*
X161765932Y-105452371D01*
X162197357Y-105884551D01*
X162761330Y-106118733D01*
X163371991Y-106119265D01*
X163936371Y-105886068D01*
X164315000Y-105508100D01*
X164315000Y-106315000D01*
M02*
