G04 #@! TF.FileFunction,Soldermask,Top*
%FSLAX46Y46*%
G04 Gerber Fmt 4.6, Leading zero omitted, Abs format (unit mm)*
G04 Created by KiCad (PCBNEW (2015-01-16 BZR 5376)-product) date 8/3/2015 4:30:31 PM*
%MOMM*%
G01*
G04 APERTURE LIST*
%ADD10C,0.100000*%
%ADD11R,3.500120X3.500120*%
%ADD12R,2.032000X1.727200*%
%ADD13O,2.032000X1.727200*%
%ADD14C,4.200000*%
%ADD15C,1.948180*%
%ADD16R,0.750000X1.200000*%
%ADD17R,3.500120X2.400300*%
%ADD18R,1.200000X0.750000*%
%ADD19R,0.797560X0.797560*%
%ADD20R,3.500120X1.800860*%
%ADD21R,3.657600X2.032000*%
%ADD22R,1.016000X2.032000*%
%ADD23R,1.200000X0.900000*%
%ADD24R,0.900000X1.200000*%
%ADD25R,2.000000X1.300000*%
%ADD26C,1.600000*%
%ADD27C,1.800000*%
%ADD28R,1.550000X0.600000*%
%ADD29C,1.000760*%
%ADD30R,2.000000X1.600000*%
%ADD31C,1.506220*%
%ADD32R,1.727200X2.032000*%
%ADD33O,1.727200X2.032000*%
G04 APERTURE END LIST*
D10*
X165000000Y-107000000D02*
X80000000Y-107000000D01*
X80000000Y-56000000D02*
X165000000Y-56000000D01*
X165000000Y-56000000D02*
X165000000Y-107000000D01*
X75000000Y-61000000D02*
X75000000Y-102000000D01*
X80000000Y-56000000D02*
G75*
G03X75000000Y-61000000I0J-5000000D01*
G01*
X75000000Y-102000000D02*
G75*
G03X80000000Y-107000000I5000000J0D01*
G01*
D11*
X156105860Y-67564000D03*
X162105340Y-67564000D03*
X159105600Y-62865000D03*
D12*
X140208000Y-90296000D03*
D13*
X140208000Y-87756000D03*
X140208000Y-85216000D03*
X140208000Y-82676000D03*
X140208000Y-80136000D03*
X140208000Y-77596000D03*
X140208000Y-75056000D03*
D14*
X162208000Y-90296000D03*
X162208000Y-75296000D03*
D15*
X106172000Y-72964040D03*
X106172000Y-92964000D03*
D16*
X105664000Y-68138000D03*
X105664000Y-70038000D03*
D10*
G36*
X112580150Y-67147180D02*
X112049820Y-66616850D01*
X112898348Y-65768322D01*
X113428678Y-66298652D01*
X112580150Y-67147180D01*
X112580150Y-67147180D01*
G37*
G36*
X113923652Y-65803678D02*
X113393322Y-65273348D01*
X114241850Y-64424820D01*
X114772180Y-64955150D01*
X113923652Y-65803678D01*
X113923652Y-65803678D01*
G37*
D16*
X105664000Y-76266000D03*
X105664000Y-78166000D03*
D10*
G36*
X110050850Y-68615820D02*
X110581180Y-69146150D01*
X109732652Y-69994678D01*
X109202322Y-69464348D01*
X110050850Y-68615820D01*
X110050850Y-68615820D01*
G37*
G36*
X108707348Y-69959322D02*
X109237678Y-70489652D01*
X108389150Y-71338180D01*
X107858820Y-70807850D01*
X108707348Y-69959322D01*
X108707348Y-69959322D01*
G37*
D17*
X143560800Y-67310000D03*
X150063200Y-67310000D03*
D16*
X106299000Y-83124000D03*
X106299000Y-85024000D03*
D17*
X131622800Y-67310000D03*
X138125200Y-67310000D03*
D18*
X134241500Y-92583000D03*
X136141500Y-92583000D03*
D16*
X106299000Y-89850000D03*
X106299000Y-87950000D03*
D19*
X98818700Y-64643000D03*
X100317300Y-64643000D03*
D20*
X154345640Y-96456500D03*
X159344360Y-96456500D03*
D19*
X158826200Y-104775000D03*
X160324800Y-104775000D03*
X121920000Y-98412300D03*
X121920000Y-96913700D03*
X124460000Y-98412300D03*
X124460000Y-96913700D03*
X127000000Y-98412300D03*
X127000000Y-96913700D03*
X129540000Y-98348800D03*
X129540000Y-96850200D03*
D21*
X133858000Y-73914000D03*
D22*
X133858000Y-80518000D03*
X136144000Y-80518000D03*
X131572000Y-80518000D03*
D21*
X133858000Y-83566000D03*
D22*
X133858000Y-90170000D03*
X136144000Y-90170000D03*
X131572000Y-90170000D03*
D23*
X92413000Y-64135000D03*
X90213000Y-64135000D03*
X90213000Y-66611500D03*
X92413000Y-66611500D03*
X90340000Y-74930000D03*
X92540000Y-74930000D03*
X90340000Y-83058000D03*
X92540000Y-83058000D03*
X90594000Y-91186000D03*
X92794000Y-91186000D03*
X160358000Y-102489000D03*
X158158000Y-102489000D03*
D24*
X121767600Y-92422800D03*
X121767600Y-94622800D03*
X124104400Y-92422800D03*
X124104400Y-94622800D03*
X126390400Y-92422800D03*
X126390400Y-94622800D03*
X128676400Y-92422800D03*
X128676400Y-94622800D03*
D23*
X133751500Y-94361000D03*
X131551500Y-94361000D03*
X133751500Y-96647000D03*
X131551500Y-96647000D03*
D25*
X95339000Y-71338000D03*
X95339000Y-66838000D03*
X103289000Y-66838000D03*
X103289000Y-71338000D03*
D26*
X163068000Y-98584000D03*
X163068000Y-100584000D03*
X163068000Y-102584000D03*
D27*
X163068000Y-104584000D03*
X163068000Y-96584000D03*
D25*
X95339000Y-79466000D03*
X95339000Y-74966000D03*
X103289000Y-74966000D03*
X103289000Y-79466000D03*
X95339000Y-87594000D03*
X95339000Y-83094000D03*
X103289000Y-83094000D03*
X103289000Y-87594000D03*
X95339000Y-95722000D03*
X95339000Y-91222000D03*
X103289000Y-91222000D03*
X103289000Y-95722000D03*
D10*
G36*
X118208621Y-75380311D02*
X118385398Y-75203534D01*
X119304637Y-76122773D01*
X119127860Y-76299550D01*
X118208621Y-75380311D01*
X118208621Y-75380311D01*
G37*
G36*
X117855068Y-75733864D02*
X118031845Y-75557087D01*
X118951084Y-76476326D01*
X118774307Y-76653103D01*
X117855068Y-75733864D01*
X117855068Y-75733864D01*
G37*
G36*
X117501514Y-76087418D02*
X117678291Y-75910641D01*
X118597530Y-76829880D01*
X118420753Y-77006657D01*
X117501514Y-76087418D01*
X117501514Y-76087418D01*
G37*
G36*
X117147961Y-76440971D02*
X117324738Y-76264194D01*
X118243977Y-77183433D01*
X118067200Y-77360210D01*
X117147961Y-76440971D01*
X117147961Y-76440971D01*
G37*
G36*
X116794408Y-76794524D02*
X116971185Y-76617747D01*
X117890424Y-77536986D01*
X117713647Y-77713763D01*
X116794408Y-76794524D01*
X116794408Y-76794524D01*
G37*
G36*
X116440854Y-77148078D02*
X116617631Y-76971301D01*
X117536870Y-77890540D01*
X117360093Y-78067317D01*
X116440854Y-77148078D01*
X116440854Y-77148078D01*
G37*
G36*
X116087301Y-77501631D02*
X116264078Y-77324854D01*
X117183317Y-78244093D01*
X117006540Y-78420870D01*
X116087301Y-77501631D01*
X116087301Y-77501631D01*
G37*
G36*
X115733747Y-77855185D02*
X115910524Y-77678408D01*
X116829763Y-78597647D01*
X116652986Y-78774424D01*
X115733747Y-77855185D01*
X115733747Y-77855185D01*
G37*
G36*
X115380194Y-78208738D02*
X115556971Y-78031961D01*
X116476210Y-78951200D01*
X116299433Y-79127977D01*
X115380194Y-78208738D01*
X115380194Y-78208738D01*
G37*
G36*
X115026641Y-78562291D02*
X115203418Y-78385514D01*
X116122657Y-79304753D01*
X115945880Y-79481530D01*
X115026641Y-78562291D01*
X115026641Y-78562291D01*
G37*
G36*
X114673087Y-78915845D02*
X114849864Y-78739068D01*
X115769103Y-79658307D01*
X115592326Y-79835084D01*
X114673087Y-78915845D01*
X114673087Y-78915845D01*
G37*
G36*
X114319534Y-79269398D02*
X114496311Y-79092621D01*
X115415550Y-80011860D01*
X115238773Y-80188637D01*
X114319534Y-79269398D01*
X114319534Y-79269398D01*
G37*
G36*
X114496311Y-82451379D02*
X114319534Y-82274602D01*
X115238773Y-81355363D01*
X115415550Y-81532140D01*
X114496311Y-82451379D01*
X114496311Y-82451379D01*
G37*
G36*
X114849864Y-82804932D02*
X114673087Y-82628155D01*
X115592326Y-81708916D01*
X115769103Y-81885693D01*
X114849864Y-82804932D01*
X114849864Y-82804932D01*
G37*
G36*
X115203418Y-83158486D02*
X115026641Y-82981709D01*
X115945880Y-82062470D01*
X116122657Y-82239247D01*
X115203418Y-83158486D01*
X115203418Y-83158486D01*
G37*
G36*
X115556971Y-83512039D02*
X115380194Y-83335262D01*
X116299433Y-82416023D01*
X116476210Y-82592800D01*
X115556971Y-83512039D01*
X115556971Y-83512039D01*
G37*
G36*
X115910524Y-83865592D02*
X115733747Y-83688815D01*
X116652986Y-82769576D01*
X116829763Y-82946353D01*
X115910524Y-83865592D01*
X115910524Y-83865592D01*
G37*
G36*
X116264078Y-84219146D02*
X116087301Y-84042369D01*
X117006540Y-83123130D01*
X117183317Y-83299907D01*
X116264078Y-84219146D01*
X116264078Y-84219146D01*
G37*
G36*
X116617631Y-84572699D02*
X116440854Y-84395922D01*
X117360093Y-83476683D01*
X117536870Y-83653460D01*
X116617631Y-84572699D01*
X116617631Y-84572699D01*
G37*
G36*
X116971185Y-84926253D02*
X116794408Y-84749476D01*
X117713647Y-83830237D01*
X117890424Y-84007014D01*
X116971185Y-84926253D01*
X116971185Y-84926253D01*
G37*
G36*
X117324738Y-85279806D02*
X117147961Y-85103029D01*
X118067200Y-84183790D01*
X118243977Y-84360567D01*
X117324738Y-85279806D01*
X117324738Y-85279806D01*
G37*
G36*
X117678291Y-85633359D02*
X117501514Y-85456582D01*
X118420753Y-84537343D01*
X118597530Y-84714120D01*
X117678291Y-85633359D01*
X117678291Y-85633359D01*
G37*
G36*
X118031845Y-85986913D02*
X117855068Y-85810136D01*
X118774307Y-84890897D01*
X118951084Y-85067674D01*
X118031845Y-85986913D01*
X118031845Y-85986913D01*
G37*
G36*
X118385398Y-86340466D02*
X118208621Y-86163689D01*
X119127860Y-85244450D01*
X119304637Y-85421227D01*
X118385398Y-86340466D01*
X118385398Y-86340466D01*
G37*
G36*
X120471363Y-85421227D02*
X120648140Y-85244450D01*
X121567379Y-86163689D01*
X121390602Y-86340466D01*
X120471363Y-85421227D01*
X120471363Y-85421227D01*
G37*
G36*
X120824916Y-85067674D02*
X121001693Y-84890897D01*
X121920932Y-85810136D01*
X121744155Y-85986913D01*
X120824916Y-85067674D01*
X120824916Y-85067674D01*
G37*
G36*
X121178470Y-84714120D02*
X121355247Y-84537343D01*
X122274486Y-85456582D01*
X122097709Y-85633359D01*
X121178470Y-84714120D01*
X121178470Y-84714120D01*
G37*
G36*
X121532023Y-84360567D02*
X121708800Y-84183790D01*
X122628039Y-85103029D01*
X122451262Y-85279806D01*
X121532023Y-84360567D01*
X121532023Y-84360567D01*
G37*
G36*
X121885576Y-84007014D02*
X122062353Y-83830237D01*
X122981592Y-84749476D01*
X122804815Y-84926253D01*
X121885576Y-84007014D01*
X121885576Y-84007014D01*
G37*
G36*
X122239130Y-83653460D02*
X122415907Y-83476683D01*
X123335146Y-84395922D01*
X123158369Y-84572699D01*
X122239130Y-83653460D01*
X122239130Y-83653460D01*
G37*
G36*
X122592683Y-83299907D02*
X122769460Y-83123130D01*
X123688699Y-84042369D01*
X123511922Y-84219146D01*
X122592683Y-83299907D01*
X122592683Y-83299907D01*
G37*
G36*
X122946237Y-82946353D02*
X123123014Y-82769576D01*
X124042253Y-83688815D01*
X123865476Y-83865592D01*
X122946237Y-82946353D01*
X122946237Y-82946353D01*
G37*
G36*
X123299790Y-82592800D02*
X123476567Y-82416023D01*
X124395806Y-83335262D01*
X124219029Y-83512039D01*
X123299790Y-82592800D01*
X123299790Y-82592800D01*
G37*
G36*
X123653343Y-82239247D02*
X123830120Y-82062470D01*
X124749359Y-82981709D01*
X124572582Y-83158486D01*
X123653343Y-82239247D01*
X123653343Y-82239247D01*
G37*
G36*
X124006897Y-81885693D02*
X124183674Y-81708916D01*
X125102913Y-82628155D01*
X124926136Y-82804932D01*
X124006897Y-81885693D01*
X124006897Y-81885693D01*
G37*
G36*
X124360450Y-81532140D02*
X124537227Y-81355363D01*
X125456466Y-82274602D01*
X125279689Y-82451379D01*
X124360450Y-81532140D01*
X124360450Y-81532140D01*
G37*
G36*
X124537227Y-80188637D02*
X124360450Y-80011860D01*
X125279689Y-79092621D01*
X125456466Y-79269398D01*
X124537227Y-80188637D01*
X124537227Y-80188637D01*
G37*
G36*
X124183674Y-79835084D02*
X124006897Y-79658307D01*
X124926136Y-78739068D01*
X125102913Y-78915845D01*
X124183674Y-79835084D01*
X124183674Y-79835084D01*
G37*
G36*
X123830120Y-79481530D02*
X123653343Y-79304753D01*
X124572582Y-78385514D01*
X124749359Y-78562291D01*
X123830120Y-79481530D01*
X123830120Y-79481530D01*
G37*
G36*
X123476567Y-79127977D02*
X123299790Y-78951200D01*
X124219029Y-78031961D01*
X124395806Y-78208738D01*
X123476567Y-79127977D01*
X123476567Y-79127977D01*
G37*
G36*
X123123014Y-78774424D02*
X122946237Y-78597647D01*
X123865476Y-77678408D01*
X124042253Y-77855185D01*
X123123014Y-78774424D01*
X123123014Y-78774424D01*
G37*
G36*
X122769460Y-78420870D02*
X122592683Y-78244093D01*
X123511922Y-77324854D01*
X123688699Y-77501631D01*
X122769460Y-78420870D01*
X122769460Y-78420870D01*
G37*
G36*
X122415907Y-78067317D02*
X122239130Y-77890540D01*
X123158369Y-76971301D01*
X123335146Y-77148078D01*
X122415907Y-78067317D01*
X122415907Y-78067317D01*
G37*
G36*
X122062353Y-77713763D02*
X121885576Y-77536986D01*
X122804815Y-76617747D01*
X122981592Y-76794524D01*
X122062353Y-77713763D01*
X122062353Y-77713763D01*
G37*
G36*
X121708800Y-77360210D02*
X121532023Y-77183433D01*
X122451262Y-76264194D01*
X122628039Y-76440971D01*
X121708800Y-77360210D01*
X121708800Y-77360210D01*
G37*
G36*
X121355247Y-77006657D02*
X121178470Y-76829880D01*
X122097709Y-75910641D01*
X122274486Y-76087418D01*
X121355247Y-77006657D01*
X121355247Y-77006657D01*
G37*
G36*
X121001693Y-76653103D02*
X120824916Y-76476326D01*
X121744155Y-75557087D01*
X121920932Y-75733864D01*
X121001693Y-76653103D01*
X121001693Y-76653103D01*
G37*
G36*
X120648140Y-76299550D02*
X120471363Y-76122773D01*
X121390602Y-75203534D01*
X121567379Y-75380311D01*
X120648140Y-76299550D01*
X120648140Y-76299550D01*
G37*
D28*
X142273000Y-98425000D03*
X142273000Y-97155000D03*
X142273000Y-95885000D03*
X142273000Y-94615000D03*
X136873000Y-94615000D03*
X136873000Y-95885000D03*
X136873000Y-97155000D03*
X136873000Y-98425000D03*
D10*
G36*
X118479174Y-64765333D02*
X119892667Y-66178826D01*
X116004216Y-70067277D01*
X114590723Y-68653784D01*
X118479174Y-64765333D01*
X118479174Y-64765333D01*
G37*
G36*
X111833784Y-71410723D02*
X113247277Y-72824216D01*
X109358826Y-76712667D01*
X107945333Y-75299174D01*
X111833784Y-71410723D01*
X111833784Y-71410723D01*
G37*
D29*
X145161000Y-96786700D03*
X145161000Y-98285300D03*
D30*
X148411000Y-97536000D03*
D31*
X84582000Y-92710000D03*
X82042000Y-92710000D03*
X84582000Y-90170000D03*
X82042000Y-90170000D03*
X84582000Y-87630000D03*
X82042000Y-87630000D03*
X84582000Y-85090000D03*
X82042000Y-85090000D03*
X84582000Y-82550000D03*
X82042000Y-82550000D03*
X84582000Y-80010000D03*
X82042000Y-80010000D03*
X84582000Y-77470000D03*
X82042000Y-77470000D03*
X84582000Y-74930000D03*
X82042000Y-74930000D03*
X84582000Y-72390000D03*
X82042000Y-72390000D03*
X84582000Y-69850000D03*
X82042000Y-69850000D03*
D32*
X86360000Y-101600000D03*
D33*
X88900000Y-101600000D03*
X91440000Y-101600000D03*
X93980000Y-101600000D03*
X96520000Y-101600000D03*
X99060000Y-101600000D03*
X101600000Y-101600000D03*
X104140000Y-101600000D03*
X106680000Y-101600000D03*
X109220000Y-101600000D03*
X111760000Y-101600000D03*
X114300000Y-101600000D03*
X116840000Y-101600000D03*
X119380000Y-101600000D03*
X121920000Y-101600000D03*
X124460000Y-101600000D03*
X127000000Y-101600000D03*
X129540000Y-101600000D03*
X132080000Y-101600000D03*
X134620000Y-101600000D03*
X137160000Y-101600000D03*
X139700000Y-101600000D03*
X142240000Y-101600000D03*
X144780000Y-101600000D03*
X147320000Y-101600000D03*
X149860000Y-101600000D03*
X152400000Y-101600000D03*
X154940000Y-101600000D03*
D32*
X86360000Y-60960000D03*
D33*
X88900000Y-60960000D03*
X91440000Y-60960000D03*
X93980000Y-60960000D03*
X96520000Y-60960000D03*
X99060000Y-60960000D03*
X101600000Y-60960000D03*
X104140000Y-60960000D03*
X106680000Y-60960000D03*
X109220000Y-60960000D03*
X111760000Y-60960000D03*
X114300000Y-60960000D03*
X116840000Y-60960000D03*
X119380000Y-60960000D03*
X121920000Y-60960000D03*
X124460000Y-60960000D03*
X127000000Y-60960000D03*
X129540000Y-60960000D03*
X132080000Y-60960000D03*
X134620000Y-60960000D03*
X137160000Y-60960000D03*
X139700000Y-60960000D03*
X142240000Y-60960000D03*
X144780000Y-60960000D03*
X147320000Y-60960000D03*
X149860000Y-60960000D03*
X152400000Y-60960000D03*
X154940000Y-60960000D03*
M02*
